ply
format ascii 1.0
comment Created by Open3D
element vertex 33
property double x
property double y
property double z
end_header
-152.388 447.495 -1297
-135.386 469.847 -1312
-124.903 471.375 -1317
-111.798 470.961 -1325
-170.092 467.978 -1304
-179.556 471.473 -1313
-189.666 466.735 -1307
-96.9155 448.1 -1355
-211.952 432.355 -1298
0 0 0
-166.948 406.12 -1292
20.7837 259.412 -1427
-342.783 250.332 -1364
251.389 249.501 -1494
-573.161 208.447 -1357
508.523 262.314 -1550
-808.658 212.885 -1286
588.064 244.048 -1540
-874.56 196.716 -1269
596.208 251.212 -1542
-876.512 199.406 -1266
561.727 253.487 -1544
-861 203.448 -1282
-59.5799 -249.744 -1304
-232.006 -249.006 -1273
-104.57 -681.159 -1408
-220.126 -660.565 -1349
-135.39 -1071.04 -1424
-194.878 -1069.19 -1417
-135.222 -1096.27 -1409
-186.251 -1106.93 -1413
-142.406 -1195.79 -1316
-211.393 -1166.46 -1272
