ply
format ascii 1.0
comment Created by Open3D
element vertex 33
property double x
property double y
property double z
end_header
0 0 0
-51.3146 450.183 -1410
-51.3146 450.183 -1410
-51.3146 450.183 -1410
-62.6326 448.368 -1404
-71.1382 447.499 -1401
-79.6691 446.96 -1399
-85.4854 432.966 -1403
-125.86 430.538 -1403
-26.0915 218.209 -816
-37.0659 224.43 -839
-85.2737 187.212 -1016
-140.615 222.005 -1091
-89.3549 124.647 -1187
-81.5837 218.813 -943
-23.6143 69.3171 -1361
21.1859 204.918 -679
-20.9164 45.0127 -1362
42.0845 208.07 -679
-15.7192 59.3095 -1380
37.2813 208.708 -667
-13.0567 65.1688 -1388
32.0944 206.428 -674
-93.548 -244.258 -1302
-117.138 -260.029 -1299
-107.96 -558.182 -1325
-141.185 -611.096 -1335
-172.433 -939.585 -1382
-180.339 -1068.31 -1405
-214.918 -1069.85 -1416
-221.079 -1174.57 -1387
-34.8636 -1132.54 -1549
4.26274 -1136.03 -1422
