ply
format ascii 1.0
comment Created by Open3D
element vertex 33
property double x
property double y
property double z
end_header
-231.026 454.25 -1309
-203.902 487.291 -1305
-192.824 486.873 -1305
-181.912 486.852 -1306
-226.099 494.064 -1321
-228.921 494.185 -1321
-232.271 495.429 -1324
-134.463 458.535 -1305
-197.298 460.067 -1304
-202 417.895 -1308
-225.914 422.178 -1319
-33.3399 135.372 -595
-199.634 275.789 -1299
17.9748 122.486 -515
-147.261 86.0222 -1175
-4.39334 134.709 -582
-203.883 -59.2479 -1215
-10.7797 134.004 -612
-228.609 -107.974 -1239
-19.3359 135.916 -609
-214.858 -124.664 -1232
-16.8548 136.95 -608
-225.487 -105.189 -1236
-108.992 -239.512 -1209
-169.975 -222.565 -1207
-121.086 -588.463 -1240
-171.208 -532.037 -1230
-106.478 -1067.61 -1328
-113.285 -854.718 -1294
-73.832 -1166.68 -1331
-88.9564 -910.195 -1309
-289.312 -1139.07 -1291
-330.743 -1167.35 -1547
