ply
format ascii 1.0
comment Created by Open3D
element vertex 33
property double x
property double y
property double z
end_header
-196.308 404.809 -1436
0 0 0
-215.051 430.519 -1416
-227.109 436.883 -1436
0 0 0
0 0 0
0 0 0
-244.383 428.666 -1471
-135.917 411.838 -1422
-208.826 373.807 -1446
-175.205 368.441 -1440
-348.572 267.886 -1350
-10.8045 244.597 -1443
-573.325 218.082 -1304
216.369 205.218 -1533
-787.296 222.972 -1222
486.827 245.105 -1617
-828.622 216.683 -1199
594.458 242.504 -1701
-827.698 221.945 -1197
567.145 246.304 -1632
-816.298 223.343 -1212
536.437 248.037 -1627
-256.005 -265.769 -1343
-95.4904 -267.5 -1366
-251.538 -616.927 -1374
-124.71 -619.351 -1414
-223.289 -1053.33 -1381
-141.367 -1085.83 -1407
-216.851 -1112.1 -1352
-144.039 -1143.63 -1368
-244.677 -1024.93 -1382
-177.953 -1060.55 -1419
