ply
format ascii 1.0
comment Created by Open3D
element vertex 66
property double x
property double y
property double z
end_header
-94.7173 377.887 -1470
-75.5343 407.994 -1501
-63.6422 410.064 -1509
-51.4732 407.837 -1513
0 0 0
-127.436 411.03 -1498
-137.193 412.827 -1504
-27.7628 402.301 -1567
-153.9 391.799 -1521
-65.8193 344.04 -1499
-117.103 346.511 -1494
88.1568 215.499 -1619
-268.972 214.7 -1575
306.497 151.639 -1651
-501.185 197.109 -1550
528.346 167.533 -1713
-726.834 243.584 -1544
619.4 158.696 -1713
-825.597 241.109 -1517
624.893 166.319 -1717
-825.806 248.809 -1524
589.488 169.955 -1726
-796.342 243.325 -1544
-2.2788 -321.882 -1533
-187.337 -313.486 -1500
10.9676 -693.466 -1596
-212.839 -726.951 -1593
-9.96832 -1072.14 -1613
-200.606 -1102.24 -1643
-32.7958 -1142.25 -1645
-182.303 -1186.81 -1703
32.0288 -1165.77 -1459
-246.488 -1195.57 -1477
-111.908 355.232 -1705.5
-200.577 1.50169 -3128.5
-92.9843 376.764 -1727.5
-200.577 1.50169 -3128.5
-131.87 382.465 -1704.5
-141.239 378.115 -1720.5
-152.796 377.234 -1723.5
-66.1883 365.591 -1714.5
-172.124 371.464 -1687.5
-99.1863 323.867 -1725.5
-138.271 327.181 -1709.5
60.3667 220.852 -1768.5
-280.22 197.752 -1718.5
302.188 156.291 -1794.5
-465.02 146.95 -1672.5
512.402 141.561 -1837.5
-676.791 147.642 -1637.5
585.651 122.676 -1853.5
-766.61 135.42 -1619.5
578.893 131.018 -1853.5
-765.107 150.719 -1624.5
546.998 133.731 -1842.5
-732.042 152.463 -1631.5
-6.28625 -312.46 -1777.5
-187.536 -307.598 -1764.5
-11.9663 -637.362 -1765.5
-174.926 -639.319 -1745.5
2.59375 -1077.73 -1764.5
-224.073 -1089.1 -1763.5
6.95475 -1167.05 -1770.5
-211.232 -1167.07 -1788.5
-3.10525 -1013.28 -1755.5
-250.14 -1073.98 -1748.5
