ply
format ascii 1.0
comment Created by Open3D
element vertex 33
property double x
property double y
property double z
end_header
-71.5708 726.847 -1633
-81.7014 742.074 -1623
-92.2183 743.616 -1626
-98.5233 739.167 -1616
-57.9383 746.327 -1633
-47.2558 741.654 -1623
0 0 0
-105.526 736.758 -1619
0 0 0
-84.9768 706.276 -1630
-53.6002 700.262 -1617
-222.268 620.808 -1616
89.4926 615.457 -1640
-472.217 622.479 -1646
308.884 607.343 -1716
-662.032 619.505 -1604
537.565 597.668 -1731
-716.908 604.973 -1579
604.047 586.858 -1732
0 0 0
0 0 0
-712.936 630.809 -1611
576.916 596.553 -1719
-146.781 162.187 -1573
10.2794 153.327 -1584
-177.472 -233.453 -1587
-8.62316 -230.864 -1576
-180.458 -598.72 -1613
-15.5496 -627.819 -1572
-157.392 -683.414 -1559
-22.0671 -688.73 -1551
-226.59 -673.223 -1609
-5.67194 -686.466 -1546
