ply
format ascii 1.0
comment Created by Open3D
element vertex 33
property double x
property double y
property double z
end_header
52.4505 754.658 -1617
45.6535 783.44 -1611
41.9999 779.519 -1603
41.9999 779.519 -1603
42.1604 785.935 -1608
35.1971 787.418 -1603
31.6278 783.956 -1596
7.67049 768.126 -1588
-9.31488 777.944 -1592
38.3775 721.037 -1612
34.8833 726.047 -1606
-48.7572 575.034 -1488
-87.2481 591.494 -1395
-9.30357 729.354 -1605
-77.6068 584.431 -1017
-63.9029 834.195 -1576
-75.4391 582.076 -1057
0 0 0
-87.9519 581.717 -1071
-63.8239 572.106 -1015
-92.412 585.095 -1171
-64.832 595.518 -1119
-85.2113 584.954 -1177
-41.1544 160.691 -1504
-82.8029 181.023 -1496
-61.9285 -171.181 -1498
-97.3743 -167.528 -1491
-65.5257 -522.279 -1533
-81.3786 -554.24 -1526
-89.3403 -572.918 -1493
-114.52 -589.585 -1448
27.3937 -637.526 -1587
4.10037 -673.22 -1541
