ply
format ascii 1.0
comment Created by Open3D
element vertex 33
property double x
property double y
property double z
end_header
-228.433 759.623 -1626
0 0 0
-142.161 567.767 -1168
-136.868 566.6 -1166
-213.707 797.3 -1639
0 0 0
0 0 0
-109.907 559.369 -1177
-120.332 561.109 -1180
0 0 0
0 0 0
-84.0807 596.248 -1506
-152.895 550.908 -1510
-103.377 546.066 -1044
-151.719 562.382 -1286
-69.4694 552.989 -967
-84.3864 551.426 -1030
-60.0248 552.672 -949
-68.6024 550.326 -990
-52.0533 552.567 -958
-64.2666 550.219 -990
-56.8331 551.8 -970
-69.295 544.966 -1004
-121.208 157.522 -1529
-168.222 137.763 -1511
-129.114 -223.716 -1545
-180.207 -227.209 -1502
-102.221 -606.438 -1543
-145.288 -591.524 -1485
-81.0475 -672.567 -1555
-119.256 -666.381 -1539
-156 -677.281 -1441
-240.602 -700.064 -1459
