ply
format ascii 1.0
comment Created by Open3D
element vertex 33
property double x
property double y
property double z
end_header
-103.528 746.383 -1581
-80.9901 773.14 -1597
-70.7397 772.982 -1597
-60.5711 773.813 -1599
-114.569 772.908 -1587
-129.26 779.582 -1600
-139.761 780.84 -1602
-40.4314 759.897 -1620
-146.162 764.714 -1601
-80.3856 713.192 -1602
-128.523 720.654 -1608
53.412 597.084 -1694
-253.877 616.427 -1672
279.665 588.239 -1720
-470.223 625.648 -1666
473.817 575.664 -1774
-686.852 635.454 -1666
549.565 547.166 -1770
-750.216 616.155 -1637
551.596 549.204 -1763
-749.676 622.927 -1634
526.509 557.655 -1770
-741.327 631.721 -1651
-15.1636 171.657 -1607
-183.365 167.186 -1588
-31.646 -209.02 -1629
-206.581 -188.755 -1644
-52.6692 -566.562 -1621
-183.743 -541.604 -1594
-61.9995 -606.465 -1591
-173.559 -586.751 -1581
-68.1356 -690.904 -1555
-186.129 -679.993 -1549
