ply
format ascii 1.0
comment Created by Open3D
element vertex 66
property double x
property double y
property double z
end_header
-74.7433 190.342 -1348
-51.0023 224.917 -1359
-37.4127 225.033 -1360
-23.8106 225.164 -1361
-89.5682 223.346 -1365
-98.1613 224.226 -1370
-106.744 224.949 -1374
-2.04757 217.991 -1386
-104.235 219.959 -1378
-48.4623 165.675 -1370
-84.2951 166.3 -1374
101.711 76.1517 -1493
-196.968 92.031 -1455
343.21 33.473 -1558
-414.559 37.8168 -1467
592.139 19.0091 -1622
-652.077 20.5068 -1457
687.169 23.675 -1701
-721.99 11.3543 -1447
693.557 23.7721 -1707
-733.288 14.5569 -1455
646.798 12.6387 -1658
-697.008 8.17791 -1440
35.3512 -369.911 -1421
-139.518 -375.87 -1405
32.5393 -745.952 -1476
-118.914 -772.878 -1453
4.47612 -1094.65 -1543
-83.751 -1094.73 -1535
-16.6636 -1109.38 -1524
-76.6825 -1115.73 -1525
-2.45385 -1170.77 -1388
-58.9585 -1171.05 -1376
-38.5475 216.751 -1526.86
-28.8985 234.051 -1558.86
-21.2765 233.515 -1562.86
-11.4355 232.526 -1569.86
-49.3085 238.336 -1547.86
-56.5255 242.369 -1539.86
-64.9325 242.08 -1540.86
-225.476 8.02385 -2898.86
-225.476 8.02385 -2898.86
-24.3955 186.719 -1522.86
-47.4615 194.143 -1506.86
106.697 84.9379 -1574.86
-183.045 90.655 -1541.86
362.33 54.4822 -1578.86
-447.638 49.6248 -1479.86
556.362 49.5869 -1621.86
-705.982 33.504 -1468.86
603.088 46.5536 -1649.86
-768.327 42.9342 -1456.86
601.844 52.1272 -1651.86
-773.309 55.3406 -1443.86
586.217 46.6898 -1636.86
-751.954 45.6144 -1465.86
23.3435 -367.046 -1612.86
-135.586 -357.794 -1591.86
22.4955 -715.579 -1563.86
-134.421 -718.562 -1531.86
-20.7305 -1118.74 -1544.86
-121.416 -1140.45 -1539.86
-36.0475 -1163.48 -1591.86
-104.603 -1171.55 -1604.86
-21.0815 -1015.72 -1583.86
-126.825 -1018.57 -1577.86
