ply
format ascii 1.0
comment Created by Open3D
element vertex 66
property double x
property double y
property double z
end_header
-52.6949 370.512 -1776
-38.7969 414.138 -1789
-28.2842 418.967 -1810
-17.3278 419.177 -1811
-78.9289 416.195 -1797
-93.0833 410.936 -1790
-108.304 413.818 -1802
0.955443 400.487 -1812
-126.548 392.08 -1805
-27.9983 342.385 -1802
-78.5205 341.817 -1798
128.823 231.773 -1883
-235.861 227.979 -1876
403.326 224.699 -1894
-492.016 223.78 -1906
655.8 206.411 -1894
-765.353 196.229 -1927
729.025 220.521 -1860
-838.097 198.386 -1886
733.719 220.762 -1861
-842.503 194.486 -1886
692.526 208.405 -1866
-814.7 183.436 -1906
33.3694 -285.79 -1801
-150.371 -292.965 -1796
20.7065 -709.438 -1896
-116.669 -707.325 -1888
13.7491 -1088.13 -1927
-100.491 -1097.62 -1933
-7.30674 -1124.6 -1910
-75.243 -1138.05 -1923
36.7416 -1174.94 -1752
-122.632 -1182.02 -1760
-59.4284 361.698 -1932.69
-46.1585 397.848 -1924.69
-33.1403 399.509 -1931.69
-71.6312 -22.2575 -3547.69
-75.7108 387.189 -1952.69
-88.7738 390.284 -1940.69
-101.894 394.758 -1936.69
-1.67875 398.113 -1883.69
-115.892 393.672 -1900.69
-43.8188 323.481 -1968.69
-75.6536 324.103 -1965.69
116.59 212.908 -1978.69
-236.427 211.773 -2005.69
398.988 183.87 -1915.69
-519.241 182.297 -1978.69
666.999 124.417 -1883.69
-771.944 142.316 -1984.69
728.177 124.659 -1899.69
-822.7 135.907 -1997.69
738.54 132.344 -1895.69
-832.963 139.998 -1992.69
711.067 121.229 -1892.69
-787.982 138.882 -1990.69
13.7094 -312.427 -2016.69
-140.195 -306.582 -2013.69
7.28105 -714.663 -1972.69
-125.129 -687.701 -1982.69
-7.57185 -1132.03 -1970.69
-127.444 -1138.38 -1947.69
-15.0794 -1201.99 -2014.69
-115.889 -1199.49 -2004.69
12.5596 -1044.7 -1969.69
-111.875 -1087.84 -1972.69
