ply
format ascii 1.0
comment Created by Open3D
element vertex 66
property double x
property double y
property double z
end_header
-248.325 231.302 -2077
-231.847 252.243 -2078
-225.038 249.76 -2093
-217.222 250.405 -2099
-264.956 252.084 -2074
-274.025 252.781 -2079
-287.791 253.893 -2087
-200.613 225.429 -2104
-304.485 228.74 -2087
-227.191 193.602 -2078
-272.02 193.016 -2068
-102.365 45.9493 -2172
-425.984 63.2256 -2146
114.967 -14.6234 -2205
-662.432 50.8875 -2132
310.698 -19.4684 -2247
-871.401 47.9351 -2151
374.265 -32.9891 -2245
-931.183 34.329 -2126
383.759 -24.033 -2247
-932.958 38.8843 -2130
0 0 0
-910.603 38.6972 -2125
-180.401 -393.885 -2098
-358.29 -403.007 -2085
-196.674 -739.84 -2125
-348.617 -735.784 -2100
-233.483 -1137.31 -2166
-322.38 -1131.58 -2158
-237.046 -1169.28 -2142
-306.732 -1163.11 -2135
-237.419 -1216.72 -2029
-326.16 -1224.24 -2043
-517.581 4.5508 -4330.54
-517.581 4.5508 -4330.54
-517.581 4.5508 -4330.54
-517.581 4.5508 -4330.54
-517.581 4.5508 -4330.54
-517.581 4.5508 -4330.54
-517.581 4.5508 -4330.54
-517.581 4.5508 -4330.54
-517.581 4.5508 -4330.54
-273.521 181.75 -2250.54
-517.581 4.5508 -4330.54
-125.809 44.9086 -2248.54
-417.087 66.5884 -2198.54
95.4683 3.12903 -2285.54
-637.804 29.4989 -2109.54
278.338 11.3699 -2365.54
-867.396 7.49517 -2095.54
330.059 3.15957 -2384.54
-927.644 -5.9649 -2090.54
-517.581 4.5508 -4330.54
-926.36 3.024 -2097.54
318.375 15.4641 -2379.54
-517.581 4.5508 -4330.54
-194.567 -408.109 -2280.54
-346.84 -399.116 -2248.54
-195.308 -792.149 -2243.54
-339.08 -794.187 -2226.54
-222.264 -1200.98 -2268.54
-302.938 -1195.34 -2242.54
-517.581 4.5508 -4330.54
-517.581 4.5508 -4330.54
-517.581 4.5508 -4330.54
-517.581 4.5508 -4330.54
