ply
format ascii 1.0
comment Created by Open3D
element vertex 66
property double x
property double y
property double z
end_header
33.249 410.276 -1598
50.4484 451.609 -1624
64.1145 454.756 -1635
81.5232 459.069 -1650
14.0257 446.343 -1618
0.858688 444.952 -1613
-12.3667 445.346 -1627
91.0634 439.664 -1643
-28.9098 428.846 -1630
59.4867 376.652 -1612
13.9405 374.966 -1620
225.703 247.426 -1695
-141.774 260.317 -1695
491.612 237.078 -1709
-420.72 228.731 -1712
724.702 262.553 -1682
-683.104 217.35 -1677
766.443 263.31 -1649
-749.623 215.191 -1639
774.249 267.096 -1648
-763.143 219.558 -1642
760.795 256.731 -1655
-724.446 211.484 -1645
116.548 -280.645 -1601
-62.4617 -269.982 -1579
105.651 -671.306 -1669
-51.3341 -676.733 -1665
81.7754 -1085.49 -1721
-56.109 -1078.53 -1703
50.5104 -1116.73 -1687
-29.2895 -1114.11 -1676
125.885 -1157.46 -1527
-73.3198 -1164.23 -1506
14.1645 380.938 -1764.15
26.4466 413.393 -1774.15
32.3401 420.888 -1759.15
41.6819 419.211 -1776.15
2.11892 410.017 -1775.15
-6.82388 408.668 -1780.15
-16.1183 409.871 -1776.15
72.3699 409.043 -1755.15
-40.6347 415.67 -1721.15
27.3382 336.652 -1816.15
3.62442 338.186 -1810.15
213.055 225.962 -1801.15
-162.312 229.431 -1821.15
490.308 164.084 -1723.15
-431.906 186.328 -1759.15
726.144 77.6956 -1670.15
-630.081 124.461 -1721.15
793.142 67.9584 -1682.15
-684.659 116.746 -1708.15
792.262 71.2334 -1684.15
-646.654 121.855 -1717.15
765.507 64.5158 -1675.15
-635.75 115.087 -1716.15
91.2432 -304.132 -1835.15
-82.9175 -289.04 -1825.15
72.4177 -692.162 -1816.15
-60.9375 -667.615 -1803.15
74.4075 -1099.23 -1813.15
-48.0733 -1085.69 -1796.15
60.8617 -1179.97 -1855.15
-43.6443 -1155.11 -1852.15
161.096 -1143.16 -1663.15
-20.5219 -1033.77 -1779.15
