ply
format ascii 1.0
comment Created by Open3D
element vertex 66
property double x
property double y
property double z
end_header
-46.5286 208.833 -1480
-23.2441 242.205 -1501
-14.1914 238.501 -1497
-2.21894 236.236 -1502
-64.9109 243.764 -1491
-77.1839 244.808 -1497
-89.325 245.209 -1499
9.99821 228.813 -1534
-105.273 235.275 -1513
-23.2602 179.267 -1508
-68.0923 184.59 -1501
93.0476 78.3902 -1600
-198.538 92.358 -1560
324.282 35.1671 -1642
-423.662 45.7419 -1534
565.421 16.2331 -1694
-641.604 21.1769 -1514
631.757 5.84872 -1699
-700.092 17.8681 -1484
644.373 9.45389 -1712
-708.333 21.0821 -1486
608.597 5.79578 -1688
-683.044 18.0008 -1502
28.5091 -373.407 -1521
-142.774 -376.671 -1504
27.6111 -742.773 -1570
-126.398 -761.242 -1565
-2.72385 -1100.45 -1634
-94.9359 -1092.84 -1628
-21.0122 -1110.95 -1607
-80.4809 -1122.86 -1623
-16.4813 -1166.98 -1473
-85.9475 -1168.37 -1467
-47.9625 196.641 -1584.32
-40.6075 221.272 -1622.32
-31.0505 222.157 -1617.32
-22.9835 224.334 -1623.32
-64.3065 217.866 -1623.32
-73.4395 217.315 -1626.32
-235.077 0.871357 -3071.32
-6.81753 211.447 -1632.32
-235.077 0.871357 -3071.32
-36.6945 172.216 -1588.32
-59.1835 173.483 -1575.32
102.553 77.9537 -1641.32
-181.209 83.2333 -1624.32
354.507 51.5581 -1616.32
-432.118 48.1366 -1558.32
564.493 33.6836 -1665.32
-655.136 33.7226 -1556.32
617.875 21.3267 -1690.32
-739.016 44.0818 -1531.32
623.503 30.7332 -1681.32
-741.677 50.67 -1523.32
596.008 27.4546 -1682.32
-705.801 40.257 -1551.32
15.0295 -383.293 -1701.32
-140.071 -371.691 -1687.32
4.19047 -750.973 -1661.32
-138.057 -727.523 -1653.32
-30.2315 -1131.42 -1687.32
-119.754 -1138.74 -1683.32
-47.8995 -1173.52 -1755.32
-115.706 -1173.01 -1745.32
-34.9655 -1105.44 -1654.32
-124.095 -1079 -1670.32
