ply
format ascii 1.0
comment Created by Open3D
element vertex 33
property double x
property double y
property double z
end_header
0 0 0
0 0 0
0 0 0
0 0 0
-93.7463 364.837 -1506
-82.0356 370.09 -1515
0 0 0
0 0 0
-57.369 377.191 -1600
-127.885 312.76 -1558
-90.5994 317.244 -1566
-281.719 167.23 -1491
73.2764 183.157 -1514
-534.369 94.2754 -1485
335.128 150.266 -1561
-771.07 48.9297 -1442
589.533 127.105 -1582
-846.057 30.4107 -1427
652.104 135.061 -1583
-854.505 36.7984 -1428
647.175 134.727 -1580
-819.128 33.3582 -1427
618.996 127.077 -1574
-168.772 -337.059 -1415
-10.7749 -326.581 -1428
-160.237 -720.936 -1472
-8.71516 -710.887 -1495
-118.869 -1109.62 -1464
-19.6787 -1091.98 -1481
-113.066 -1178.66 -1448
-30.6443 -1186.69 -1479
-142.091 -1073.29 -1470
-43.8352 -1064.43 -1500
