ply
format ascii 1.0
comment Created by Open3D
element vertex 33
property double x
property double y
property double z
end_header
-318.376 357.555 -1481
-288.603 379.803 -1436
-281.754 378.536 -1432
-278.254 380.716 -1429
-284.974 378.904 -1433
-278.254 380.716 -1429
-272.615 381.044 -1431
-225.935 370.922 -1421
-220.337 371.282 -1423
-293.098 313.767 -1470
-289.711 316.341 -1468
0 0 0
0 0 0
-73.3844 77.4264 -696
-55.6921 84.3066 -720
-127.246 74.8994 -721
-74.6029 85.783 -707
-136.177 69.1927 -706
-94.0831 89.7809 -692
-138.208 75.8559 -701
-88.3703 86.895 -670
-131.881 74.8641 -706
-83.791 78.4061 -656
-117.315 -306.598 -1325
-106.872 -302.043 -1330
-123.957 -635.631 -1326
-125.45 -609.281 -1318
-97.5722 -1054.76 -1346
-97.8216 -1016.08 -1370
-60.4047 -1182.73 -1419
-52.4885 -1118.32 -1411
-267.972 -1175.02 -1406
-266.469 -1184.63 -1499
