ply
format ascii 1.0
comment Created by Open3D
element vertex 33
property double x
property double y
property double z
end_header
188.068 361.104 -1511
169.841 392.238 -1509
163.378 394.547 -1506
155.631 390.502 -1491
166.581 394.868 -1507
159.754 393.178 -1501
148.113 386.726 -1477
102.306 375.115 -1471
92.9089 370.381 -1465
169.091 317.091 -1514
161.94 321.163 -1504
24.3164 101.145 -749
6.67409 113.765 -784
-39.6882 91.9664 -773
-54.0833 95.8285 -698
-3.34387 85.8643 -967
-4.35314 101.157 -797
0 0 0
0.417302 98.4369 -801
0 0 0
9.80995 105.974 -785
0 0 0
11.4452 103.462 -790
11.8088 -300.132 -1375
-24.2356 -314.258 -1374
29.6098 -626.892 -1360
-10.9202 -652.406 -1372
3.99167 -976.172 -1376
-22.0767 -1053 -1410
-42.2608 -1082.64 -1419
-73.0064 -1183.91 -1487
154.76 -1168.57 -1476
143.802 -1171.21 -1419
