ply
format ascii 1.0
comment Created by Open3D
element vertex 33
property double x
property double y
property double z
end_header
-114.774 359.561 -1386
-94.0742 398.331 -1409
-80.0374 397.1 -1416
-68.6209 397.826 -1419
-138.084 395.18 -1417
-149.68 392.358 -1417
-161.63 390.378 -1420
-45.8671 380.683 -1435
-170.512 373.383 -1424
-87.6561 329.732 -1410
-133.323 329.83 -1408
75.8239 176.02 -1505
-283.086 195.214 -1496
319.107 115.492 -1564
-519.718 151.63 -1507
577.093 72.9661 -1630
-791.587 123.291 -1514
645.356 62.6186 -1606
-858.612 119.323 -1479
648.55 49.1834 -1605
-862.604 119.425 -1479
617.16 45.74 -1610
-828.506 112.703 -1489
-5.23217 -328.988 -1493
-181.822 -330.216 -1477
-2.33183 -693.477 -1489
-169.777 -695.945 -1480
-6.17479 -1064.58 -1567
-157.627 -1074.93 -1584
-20.6151 -1093.56 -1575
-127.006 -1112.46 -1599
7.88961 -1195.25 -1459
-170.135 -1191.29 -1460
