ply
format ascii 1.0
comment Created by Open3D
element vertex 33
property double x
property double y
property double z
end_header
0 0 0
0 0 0
0 0 0
0 0 0
0 0 0
0 0 0
0 0 0
0 0 0
0 0 0
-165.614 195.144 -2145
0 0 0
-317.296 63.9264 -2183
-20.661 81.3295 -2197
-553.85 25.3238 -2210
205.234 38.4033 -2230
-738.939 -1.51611 -2164
433.23 2.90514 -2194
-798.413 -14.8321 -2141
496.738 -10.3548 -2193
-806.249 -5.9427 -2136
0 0 0
-787.519 -5.96916 -2151
0 0 0
-241.243 -399.551 -2148
-80.9829 -390.321 -2154
-234.526 -762.868 -2189
-89.0501 -750.254 -2188
-230.196 -1149.03 -2178
-127.634 -1161.3 -2207
0 0 0
0 0 0
-211.679 -1179.45 -2173
-122.639 -1187.79 -2193
