ply
format ascii 1.0
comment Created by Open3D
element vertex 33
property double x
property double y
property double z
end_header
-299.219 225.875 -2141
-277.635 251.492 -2140
-272.405 250.626 -2133
-268.211 250.701 -2134
-277.635 251.492 -2140
-277.635 251.492 -2140
-272.576 255.059 -2134
-228.732 232.584 -2129
-233.385 237.243 -2132
-282.439 187.524 -2148
-287.455 187.994 -2153
0 0 0
0 0 0
-105.353 -10.7491 -1620
-175.181 -50.5712 -2061
-97.9852 -13.8347 -1605
-155.509 -54.9596 -2073
0 0 0
-147.883 -59.3262 -2082
-95.0245 -7.47899 -1609
-147.731 -50.9999 -2080
-105.417 -7.53661 -1621
-155.274 -46.65 -2070
-172.925 -382.466 -2060
-205.675 -381.734 -2054
-190.013 -727.52 -2050
-198.074 -721.697 -2046
-166.483 -1060 -2042
-175.257 -1042.06 -2047
-133.548 -1186.31 -2128
-147.564 -1163.65 -2137
-292.021 -1174.23 -2126
-318.546 -1180.26 -2187
