ply
format ascii 1.0
comment Created by Open3D
element vertex 33
property double x
property double y
property double z
end_header
-75.0678 218.552 -2125
-91.8214 251.921 -2118
-96.1416 252.174 -2120
-100.234 251.833 -2117
-91.8214 251.921 -2118
-96.1416 252.174 -2120
-100.234 251.833 -2117
-138.156 243.25 -2115
-138.156 243.25 -2115
-83.5432 188.964 -2127
-87.6153 188.618 -2123
0 0 0
0 0 0
-146.452 20.003 -1510
-224.308 50.9284 -2020
0 0 0
-199.727 83.5862 -1938
-141.801 20.1965 -1525
0 0 0
0 0 0
0 0 0
0 0 0
0 0 0
-151.695 -375.092 -1999
-176.414 -372.342 -2005
-147.043 -704.777 -1988
-183.894 -712.31 -1982
-161.387 -1031.83 -1978
-186.153 -1052.43 -1958
-202.649 -1151.78 -2072
-231.039 -1189.72 -2069
-50.6285 -1175.4 -2172
-72.7228 -1179.65 -2118
