ply
format ascii 1.0
comment Created by Open3D
element vertex 33
property double x
property double y
property double z
end_header
-165.239 206.431 -2085
-146.322 238.586 -2111
-137.808 238.43 -2110
-129.348 234.146 -2110
-182.747 236.664 -2092
-196.473 238.108 -2104
-205 234.042 -2105
-113.088 226.879 -2122
-222.059 221.662 -2107
-145.496 178.618 -2103
-190.496 173.456 -2089
-11.9324 55.1367 -2196
-337.926 72.3953 -2173
209.488 -5.94328 -2228
-559.374 37.9093 -2159
415.633 -33.7941 -2296
-763.526 25.4525 -2179
477.778 -43.207 -2299
-840.011 16.4602 -2160
483.37 -38.6585 -2303
-835.743 20.8507 -2149
463.095 -38.5148 -2297
-813.822 20.8621 -2156
-88.6156 -381.647 -2130
-271.783 -380.846 -2115
-105.603 -730.897 -2159
-273.257 -722.754 -2139
-113.787 -1127.81 -2230
-254.399 -1109.09 -2196
-126.034 -1142.03 -2181
-242.276 -1134.52 -2160
-116.991 -1192.19 -2070
-247.704 -1186.85 -2053
