ply
format ascii 1.0
comment Created by Open3D
element vertex 33
property double x
property double y
property double z
end_header
-58.2679 399.963 -1532
-39.4677 435.695 -1520
-27.1066 436.215 -1522
-14.6972 436.182 -1522
-54.8775 431.95 -1518
-54.8775 431.95 -1518
-58.0124 432.257 -1519
35.1027 428.964 -1531
-23.9917 426.682 -1523
-33.44 369.409 -1540
-52.0518 372.004 -1537
76.1214 271.046 -1338
34.2034 195.79 -1198
33.9934 208.885 -1189
-31.0373 129.038 -1453
-46.2041 128.601 -898
-82.8459 91.359 -869
-56.9994 93.5288 -799
-85.1382 82.0488 -737
-73.834 99.9757 -773
-86.4816 84.895 -723
-68.2383 102.409 -780
-82.7258 84.1191 -770
48.705 -266.118 -1405
31.5926 -250.566 -1399
43.8799 -628.496 -1462
25.0634 -583.294 -1452
78.556 -1084.07 -1540
72.9056 -978.036 -1530
141.929 -1182.86 -1540
136.295 -1139.73 -1645
-127.457 -1152.77 -1470
-129.969 -1156.75 -1692
