ply
format ascii 1.0
comment Created by Open3D
element vertex 33
property double x
property double y
property double z
end_header
33.249 410.276 -1598
50.4484 451.609 -1624
64.1145 454.756 -1635
81.5232 459.069 -1650
14.0257 446.343 -1618
0.858688 444.952 -1613
-12.3667 445.346 -1627
91.0634 439.664 -1643
-28.9098 428.846 -1630
59.4867 376.652 -1612
13.9405 374.966 -1620
225.703 247.426 -1695
-141.774 260.317 -1695
491.612 237.078 -1709
-420.72 228.731 -1712
724.702 262.553 -1682
-683.104 217.35 -1677
766.443 263.31 -1649
-749.623 215.191 -1639
774.249 267.096 -1648
-763.143 219.558 -1642
760.795 256.731 -1655
-724.446 211.484 -1645
116.548 -280.645 -1601
-62.4617 -269.982 -1579
105.651 -671.306 -1669
-51.3341 -676.733 -1665
81.7754 -1085.49 -1721
-56.109 -1078.53 -1703
50.5104 -1116.73 -1687
-29.2895 -1114.11 -1676
125.885 -1157.46 -1527
-73.3198 -1164.23 -1506
