ply
format ascii 1.0
comment Created by Open3D
element vertex 33
property double x
property double y
property double z
end_header
37.446 392.804 -1505
25.1639 425.259 -1495
19.2704 432.754 -1510
9.92862 431.077 -1493
49.4916 421.883 -1494
58.4344 420.534 -1489
67.7288 421.737 -1493
-20.7594 420.909 -1514
92.2452 427.536 -1548
24.2723 348.518 -1453
47.9861 350.052 -1459
-161.444 237.828 -1468
213.923 241.297 -1448
-438.697 175.95 -1546
483.517 198.194 -1510
-674.533 89.5615 -1599
681.692 136.327 -1548
-741.531 79.8243 -1587
736.27 128.612 -1561
-740.651 83.0993 -1585
698.265 133.721 -1552
-713.896 76.3817 -1594
687.361 126.953 -1553
-39.6327 -292.266 -1434
134.528 -277.174 -1444
-20.8072 -680.296 -1453
112.548 -655.749 -1466
-22.797 -1087.36 -1456
99.6838 -1073.82 -1473
-9.25122 -1168.1 -1414
95.2548 -1143.24 -1417
-109.485 -1131.29 -1606
72.1324 -1021.9 -1490
