ply
format ascii 1.0
comment Created by Open3D
element vertex 33
property double x
property double y
property double z
end_header
64.5738 396.714 -1495
55.4855 433.328 -1489
52.325 435.347 -1485
49.0921 433.567 -1479
52.325 435.347 -1485
45.903 434.972 -1473
39.6841 435.743 -1465
0.780093 433.851 -1459
-8.15023 436.415 -1457
49.1535 367.633 -1493
43.0036 369.756 -1489
-72.2592 201.308 -1172
-66.5712 278.869 -1336
-77.5822 28.2402 -686
-86.023 142.863 -982
-142.776 -57.223 -1413
-68.8125 55.1367 -755
-152.302 -74.6333 -1422
-74.6069 28.1494 -684
-152.903 -51.2188 -1402
-65.4458 30.9029 -752
-138.619 -74.8968 -1428
-58.1006 36.9731 -754
-53.163 -245.946 -1342
-31.6681 -243.653 -1345
-51.4617 -554.972 -1389
-58.3871 -619.093 -1401
-83.4928 -909.213 -1454
-84.8684 -1078.21 -1486
-132.516 -1030.6 -1500
-136.899 -1158.46 -1452
91.812 -1158.79 -1653
124.477 -1150.68 -1449
