ply
format ascii 1.0
comment Created by Open3D
element vertex 33
property double x
property double y
property double z
end_header
-147.986 239.003 -1690
-130.615 268.512 -1682
-123.92 268.617 -1683
-120.678 268.91 -1685
-134.081 268.701 -1683
-130.615 268.512 -1682
-127.306 268.644 -1683
-79.3798 249.583 -1672
-93.0776 253.805 -1677
-130.532 204.336 -1687
-137.278 200.978 -1687
0 0 0
-73.7959 65.8686 -1292
0 0 0
-106.239 20.9617 -1585
-10.2013 63.8302 -1084
-92.608 20.7299 -1568
0 0 0
-83.5631 14.5552 -1574
-10.21 61.7301 -1085
-80.7939 24.034 -1581
0 0 0
-89.0321 23.72 -1560
-31.227 -353.718 -1590
-111.737 -358.03 -1592
-42.6689 -717.812 -1582
-117.947 -697.305 -1559
-21.2434 -1126.89 -1623
-75.1305 -1017.1 -1529
8.46625 -1178.5 -1619
-48.9718 -1095.46 -1557
-100.758 -1182.54 -1478
-190.923 -1197.61 -1617
