ply
format ascii 1.0
comment Created by Open3D
element vertex 33
property double x
property double y
property double z
end_header
-18.6461 219.777 -1628
0.861633 249.308 -1649
10.7673 246.414 -1652
20.6473 246.125 -1650
-31.967 248.281 -1642
-42.0475 249.665 -1651
-51.9873 249.845 -1652
37.3958 231.253 -1663
-68.4939 233.302 -1653
4.12832 185.392 -1643
-38.2229 187.694 -1634
145.527 67.6761 -1731
-176.596 90.9673 -1713
371.403 44.6538 -1752
-419.396 105.594 -1700
585.797 57.5836 -1790
-630.536 115.831 -1709
653.596 46.6667 -1779
-690.294 112.197 -1692
655.118 54.1649 -1783
-699.3 120.223 -1704
626.456 57.2662 -1770
-672.647 115.146 -1687
58.1203 -344.49 -1673
-116.131 -342.032 -1659
43.0382 -706.459 -1671
-124.157 -712.267 -1701
35.0919 -1107.05 -1680
-109.096 -1101.95 -1685
19.9198 -1136.14 -1665
-104.395 -1141.43 -1649
19.7276 -1207.45 -1610
-100.465 -1218.45 -1609
