ply
format ascii 1.0
comment Created by Open3D
element vertex 33
property double x
property double y
property double z
end_header
100.912 233.266 -1726
86.5552 266.015 -1712
82.832 265.065 -1706
82.832 265.065 -1706
82.832 265.065 -1706
75.6822 263.944 -1699
68.8749 263.914 -1699
45.1526 257.533 -1703
31.5416 254.196 -1704
89.6878 203.69 -1712
86.079 206.64 -1708
11.6774 78.5134 -1380
-26.1227 74.8813 -1120
9.34697 62.0583 -1444
0 0 0
0 0 0
-23.2682 62.0791 -1091
-12.07 50.5377 -1627
-34.9782 59.2306 -1119
0 0 0
-27.983 62.9366 -1106
0.713991 59.1779 -1377
-23.2682 62.0791 -1091
26.9971 -321.272 -1626
-37.9855 -318.14 -1610
-12.3719 -653.036 -1580
-57.8382 -653.079 -1553
0.949889 -1033.72 -1604
-55.2051 -1028.81 -1554
0.970832 -1099.22 -1618
-79.0117 -1060.83 -1520
108.186 -1179.87 -1668
30.6372 -1201.93 -1589
