ply
format ascii 1.0
comment Created by Open3D
element vertex 33
property double x
property double y
property double z
end_header
-29.866 234.589 -1712
-43.8393 263.744 -1721
-54.0439 263.162 -1717
-61.0466 260.304 -1721
-16.1815 261.703 -1708
-5.98546 263.841 -1722
0 0 0
-74.8556 246.684 -1723
0 0 0
-43.9202 212.527 -1729
-12.9323 213.222 -1735
-188.212 88.2 -1725
115.878 96.3327 -1752
-433.82 75.9154 -1730
361.062 90.5846 -1827
-631.195 82.6058 -1681
568.752 77.1497 -1823
-691.484 61.7409 -1668
645.598 62.7847 -1824
-688.881 75.0602 -1652
650.266 70.8303 -1837
-669.436 78.6841 -1661
618.884 73.603 -1817
-115.085 -369.457 -1690
41.9538 -367.172 -1698
-126.706 -734.911 -1679
40.4082 -743.696 -1702
-128.213 -1187.73 -1715
55.5508 -1184.86 -1706
-96.1574 -1211.53 -1600
38.898 -1221.11 -1628
-135.982 -1191.07 -1712
55.5508 -1184.86 -1706
