ply
format ascii 1.0
comment Created by Open3D
element vertex 33
property double x
property double y
property double z
end_header
-175.428 213.78 -2159
-189.36 239.747 -2119
-194.073 240.342 -2124
-198.558 244.882 -2126
-189.36 239.747 -2119
-194.194 244.737 -2125
-198.558 244.882 -2126
-231.052 230.651 -2111
-231.196 235.017 -2112
-185.61 176.735 -2129
-185.631 180.998 -2129
0 0 0
0 0 0
-286.032 -74.1418 -2024
0 0 0
-295.825 -131.493 -2033
0 0 0
-304.619 -164.376 -2035
-227.104 16.3174 -1442
-291.264 -151.565 -2029
0 0 0
-283.485 -135.493 -2033
0 0 0
-249.176 -388.722 -1999
-285.541 -388.778 -1996
-251.664 -713.881 -1994
-293.075 -722.109 -1988
-280.383 -1049.31 -1993
-306.172 -1065.94 -1983
-325.916 -1159.74 -2066
-354.921 -1203.78 -2092
-192.865 -1189.61 -2172
-238.108 -1188.62 -2096
