ply
format ascii 1.0
comment Created by Open3D
element vertex 33
property double x
property double y
property double z
end_header
0 0 0
0 0 0
0 0 0
0 0 0
0 0 0
0 0 0
0 0 0
0 0 0
0 0 0
-244.06 177.199 -2080
0 0 0
-391.772 40.3578 -2082
-100.494 62.0376 -2132
-613.049 -1.42177 -2045
120.223 24.9481 -2221
-795.919 6.81912 -1965
349.815 2.94437 -2235
-847.64 -1.39123 -1946
410.063 -10.5157 -2240
0 0 0
408.779 -1.5268 -2233
-835.956 10.9133 -1951
0 0 0
-323.014 -412.66 -2050
-170.741 -403.667 -2082
-322.273 -796.7 -2087
-178.501 -798.738 -2104
-295.317 -1205.53 -2062
-214.643 -1199.89 -2088
0 0 0
0 0 0
0 0 0
0 0 0
