ply
format ascii 1.0
comment Created by Open3D
element vertex 33
property double x
property double y
property double z
end_header
-359.734 199.908 -2088
-342.367 233.067 -2084
-337.779 232.792 -2082
-333.523 232.741 -2082
-342.367 233.067 -2084
-342.913 237.632 -2087
-338.643 237.58 -2087
-295.628 220.009 -2085
-299.765 224.155 -2084
-342.677 170.41 -2090
-347.075 166.317 -2091
0 0 0
0 0 0
0 0 0
-189.793 -27.8937 -1679
-147.035 -16.4464 -1548
-175.715 -23.9976 -1642
-130.563 -18.9236 -1501
-146.087 -19.3996 -1538
-145.234 -7.27306 -1562
0 0 0
-151.488 -10.3822 -1562
-144.772 -13.443 -1557
-233.057 -392.8 -2000
-260.113 -386.98 -1989
-234.233 -736.044 -1982
-258.353 -725.962 -1977
-222.056 -1069.87 -1969
-238.15 -1039.44 -1968
0 0 0
-218.331 -1176.65 -2086
-357.781 -1196.28 -2049
-385.134 -1188.25 -2111
