ply
format ascii 1.0
comment Created by Open3D
element vertex 66
property double x
property double y
property double z
end_header
-136.021 202.109 -2085
-120.454 233.221 -2102
-111.788 232.631 -2097
-103.757 233.376 -2104
-153.653 232.719 -2096
-166.728 233.458 -2102
-180.142 234.535 -2111
-87.9836 219.101 -2130
-195.77 216.319 -2098
-115.918 169.863 -2100
-160.502 168.411 -2080
9.79239 37.4865 -2183
-308.561 58.7331 -2153
221.373 -5.9055 -2213
-543.617 29.0136 -2151
418.915 -6.08688 -2263
-745.162 29.5777 -2154
485.787 -15.1265 -2248
-810.75 16.2342 -2135
489.582 -6.0618 -2244
-818.689 20.7585 -2143
467.539 -1.54296 -2250
-790.234 20.5971 -2132
-66.2086 -379.938 -2097
-242.468 -383.471 -2084
-81.9468 -735.998 -2119
-237.47 -734.444 -2093
-120.871 -1123.72 -2178
-200.696 -1137.73 -2169
-125.05 -1161.17 -2154
-186.053 -1171.79 -2150
-116.78 -1203.64 -2061
-196.45 -1209.44 -2029
-312.414 -3.38773 -4329.86
-312.414 -3.38773 -4329.86
-312.414 -3.38773 -4329.86
-312.414 -3.38773 -4329.86
-312.414 -3.38773 -4329.86
-312.414 -3.38773 -4329.86
-312.414 -3.38773 -4329.86
-312.414 -3.38773 -4329.86
-312.414 -3.38773 -4329.86
-156.548 176.248 -2310.86
-312.414 -3.38773 -4329.86
-17.0669 40.4827 -2268.86
-305.158 61.9345 -2226.86
216.852 3.48572 -2286.86
-531.098 25.5763 -2143.86
408.769 11.6277 -2347.86
-753.365 3.98033 -2119.86
470.79 3.39224 -2373.86
-312.414 -3.38773 -4329.86
470.412 15.634 -2374.86
-312.414 -3.38773 -4329.86
451.005 19.7458 -2366.86
-787.181 12.804 -2132.86
-80.1609 -405.824 -2301.86
-235.223 -400.14 -2279.86
-85.3529 -788.23 -2265.86
-231.572 -772.601 -2249.86
-124.222 -1190.46 -2281.86
-204.304 -1175.13 -2246.86
-136.643 -1229.83 -2344.86
-312.414 -3.38773 -4329.86
-126.857 -1222.74 -2329.86
-312.414 -3.38773 -4329.86
