ply
format ascii 1.0
comment Created by Open3D
element vertex 33
property double x
property double y
property double z
end_header
-78.4055 214.192 -1090
-88.5228 233.874 -1076
-95.1351 231.929 -1077
-104.081 232.477 -1079
-67.1616 235.163 -1083
-58.2955 234.655 -1081
-51.7441 234.606 -1081
-113.1 213.422 -1084
-39.7775 223.417 -1115
-89.5013 190.334 -1094
-67.7126 190.844 -1098
-240.171 55.9944 -1127
42.3794 71.1307 -1168
-482.283 36.8799 -1119
275.407 70.3426 -1261
-687.817 32.2038 -1046
487.204 49.8664 -1286
-725.733 27.4097 -1025
555.469 45.0732 -1285
-722.447 36.8817 -1029
549.903 53.1744 -1286
-708.009 36.8652 -1035
521.956 52.8099 -1284
-154.826 -360.186 -1244
-48.0944 -365.236 -1258
-159.82 -1031.75 -1540
-29.5154 -1024.61 -1482
-181.123 -881.927 -1430
-119.553 -927.558 -1502
-188.732 -866.509 -1417
-146.328 -904.213 -1510
-185.073 -796.114 -1382
-101.45 -921.748 -1480
