ply
format ascii 1.0
comment Created by Open3D
element vertex 33
property double x
property double y
property double z
end_header
-197.926 181.143 -1171
-184.067 209.538 -1156
-179.625 209.811 -1158
-174.568 209.361 -1156
-183.954 211.745 -1155
-181.624 214.088 -1155
-179.249 214.043 -1155
-128.388 197.252 -1145
-135.459 204.403 -1145
-182.191 151.096 -1181
-186.452 155.437 -1177
-71.2326 49.9369 -1062
-77.7771 91.3991 -1158
-35.5556 -70.8687 -822
-53.8525 -56.5559 -853
-9.98464 -153.94 -638
-19.7994 -141.474 -667
2.78126 -174.984 -603
-16.2911 -160.254 -631
-4.55084 -178.105 -596
-21.2027 -163.792 -624
-10.8048 -172.245 -607
-22.9903 -158.519 -640
-95.1185 -356.147 -1234
-114.432 -331.011 -1228
-74.5173 -848.454 -1420
-85.4557 -722.079 -1320
30.4273 -199.618 -560
-34.1503 -504.804 -1286
21.9244 -182.842 -586
-54.1647 -457.838 -1261
337.942 -776.731 -2475
9.07206 -501.383 -1340
