ply
format ascii 1.0
comment Created by Open3D
element vertex 33
property double x
property double y
property double z
end_header
-57.8136 170.027 -1080
-41.3807 204.564 -1100
-28.0795 206.395 -1098
-19.4004 207.874 -1106
-76.8034 204.803 -1100
-88.0624 205.28 -1102
-96.9709 205.374 -1102
-3.90625 205.886 -1120
-111.103 202.453 -1110
-32.6774 145.533 -1111
-78.8363 142.592 -1104
97.1143 73.3417 -1243
-214.416 90.9689 -1203
301.977 51.0486 -1285
-437.048 78.269 -1192
514.641 60.4796 -1342
-652.452 92.7708 -1195
578.509 58.2132 -1338
-715.098 85.3022 -1177
592.576 58.4891 -1341
-714.568 87.8487 -1176
563.3 55.5631 -1347
-695.626 90.3708 -1182
21.7058 -331.841 -1296
-159.841 -329.593 -1270
-27.3406 -767.53 -1446
-203.441 -830.743 -1448
-57.9609 -1001.77 -1540
-182.293 -994.545 -1571
-68.5209 -993.847 -1548
-176.471 -997.95 -1584
-88.2598 -1171.25 -1521
-162.782 -1150.51 -1522
