ply
format ascii 1.0
comment Created by Open3D
element vertex 33
property double x
property double y
property double z
end_header
36.7851 213.638 -1202
24.3863 243.899 -1181
21.9594 245.712 -1178
19.5271 247.305 -1174
21.9719 243.479 -1179
17.1679 242.642 -1175
12.4003 244.233 -1171
-25.1603 235.779 -1165
-27.5364 231.372 -1167
24.5189 183.121 -1195
19.673 182.499 -1191
-81.016 98.9425 -1138
-78.3777 93.9647 -1133
-72.5327 -36.2085 -853
-95.0088 -46.6223 -825
-65.6712 -120.567 -656
-82.2636 -121.045 -650
0 0 0
-84.8647 -146.967 -616
0 0 0
-74.1289 -145.567 -611
-64.5513 -139.27 -642
-73.9275 -140.093 -621
-45.9571 -151.378 -600
-58.7615 -155.026 -619
-90.676 -657.917 -1333
-132.54 -672.875 -1314
-123.236 -1093.63 -1545
-187.168 -1181.65 -1459
-150.389 -1130.5 -1509
-217.121 -1199.96 -1400
-56.5086 -1150.08 -1546
-58.994 -1241.65 -1337
