ply
format ascii 1.0
comment Created by Open3D
element vertex 33
property double x
property double y
property double z
end_header
-158.467 476.916 -1823
-169.535 502.7 -1817
-181.393 508.476 -1823
-188.786 508.34 -1822
-142.758 499.794 -1808
0 0 0
0 0 0
-199.185 491.577 -1817
0 0 0
-172.83 453.447 -1821
-140.579 453.067 -1837
-307.172 336.134 -1811
0.974761 345.362 -1858
-548.849 342.744 -1809
221.685 331.533 -1924
-727.262 357.153 -1761
452.644 323.401 -1944
-786.492 345.724 -1744
0 0 0
-791.358 359.468 -1734
522.92 329.207 -1943
-773.134 361.382 -1750
495.226 330.658 -1932
-246.136 -122.932 -1791
-88.5376 -122.87 -1800
-271.311 -505.187 -1794
-94.8664 -502.386 -1810
-290.967 -915.97 -1797
-106.827 -894.582 -1795
-276.066 -982.352 -1750
-121.754 -952.45 -1766
-331.674 -944.376 -1794
-87.6645 -949.521 -1779
