ply
format ascii 1.0
comment Created by Open3D
element vertex 33
property double x
property double y
property double z
end_header
-191.331 472.409 -1679
-173.027 499.617 -1699
-159.306 500.229 -1702
-149.501 502.391 -1710
-204.619 500.311 -1699
-216.193 502.925 -1707
-226.688 502.902 -1706
-135.44 481.164 -1714
-235.834 486.097 -1698
-168.888 442.241 -1703
-213.185 444.143 -1693
-38.7113 319.516 -1798
-359.83 345.019 -1772
183.044 300.946 -1813
-584.507 355.825 -1769
396.834 300.231 -1856
-792.119 370.502 -1773
467.984 287.174 -1860
-863.315 360.329 -1759
478.677 296.687 -1870
-861.378 367.117 -1754
0 0 0
-838.877 367.244 -1762
-118.38 -106.773 -1713
-287.415 -113.054 -1691
-121.107 -468.217 -1712
-298.122 -478.142 -1734
-123.435 -853.485 -1703
-281.881 -853.325 -1725
-138.588 -893.408 -1696
-257.97 -888.811 -1703
-156.199 -969.523 -1657
-301.414 -959.089 -1641
