ply
format ascii 1.0
comment Created by Open3D
element vertex 33
property double x
property double y
property double z
end_header
0 0 0
-295.287 488.704 -1783
-287.79 492.049 -1782
-281.251 497.065 -1787
-305.46 493.319 -1799
-300.02 490.462 -1789
-295.287 488.704 -1783
-226.651 486.342 -1767
-246.833 483.267 -1782
-284.605 437.959 -1795
-292.609 435.314 -1799
-131.204 324.098 -1598
-197.311 304.452 -1667
-130.035 305.829 -1317
-207.739 261.236 -1674
-99.1944 315.622 -1197
-166.045 300.897 -1422
-80.6702 317.108 -1175
-157.128 281.863 -1638
-83.8865 317.845 -1187
-152.367 292.206 -1621
-92.3632 314.802 -1204
-161.71 291.42 -1616
-179.683 -104.765 -1677
-237.83 -115.426 -1681
-186.571 -471.392 -1667
-240.974 -467.727 -1662
-156.627 -878.342 -1650
-184.692 -834.464 -1620
-133.641 -932.248 -1663
-153.154 -907.626 -1641
-225.762 -945.347 -1537
-290.746 -948.062 -1623
