ply
format ascii 1.0
comment Created by Open3D
element vertex 33
property double x
property double y
property double z
end_header
-28.5169 492.42 -1813
-42.8214 516.634 -1789
-46.471 516.652 -1789
-50.0649 516.093 -1787
-50.0649 516.093 -1787
-53.6512 515.536 -1785
-60.8249 518.266 -1781
-89.6796 506.145 -1778
-107.95 510.453 -1779
-42.6616 456.567 -1793
-46.22 455.818 -1790
-103.243 350.743 -1786
0 0 0
-108.699 320.677 -1704
-139.877 322.361 -1388
-148.37 263.362 -1692
-145.78 318.761 -1196
-158.726 236.499 -1696
-168.466 325.205 -1180
-162.365 240.253 -1698
-169.337 322.032 -1187
-155.523 250.39 -1697
-158.781 320.374 -1201
-90.6761 -72.3522 -1707
-176.801 -64.8212 -1683
-123.598 -404.745 -1660
-183.812 -410.707 -1652
-129.014 -773.562 -1702
-157.463 -793.042 -1689
-144.458 -829.858 -1697
-183.901 -813.457 -1619
-55.6229 -910.65 -1749
-96.0236 -941.21 -1713
