ply
format ascii 1.0
comment Created by Open3D
element vertex 66
property double x
property double y
property double z
end_header
-110.537 206.904 -1464
-94.2892 236.586 -1483
-85.6047 240.195 -1487
-76.8409 237.751 -1491
-128.843 231.645 -1469
-141.749 233.496 -1480
-150.89 230.883 -1482
-62.7963 229.03 -1514
-169.425 219.889 -1488
-88.4757 177.442 -1491
-132.498 176.637 -1482
41.4846 58.3531 -1576
-276.634 79.0761 -1536
255.517 27.5586 -1591
-505.701 45.264 -1500
470.3 2.22652 -1658
-724.172 24.4615 -1496
533.521 -18.1121 -1653
-791.524 2.13003 -1488
537.155 -18.1203 -1653
-787.803 5.32513 -1481
511.985 -14.5905 -1642
-771.446 8.52589 -1486
-29.3687 -341.713 -1494
-200.446 -346.325 -1478
-46.7793 -705.557 -1491
-206.878 -703.934 -1494
-69.4181 -1065.44 -1444
-199.516 -1077.65 -1459
-87.3637 -1104.13 -1452
-189.356 -1118.59 -1440
-84.0279 -1189.85 -1409
-183.168 -1200.7 -1404
-126.904 218 -1633.61
-113.226 242.441 -1651.61
-104.192 242.712 -1650.61
-92.1471 243.026 -1649.61
-141.628 245.466 -1632.61
-151.238 240.795 -1641.61
-160.536 239.701 -1647.61
-76.4991 226.367 -1641.61
-245.718 -14.1257 -3125.61
-113.41 194.779 -1648.61
-141.496 197.804 -1625.61
45.0109 65.1514 -1646.61
-258.512 71.8977 -1613.61
277.26 47.1534 -1614.61
-507.725 44.5741 -1554.61
481.988 31.7029 -1667.61
-733.098 10.3856 -1562.61
540.029 12.9025 -1690.61
-807.527 -5.50312 -1557.61
542.206 22.2203 -1693.61
-805.094 4.24831 -1554.61
523.645 25.3438 -1686.61
-781.986 7.34931 -1560.61
-45.9901 -375.313 -1700.61
-199.54 -372.989 -1676.61
-36.6351 -717.61 -1715.61
-180.352 -736.831 -1652.61
-26.0201 -1155.95 -1670.61
-201.725 -1151.53 -1653.61
-38.4831 -1209.2 -1718.61
-180.419 -1224.45 -1673.61
-17.7531 -1176.74 -1669.61
-194.707 -1153.96 -1650.61
