ply
format ascii 1.0
comment Created by Open3D
element vertex 33
property double x
property double y
property double z
end_header
-34.8664 401.398 -1603
-48.1523 436.565 -1607
-48.1104 439.449 -1605
-44.9281 440.253 -1608
-60.9885 438.162 -1600
-71.0744 440.154 -1607
-83.337 435.887 -1591
-80.3689 417.867 -1600
-138.685 414.137 -1596
-41.4206 359.721 -1612
-60.4353 360.024 -1598
0 0 0
-95.3403 127.098 -837
-123.987 -3.88987 -1459
-81.8844 132.752 -820
-44.0008 -206.953 -1495
-64.6405 129.565 -879
-32.119 -255.183 -1493
-50.8163 130.209 -884
-26.3223 -235.913 -1506
-41.3125 131.633 -870
-23.3561 -236.377 -1509
-45.3048 131.377 -880
-103.385 -261.268 -1440
-117.6 -278.03 -1434
-99.6157 -563.802 -1460
-97.0005 -609.078 -1455
-137.109 -942.884 -1554
-124.206 -1080.78 -1567
-182.445 -1068.41 -1622
-164.836 -1147.01 -1550
24.3804 -1160.81 -1716
51.6074 -1165.81 -1554
