ply
format ascii 1.0
comment Created by Open3D
element vertex 33
property double x
property double y
property double z
end_header
-179.257 365.189 -1529
-165.592 413.28 -1540
0 0 0
-84.1947 253.351 -923
-185.746 399.933 -1525
-189.259 400.788 -1528
-193.163 402.431 -1534
-59.6042 254.696 -922
-165.592 413.28 -1540
-150.089 340.677 -1522
-169.162 335.704 -1527
-9.85138 201.944 -1318
-73.3194 204.072 -1425
-42.1563 234.402 -1182
-50.8355 12.6349 -1367
-65.5898 252.574 -900
-101.462 -125.185 -1386
-67.8317 259.112 -810
-94.7529 -167.267 -1366
-73.2131 260.486 -814
-118.118 -176.373 -1416
-76.8357 250.543 -859
-114.305 -163.649 -1405
-34.1603 -293.134 -1330
-55.5321 -268.611 -1331
-23.278 -644.661 -1421
-61.2738 -591.783 -1407
-6.05724 -1093.39 -1515
-5.9101 -981.349 -1516
39.983 -1161.48 -1516
45.1287 -1130.56 -1607
-175.478 -1162.97 -1455
-177.662 -1165.86 -1609
