ply
format ascii 1.0
comment Created by Open3D
element vertex 33
property double x
property double y
property double z
end_header
-147.91 389.229 -1524
-163.795 421.216 -1521
0 0 0
0 0 0
0 0 0
0 0 0
0 0 0
0 0 0
-98.7214 413.097 -1581
-168.098 364.818 -1542
-134.141 362.914 -1550
-329.232 246.414 -1503
15.8491 227.848 -1507
-574.158 264.707 -1593
289.138 245.009 -1603
-836.112 303.74 -1632
597.66 281.8 -1631
-922.969 307.87 -1627
664.148 288.462 -1656
0 0 0
688.667 315.546 -1705
-897.707 301.826 -1621
653.525 300.467 -1667
-210.994 -285.179 -1433
-48.6525 -277.043 -1447
-182.252 -697.946 -1507
-44.4203 -696.113 -1526
-144.793 -1065.95 -1511
-48.7076 -1103.73 -1542
-135.024 -1137.24 -1487
-66.087 -1168.46 -1499
-136.74 -1074.04 -1543
0 0 0
