ply
format ascii 1.0
comment Created by Open3D
element vertex 33
property double x
property double y
property double z
end_header
-315.147 413.764 -1872
-300.201 458.099 -1894
-287.669 456.595 -1889
-276.828 457.763 -1895
-316.993 456.175 -1901
-320.334 451.539 -1898
-324.452 451.883 -1899
-233.714 448.457 -1928
-291.567 437.429 -1892
-290.202 381.752 -1891
-316.501 381.915 -1909
-128.99 226.956 -1757
-260.619 241.293 -1889
-31.5132 157.41 -1626
-275.038 144.154 -1863
53.57 168.264 -1325
0 0 0
93.1016 175.952 -1321
0 0 0
81.4314 181.401 -1303
0 0 0
0 0 0
0 0 0
-180.128 -259.893 -1845
-240.326 -257.34 -1849
-163.413 -654.957 -1846
-210.22 -657.847 -1851
-158.484 -1077.11 -1859
-169.421 -1044.32 -1853
-132.934 -1169.74 -1878
-147.384 -1122.86 -1860
-286.221 -1171.18 -1852
-316.128 -1178.97 -1949
