ply
format ascii 1.0
comment Created by Open3D
element vertex 33
property double x
property double y
property double z
end_header
-230.105 430.898 -2121
-250.779 460.216 -2072
0 0 0
0 0 0
-232.528 461.455 -2099
-228.355 461.606 -2100
-223.859 461.098 -2098
0 0 0
-233.914 447.116 -2114
-246.16 394.93 -2115
-229.878 403.773 -2164
-459.314 224.709 -1992
-92.6497 243.015 -2043
-704.354 150.313 -1981
148.409 186.819 -2054
-969.933 157.479 -2010
389.116 203.15 -2119
-1055.18 150.632 -2009
467.262 205.642 -2135
0 0 0
0 0 0
0 0 0
432.112 220.383 -2114
-338.237 -316.855 -1952
-153.692 -298.827 -1981
-316.743 -711.153 -1980
-156.478 -701.965 -2005
-286.89 -1135.86 -1979
-144.356 -1160.9 -2005
-284.918 -1219.05 -1929
0 0 0
-282.523 -1118.4 -1986
-165.25 -1139.71 -1995
