ply
format ascii 1.0
comment Created by Open3D
element vertex 33
property double x
property double y
property double z
end_header
-125.385 425.198 -1958
-106.573 456.878 -1972
-99.1876 459.593 -1984
-87.1589 455.583 -1985
-134.936 462.45 -1977
-143.18 463.241 -1980
-151.633 460.574 -1986
-75.0409 435.021 -1986
-171.121 438.943 -1981
-105.052 387.512 -1953
-142.142 396.262 -1975
50.6121 229.684 -2072
-315.018 237.636 -2017
299.884 175.994 -2164
-594.096 203.9 -2049
557.334 191.15 -2154
-810.755 237.553 -1958
644.135 196.626 -2150
-879.109 226.75 -1914
641.13 203.085 -2124
0 0 0
610.611 201.632 -2114
0 0 0
-51.1305 -290.283 -2009
-217.679 -295.549 -1982
-61.6239 -670.241 -2034
-210.85 -686.906 -2010
-66.3484 -1063.74 -2094
-188.732 -1086.49 -2092
-71.9939 -1117.5 -2115
-170.871 -1124.16 -2083
-78.7354 -1186.43 -2014
-190.905 -1179.67 -1970
