ply
format ascii 1.0
comment Created by Open3D
element vertex 33
property double x
property double y
property double z
end_header
-15.4447 411.6 -2055
-3.03924 447.072 -2042
5.2022 447.948 -2046
13.5023 449.706 -2054
-36.137 453.358 -2051
-52.7875 454.296 -2055
-65.4809 456.118 -2063
5.20009 435.409 -2047
-95.6379 452.689 -2086
-7.17954 374.277 -2059
-44.74 377.607 -2077
-62.8721 235.287 -1883
-106.642 202.717 -1375
-92.1728 14.2021 -1956
-123.006 190.501 -1474
-42.5848 -152.001 -1995
-89.3741 201.731 -1408
-26.6024 -218.411 -1982
-70.9576 208.523 -1378
-14.8491 -207.827 -1995
-61.2737 208.138 -1289
-22.8322 -184.323 -2000
-64.39 207.28 -1300
-76.9307 -262.386 -1952
-96.348 -262.196 -1950
-74.9736 -641.366 -1946
-87.3815 -656.405 -1952
-88.2775 -1044.12 -1966
-111.012 -1105.38 -1974
-115.365 -1123.01 -1968
-147.894 -1202.31 -1974
55.5416 -1169.71 -2071
31.6412 -1177.3 -1972
