ply
format ascii 1.0
comment Created by Open3D
element vertex 33
property double x
property double y
property double z
end_header
-348.673 411.5 -1822
-323.042 440.45 -1801
-315.699 440.479 -1802
-306.904 447.443 -1816
-341.868 445.794 -1821
-341.868 445.794 -1821
-341.868 445.794 -1821
-255.134 432.881 -1825
-297.96 430.406 -1810
-326.318 374.271 -1830
-341.075 377.855 -1827
-139.172 212.203 -1668
-285.422 244.675 -1825
-38.011 115.321 -1501
-305.863 150.326 -1798
47.1033 109.182 -1229
-721.229 240.853 -3164
80.314 112.633 -1212
-785.781 241.031 -3156
75.544 116.25 -1175
-778.949 247.295 -3155
62.6683 118.47 -1198
-760.355 241.089 -3161
-203.226 -275.665 -1752
-288.341 -268.748 -1794
-222.229 -637.701 -1759
-283.702 -621.476 -1752
-207.087 -1045.38 -1735
-256.714 -1043.98 -1794
-183.459 -1123.69 -1745
-195.2 -1043.64 -1733
-323.809 -1180.18 -1756
-373.825 -1206.91 -1882
