ply
format ascii 1.0
comment Created by Open3D
element vertex 33
property double x
property double y
property double z
end_header
-224.409 418.835 -1886
-218.745 453.489 -1899
-210.524 452.393 -1895
-203.347 449.686 -1901
-234.859 450.966 -1904
-238.767 451.044 -1904
-246.767 447.659 -1906
-191.051 432.617 -1897
-249.895 427.034 -1903
-210.387 390.617 -1903
-231.355 393.597 -1916
-54.7973 221.936 -2002
-393.713 235.436 -1954
211.762 143.137 -2072
-664.254 180.375 -2005
456.103 143.33 -2048
-926.535 185.728 -1948
539.339 142.372 -2020
-1000.48 175.787 -1903
546.707 153.305 -1999
-1000.46 182.521 -1884
513.145 153.011 -2001
-983.036 183.082 -1897
-173.374 -334.502 -1929
-305.569 -323.34 -1922
0 0 0
-275.256 -746.534 -2007
0 0 0
0 0 0
0 0 0
0 0 0
0 0 0
0 0 0
