ply
format ascii 1.0
comment Created by Open3D
element vertex 33
property double x
property double y
property double z
end_header
0 0 0
56.5894 436.154 -1834
56.5894 436.154 -1834
56.5894 436.154 -1834
38.0555 439.927 -1834
30.5366 438.466 -1828
19.4682 438.92 -1830
30.5569 427.666 -1831
-21.5316 437.607 -1857
36.0913 235.614 -1176
25.645 248.995 -1243
-41.189 211.78 -1501
-61.8564 246.431 -1566
-64.854 9.19909 -1744
0.690929 236.879 -1318
-23.4516 -182.104 -1748
63.5919 236.075 -1077
-9.48935 -247.128 -1735
82.0777 252.669 -1120
-6.0359 -240.661 -1739
75.0638 251.919 -1117
-12.9655 -219.605 -1739
66.0958 239.445 -1082
-33.8084 -268.421 -1736
-30.3123 -264.736 -1735
-13.4344 -622.824 -1738
26.0401 -624.964 -1733
-33.8401 -1035.23 -1758
-6.75728 -1079.07 -1751
-69.688 -1101.18 -1762
-46.5946 -1180.19 -1752
100.317 -1140.62 -1768
139.393 -1174.99 -1741
