ply
format ascii 1.0
comment Created by Open3D
element vertex 33
property double x
property double y
property double z
end_header
0 0 0
0 0 0
0 0 0
0 0 0
0 0 0
0 0 0
0 0 0
0 0 0
-120.069 447.753 -1932
-176.564 387.709 -1872
-144.353 388.748 -1898
-339.651 222.1 -1816
23.0856 253.075 -1847
-609.434 221.993 -1799
257.718 255.406 -1852
-860.085 255.046 -1783
509.86 295.435 -1882
-941.384 244.807 -1767
591.5 289.954 -1882
-954.044 261.551 -1772
0 0 0
0 0 0
558.413 304.393 -1880
-219.793 -321.53 -1766
-56.0514 -307.409 -1777
-238.538 -765.312 -1800
-56.2412 -752.87 -1821
-227.621 -1203.45 -1716
-30.7531 -1209.57 -1742
-207.201 -1205.42 -1585
-55.1902 -1210.72 -1607
-188.537 -1207.96 -1674
0 0 0
