ply
format ascii 1.0
comment Created by Open3D
element vertex 33
property double x
property double y
property double z
end_header
-111.545 871.184 -1067
-97.4275 889.658 -1077
-87.3461 889.584 -1082
-76.6422 882.998 -1079
-124.062 877.167 -1060
-134.68 877.46 -1064
-143.633 885.42 -1073
-63.758 857.263 -1093
-156.838 844.909 -1071
-88.2948 842.85 -1078
-129.746 829.048 -1062
15.8343 689.089 -1142
-246.318 687.508 -1106
195.244 741.882 -1208
-440.651 772.596 -1126
394.838 786.968 -1258
-1120.57 1614.47 -2013
497.949 787.204 -1272
-1187.56 1669.61 -2019
498.026 790.267 -1271
-1146.51 1662.79 -2024
457.897 789.966 -1274
-1113.48 1629.21 -2017
-36.3336 247.078 -1012
-185.395 236.248 -1000
-34.3046 -101.194 -971
-192.925 -83.5528 -980
-33.3726 -435.225 -939
-196.282 -439.318 -955
-49.8464 -453.94 -944
-170.558 -478.011 -980
-47.792 -541.48 -866
-228.292 -565.317 -933
