ply
format ascii 1.0
comment Created by Open3D
element vertex 33
property double x
property double y
property double z
end_header
-96.2046 743.578 -987
-76.3368 775.554 -988
-69.8786 781.569 -996
-66.8006 801.02 -1021
-84.3918 761.733 -974
-84.464 760.084 -976
-86.6716 756.985 -976
-61.9869 847.666 -1118
-80.3429 765.858 -1022
-88.8183 723.604 -990
-99.9321 716.502 -988
-87.1113 689.26 -1015
-70.5414 618.715 -1038
-70.2017 797.652 -904
-81.6833 464.508 -1020
-56.6276 820.977 -832
-124.784 411.303 -1011
-31.0247 1563.07 -1573
-135.565 405.406 -1013
-52.18 838.925 -872
-131.282 409.568 -1012
-55.6801 825.621 -858
-131.64 417.081 -1013
-110.101 267.056 -949
-79.9606 234.92 -944
-128.113 -63.1212 -868
-89.0546 -66.8389 -898
-85.9947 -401.623 -864
-70.9259 -421.521 -880
-69.6247 -464.843 -874
-55.0059 -479.046 -880
-99.9021 -470.084 -813
-111.84 -461.955 -794
