ply
format ascii 1.0
comment Created by Open3D
element vertex 33
property double x
property double y
property double z
end_header
-215.681 773.603 -1175
-200.701 799.194 -1153
-192.672 804.164 -1151
-183.981 803.561 -1146
-211.419 791.686 -1156
-211.566 789.587 -1158
-214.649 791.17 -1160
-135.426 702.267 -1004
-159.359 695.403 -1032
-166.339 676.268 -1039
-180.196 674.722 -1054
-100.342 675.85 -1012
-112.497 569.065 -1036
-80.7177 759.729 -846
-92.391 364.622 -1019
-95.6412 1525.33 -1716
-115.287 286.77 -974
-94.9104 1542.92 -1686
-116.212 268.325 -968
-79.7229 1525.91 -1746
-116.302 272.492 -968
-80.9827 1524.07 -1788
-115.241 284.658 -974
-107.937 227.783 -954
-98.4964 193.479 -943
-113.266 -107.003 -916
-101.721 -139.968 -926
-75.5074 -480.039 -898
-85.7168 -471.859 -882
-43.1465 -546.392 -894
-57.4949 -530.282 -871
-145.559 -542.998 -838
-181.605 -558.623 -862
