ply
format ascii 1.0
comment Created by Open3D
element vertex 33
property double x
property double y
property double z
end_header
-95.5553 755.846 -1153
0 0 0
0 0 0
0 0 0
-94.3872 843.775 -1227
-92.1761 849.179 -1235
0 0 0
0 0 0
-84.7479 853.814 -1253
-110.331 737.288 -1149
-92.8087 739.081 -1158
-259.394 680.671 -1124
32.3007 689 -1201
-495.071 751.946 -1133
243.369 760.926 -1281
-963.565 1574.56 -2006
421.346 798.442 -1297
-937.694 1528.5 -1863
503.808 792.22 -1299
-888.648 1528.27 -1887
487.503 793.043 -1298
-898.022 1557.09 -1981
466.658 796.124 -1302
-172.716 233.025 -1025
-29.4518 228.586 -1064
-207.927 -132.203 -1000
-60.6747 -149.594 -1020
-228.502 -467.004 -959
-82.3746 -496.01 -960
-185.139 -518.808 -924
-72.1375 -557.105 -940
-277.083 -580.151 -978
-124.454 -564.035 -918
