ply
format ascii 1.0
comment Created by Open3D
element vertex 33
property double x
property double y
property double z
end_header
30.5723 145.364 -552
64.6468 399.132 -1361
59.192 402.614 -1363
56.3633 402.295 -1362
64.6681 396.485 -1362
59.0811 399.082 -1361
56.3404 399.351 -1362
17.3757 392.981 -1361
20.1646 387.702 -1363
27.957 142.571 -594
29.2984 142.046 -597
-64.1038 193.246 -1112
-18.3096 154.533 -850
-82.1077 48.815 -1189
-0.925185 133.594 -622
-33.1149 -112.636 -1307
32.3873 140.93 -587
-25.2614 -159.07 -1301
37.7278 142.233 -577
-14.9123 -164.55 -1303
35.7559 141.398 -564
-20.1184 -146.431 -1305
33.9258 142.171 -572
-24.9552 -236.56 -1277
-24.9552 -236.56 -1277
-32.135 -586.661 -1293
-37.8497 -606.92 -1296
-60.2675 -1065.57 -1367
-69.5712 -1098.7 -1340
-92.7352 -1130.34 -1338
-107.98 -1198.22 -1343
86.7178 -1191.79 -1429
83.0206 -1173.81 -1350
