ply
format ascii 1.0
comment Created by Open3D
element vertex 33
property double x
property double y
property double z
end_header
0.761005 405.877 -1427
9.51299 430.525 -1427
18.3708 430.144 -1436
27.6733 435.093 -1463
-27.9782 426.987 -1405
-42.3809 427.365 -1406
-56.7323 427.165 -1405
24.5219 408.477 -1458
-85.7677 402.679 -1414
0 0 0
-27.7221 366.154 -1403
137.625 229.99 -1517
-241.905 223.628 -1486
350.296 182.849 -1511
-490.205 218.808 -1453
566.176 193.611 -1505
-736.168 228.034 -1427
624.115 179.217 -1503
-807.965 217.239 -1390
643.356 186.536 -1506
-815.706 220.745 -1390
611.007 187.596 -1496
-784.672 214.522 -1402
38.331 -298.612 -1436
-132.219 -301.54 -1432
13.6534 -686.356 -1513
-135.261 -694.003 -1486
11.7301 -1096.86 -1573
-116.438 -1103.54 -1546
4.49685 -1110.28 -1545
-103.057 -1130.62 -1551
18.0985 -1179.73 -1440
-120.437 -1200.55 -1444
