ply
format ascii 1.0
comment Created by Open3D
element vertex 33
property double x
property double y
property double z
end_header
-162.236 409.301 -1422
-141.201 436.36 -1411
-135.754 437.478 -1415
-126.722 436.382 -1412
-144.385 440.131 -1413
-141.362 439.757 -1412
-138.638 440.32 -1414
-76.6821 417.619 -1403
-82.852 425.584 -1409
-142.368 373.888 -1405
-148.4 377.532 -1407
-61.2905 204.681 -1100
-9.14867 214.451 -1221
-130.7 175.981 -863
-90.5941 171.161 -1032
-176.276 166.228 -684
-158.975 175.503 -740
-209.397 176.859 -673
-157.211 167.265 -711
-197.367 182.211 -651
-156.599 168.067 -708
-186.061 178.999 -663
-160.159 183.559 -715
-42.7351 -210.165 -1275
-9.63568 -217.316 -1287
-23.9409 -584.396 -1295
-39.6498 -544.221 -1280
23.4401 -1100.9 -1355
0.844002 -1029.51 -1367
76.7298 -1197.89 -1344
49.5204 -1106.95 -1362
-150.725 -1170.75 -1354
-161.973 -1187.29 -1493
