ply
format ascii 1.0
comment Created by Open3D
element vertex 33
property double x
property double y
property double z
end_header
-47.0191 383.781 -1380
0 0 0
0 0 0
-74.9641 411.066 -1371
-24.3695 408.898 -1365
-13.1453 406.77 -1358
-2.10059 417.241 -1393
0 0 0
0 0 0
-65.2981 360.758 -1416
-27.8016 355.785 -1409
-231.449 225.57 -1385
139.751 213.089 -1386
-481.1 195.915 -1467
347.427 198.713 -1444
-737.956 197.378 -1516
540.482 204.347 -1471
-812.796 190.668 -1520
599.212 198.351 -1483
-822.039 202.047 -1529
591.449 207.163 -1480
-794.434 200.963 -1529
570.008 203.061 -1478
-146.954 -274.673 -1329
54.1573 -265.456 -1329
-145.754 -663.098 -1368
21.1065 -631.451 -1370
-109.003 -1109.09 -1351
10.5546 -1096.47 -1361
-97.0725 -1195.66 -1324
7.45477 -1171.85 -1355
-107.482 -1039.44 -1360
-12.1274 -1052.81 -1392
