ply
format ascii 1.0
comment Created by Open3D
element vertex 33
property double x
property double y
property double z
end_header
0 0 0
-313.083 440.78 -2036
-304.239 439.947 -2033
-295.722 439.552 -2032
0 0 0
0 0 0
0 0 0
-260.501 430.291 -2052
-305.019 428.668 -2040
-312.637 382.378 -2041
-331.692 385.333 -2055
-156.391 236.538 -1830
-267.215 240.022 -1909
-181.864 267.725 -1718
0 0 0
-140.909 357.211 -1364
-257.121 486.167 -2016
-123.772 375.123 -1325
-157.748 303.303 -1574
-126.686 375.738 -1327
-147.554 305.07 -1567
-139.617 367.69 -1349
-266.816 480.673 -2028
-196.185 -279.635 -1929
-267.703 -273.868 -1938
-179.9 -659.317 -1996
-243.029 -631.787 -1974
-162.89 -1100.82 -2040
-213.362 -1060.37 -2123
-119.915 -1189.72 -2037
-167.016 -1098.79 -2036
-303.22 -1175.66 -1918
-379.164 -1179.51 -2106
