ply
format ascii 1.0
comment Created by Open3D
element vertex 33
property double x
property double y
property double z
end_header
-24.2911 274.174 -1383
-36.9254 286.592 -1334
-39.2402 286.556 -1321
-42.2726 286.401 -1333
-42.2726 286.401 -1333
-44.3665 285.279 -1315
-50.1488 285.367 -1328
-63.6369 277.807 -1331
-78.4161 270.622 -1309
-30.2216 255.071 -1403
-35.8692 252.391 -1404
-117 230.715 -1972
-197.145 230.426 -1868
-139.504 57.2036 -1964
-135.381 218.134 -1662
-128.755 -72.1124 -1979
-64.2756 267.501 -1407
-124.93 -127.266 -1979
-56.7062 275.16 -1359
-121.137 -115.597 -1982
-65.1421 273.404 -1364
-121.208 -92.0128 -1984
-66.3304 270.011 -1390
-105.653 -277.862 -1977
-172.405 -277.186 -1969
-151.947 -634.03 -2015
-176.599 -641.706 -2010
-221.803 -993.561 -2039
-208.38 -1089.1 -2055
0 0 0
-244.877 -1164.36 -2033
-93.8012 -1165.67 -2195
-61.0299 -1169.66 -2023
