ply
format ascii 1.0
comment Created by Open3D
element vertex 33
property double x
property double y
property double z
end_header
0 0 0
0 0 0
0 0 0
0 0 0
0 0 0
0 0 0
0 0 0
0 0 0
0 0 0
0 0 0
0 0 0
-418.383 274.049 -2032
-40.409 255.772 -2081
-671.354 296.89 -2031
200.802 270.396 -2124
-917.534 341.875 -2009
0 0 0
-999.758 326.327 -1996
0 0 0
-995.954 345.08 -1976
524.732 348.918 -2176
-962.287 349.563 -1988
494.401 346.32 -2164
-328.835 -298.991 -1995
-156.112 -295.474 -2013
-326.515 -682.047 -2053
-190.317 -673.397 -2066
-306.653 -1089.76 -2048
-178.948 -1104.53 -2076
-304.067 -1142.48 -2008
-180.987 -1151.88 -2025
-302.074 -1116.08 -2038
-198.869 -1125.86 -2035
