ply
format ascii 1.0
comment Created by Open3D
element vertex 33
property double x
property double y
property double z
end_header
-159.604 467.871 -2093
-142.831 481.042 -2094
-134.683 477.94 -2100
-122.929 477.49 -2118
-175.974 483.282 -2083
-188.63 479.088 -2083
-202.033 480.883 -2090
-117.802 440.107 -2108
-225.11 442.482 -2072
0 0 0
0 0 0
-3.2068 250.25 -2179
-378.492 257.29 -2142
228.329 225.583 -2230
-632.207 259.739 -2161
474.851 239.765 -2254
-888.08 291.799 -2142
556.528 225.983 -2241
-961.94 289.575 -2102
0 0 0
-961.674 293.972 -2101
0 0 0
-941.599 294.697 -2113
-94.7404 -284.663 -2086
-288.921 -283.052 -2062
-146.759 -705.134 -2181
-290.097 -694.137 -2137
-168.814 -1087.77 -2203
-275.939 -1086.5 -2182
-177.469 -1120.54 -2180
-269.617 -1122.01 -2155
-130.663 -1192.5 -2070
-281.292 -1175.92 -2031
