ply
format ascii 1.0
comment Created by Open3D
element vertex 33
property double x
property double y
property double z
end_header
-75.5865 422.291 -1566
-97.8913 451.015 -1560
-97.8913 451.015 -1560
-97.8913 451.015 -1560
-107.13 449.692 -1555
-112.992 447.755 -1548
-118.723 445.534 -1540
-131.399 426.96 -1544
-162.567 426.139 -1539
-76.2061 390.448 -1585
-88.061 386.124 -1567
0 0 0
0 0 0
-76.9953 75.3675 -745
-114.413 114.24 -881
-47.6093 78.3446 -862
-67.49 88.4646 -755
-92.9233 61.4576 -1428
-64.4261 76.93 -793
-92.8231 75.5637 -1426
-58.4827 80.0322 -777
-95.6962 86.936 -1426
-58.4325 80.9152 -756
-158.133 -261.903 -1408
-166.055 -263.803 -1402
-148.21 -584.899 -1418
-157.562 -604.354 -1416
-171.111 -1040.15 -1545
-197.378 -1081 -1542
-214.962 -1105.15 -1528
-250.032 -1172.21 -1550
0 0 0
-24.9139 -1184.63 -1593
