ply
format ascii 1.0
comment Created by Open3D
element vertex 33
property double x
property double y
property double z
end_header
-156.289 407.21 -1394
-140.637 443.721 -1435
-129.089 441.585 -1439
-117.178 438.241 -1439
-181.136 441.905 -1426
-195.49 438.263 -1423
-207.573 436.104 -1425
-96.8495 413.04 -1450
-233.966 406.739 -1428
-129.424 366.313 -1423
-180.455 364.211 -1411
34.3922 206.573 -1530
-357.266 223.451 -1490
287.705 163.237 -1602
-610.534 161.269 -1519
536.367 165.126 -1612
-859.091 121.723 -1466
612.868 164.236 -1584
-946.548 99.8016 -1444
623.221 170.968 -1582
-942.931 96.5097 -1445
591.49 163.812 -1585
-906.158 95.3784 -1439
-55.5871 -316.284 -1395
-247.11 -316.313 -1381
-76.9396 -678.903 -1464
-269.486 -675.067 -1448
-121.827 -1084.28 -1586
-233.762 -1087.83 -1576
-124.806 -1111.15 -1563
-208.706 -1121.51 -1565
-94.354 -1201.75 -1405
-283.514 -1207.95 -1426
