ply
format ascii 1.0
comment Created by Open3D
element vertex 33
property double x
property double y
property double z
end_header
-335.868 421.21 -1478
-309.872 451.004 -1484
-303.211 447.178 -1483
-292.637 442.051 -1478
-320.167 455.598 -1487
-320.167 455.598 -1487
-316.133 454.236 -1483
-245.295 412.04 -1480
-271.463 427.121 -1485
-322.844 383.563 -1483
-333.327 388.157 -1487
-162.891 164.636 -962
-155.965 190.266 -1143
-191.82 123.593 -837
-174.948 125.179 -945
-212.477 147.657 -766
-206.662 148.01 -769
-225.37 150.472 -770
-225.64 151.177 -765
-213.537 149.195 -740
-187.791 141.304 -681
-199.484 142.014 -713
-213.321 147.635 -757
-226.329 -266.687 -1366
-198.838 -261.412 -1371
-235.01 -637.441 -1377
-225.485 -586.742 -1368
-171.853 -1089.3 -1490
-201.762 -1041.7 -1498
-109.07 -1168.4 -1510
-145.32 -1115.09 -1495
-367.141 -1182.18 -1450
0 0 0
