ply
format ascii 1.0
comment Created by Open3D
element vertex 33
property double x
property double y
property double z
end_header
0 0 0
0 0 0
0 0 0
0 0 0
0 0 0
0 0 0
0 0 0
0 0 0
0 0 0
-250.141 370.623 -1518
-211.569 370.51 -1535
-420.244 209.443 -1444
-46.8116 210.103 -1489
-693.083 164.557 -1463
214.028 161.154 -1589
-974.376 163.032 -1444
473.144 130.374 -1652
-1035.21 171.518 -1437
0 0 0
-1045.88 183.349 -1451
532.577 119.968 -1636
-1009.65 173.866 -1438
503.37 120.225 -1646
-295.075 -310.923 -1390
-119.771 -293.593 -1423
-327.285 -682.347 -1464
-142.649 -640.248 -1477
-269.095 -1116.03 -1498
-171.836 -1115.06 -1519
-271.495 -1182.59 -1483
-172.13 -1180.54 -1490
-263.948 -1067.33 -1509
-136.608 -1146.29 -1619
