ply
format ascii 1.0
comment Created by Open3D
element vertex 33
property double x
property double y
property double z
end_header
0 0 0
-151.315 294.627 -2179
-146.298 297.637 -2169
-136.713 295.663 -2155
-156.514 291.845 -2191
-151.426 290.486 -2181
-151.426 290.486 -2181
-84.4401 293.634 -2142
-106.248 281.915 -2151
-129.854 238.602 -2190
-136.174 237.644 -2222
24.793 156.994 -1992
0 0 0
0 0 0
-67.058 74.7288 -2018
-38.9737 86.9477 -1428
0 0 0
-45.4675 91.4331 -1454
0 0 0
-41.8484 92.7036 -1429
-69.7599 78.319 -1479
-38.7073 91.9865 -1418
-69.7599 78.319 -1479
-48.5847 -315.878 -2070
-77.5632 -311.767 -2070
-62.9971 -663.808 -2084
-88.8903 -657.084 -2091
-26.4943 -1118.85 -2139
-40.1026 -1061.53 -2143
10.4438 -1182.54 -2114
-3.44981 -1143.48 -2165
-173.68 -1184.05 -2102
0 0 0
