ply
format ascii 1.0
comment Created by Open3D
element vertex 33
property double x
property double y
property double z
end_header
-78.5733 326.181 -2216
-70.2057 346.319 -2230
-56.9207 337.978 -2235
-43.8338 335.948 -2252
-96.411 348.756 -2216
-104.892 343.049 -2208
-113.899 343.561 -2211
0 0 0
-140.202 303.209 -2210
-56.9421 271.071 -2242
-95.2772 270.166 -2197
74.6438 126.926 -2311
-282.036 126.317 -2289
303.811 105.455 -2332
-514.573 86.6803 -2303
527.118 74.8397 -2370
-738.382 74.2247 -2311
595.137 69.6293 -2344
0 0 0
607.413 74.7204 -2353
0 0 0
578.043 69.8601 -2355
-784.939 69.41 -2298
-29.9055 -374.198 -2216
-212.219 -374.828 -2213
-54.5018 -734.996 -2261
-212.215 -743.74 -2251
-107.114 -1110.09 -2309
-176.853 -1114.83 -2316
-111.999 -1149.07 -2295
-166.343 -1150.17 -2295
-89.5838 -1201.36 -2198
0 0 0
