ply
format ascii 1.0
comment Created by Open3D
element vertex 33
property double x
property double y
property double z
end_header
-41.1933 298.796 -2118
-57.7381 317.877 -2102
-61.8251 317.284 -2098
-65.645 315.482 -2086
-57.7381 317.877 -2102
-57.7381 317.877 -2102
-61.8251 317.284 -2098
-95.0552 295.296 -2092
-99.2892 295.456 -2093
-57.8274 267.872 -2110
-57.8274 267.872 -2110
-142.964 115.381 -1956
-126.196 129.818 -1999
0 0 0
0 0 0
-218.497 25.6356 -1933
0 0 0
-219.96 17.7432 -1912
0 0 0
-217.172 29.8324 -1956
0 0 0
-216.301 34.2059 -1984
0 0 0
-122.962 -337.291 -1995
-94.7467 -332.542 -1992
-106.511 -675.757 -2009
-114.919 -676.533 -2011
-154.471 -1068.46 -2059
-169.426 -1110.16 -2067
-194.436 -1147.72 -2085
-207.882 -1192.05 -2065
-12.8443 -1183.94 -2157
-34.8506 -1176.91 -2055
