ply
format ascii 1.0
comment Created by Open3D
element vertex 33
property double x
property double y
property double z
end_header
0 0 0
0 0 0
0 0 0
0 0 0
0 0 0
0 0 0
0 0 0
-47.8301 305.722 -2231
0 0 0
-3.20558 263.155 -2177
27.1849 263.289 -2178
-176.659 133.959 -2126
162.515 117.448 -2135
-400.207 127.956 -2148
405.995 85.5579 -2168
0 0 0
669.655 73.7337 -2162
0 0 0
731.786 64.8961 -2149
0 0 0
728.806 78.3322 -2154
0 0 0
703.643 73.5848 -2150
-45.4352 -369.44 -2111
98.8503 -371.055 -2119
-52.1909 -752.733 -2154
107.441 -736.408 -2147
-8.10835 -1140.31 -2159
0 0 0
-8.02193 -1197.62 -2111
93.931 -1183.3 -2124
0 0 0
102.571 -1111.59 -2134
