ply
format ascii 1.0
comment Created by Open3D
element vertex 33
property double x
property double y
property double z
end_header
-82.1 130.718 -404
-69.4289 138.151 -393
-65.7188 136.434 -391
-61.5784 136.278 -391
-76.4886 141.419 -399
0 0 0
0 0 0
-51.5824 136.404 -411
-67.4456 138.264 -391
-85.0934 134.145 -449
-94.2856 140.476 -466
-97.9711 196.226 -919
0 0 0
-177.961 191.29 -1119
-240.589 190.299 -1119
0 0 0
-217.192 120.199 -1090
-86.7482 142.495 -524
-217.206 107.011 -1091
-78.3163 136.149 -478
-211.775 110.869 -1086
-85.3272 141.919 -522
-214.643 113.417 -1089
-144.061 -218.775 -1101
-140.031 -217.202 -1105
-129.267 -538.696 -1077
-133.139 -512.558 -1078
-101.605 -1063.93 -1243
-96.9457 -954.789 -1218
-60.9687 -1162.43 -1236
-62.4697 -1115.04 -1310
-281.248 -1163.54 -1244
-274.847 -1158.75 -1316
