ply
format ascii 1.0
comment Created by Open3D
element vertex 33
property double x
property double y
property double z
end_header
-11.6551 178.672 -527
-19.0386 176.398 -491
-20.0966 176.767 -492
-20.0966 176.767 -492
-23.2025 177.159 -493
-26.4824 178.634 -497
-29.5167 178.316 -496
-34.1974 174.041 -506
-50.4223 174.927 -511
-16.2117 175.377 -577
-21.8962 174.835 -571
-77.8177 257.289 -1257
-118.812 173.938 -854
16.5369 151.664 -616
-83.73 169.255 -770
-14.4937 172.396 -606
-18.5318 170.529 -618
-23.8147 169.822 -625
-0.903505 169.65 -601
-26.2267 174.879 -563
-2.12107 170.372 -599
-26.0616 172.948 -617
-7.11732 166.975 -610
-61.726 -238.173 -1192
-118.18 -257.781 -1200
-91.0054 -555.577 -1160
-111.529 -584.04 -1158
-133.862 -1018.79 -1337
-138.898 -1071.06 -1336
-166.562 -1101.87 -1344
-175.372 -1162.65 -1337
45.423 -1171.87 -1436
49.9507 -1162.32 -1349
