ply
format ascii 1.0
comment Created by Open3D
element vertex 33
property double x
property double y
property double z
end_header
0 0 0
0 0 0
0 0 0
0 0 0
0 0 0
0 0 0
0 0 0
-245.737 448.04 -1315
-126.551 440.307 -1312
-204.293 398.045 -1328
-168.262 394.148 -1328
-374.766 260.792 -1279
-7.25022 255.83 -1318
-663.944 205.662 -1287
248.84 216.435 -1379
-918.845 169.918 -1274
545.585 230.208 -1455
-975.143 153.213 -1259
606.626 230.703 -1464
-966.637 165.142 -1263
610.462 239.602 -1481
-943.028 164.131 -1264
583.24 228.804 -1457
-243.08 -259.948 -1260
-101.532 -256.3 -1268
-239.39 -715.32 -1402
-111.125 -678.095 -1373
-221.764 -1107.43 -1340
-155.742 -1116.62 -1363
-204.787 -1176.77 -1295
-157.293 -1178.83 -1307
-213.174 -1054.75 -1378
0 0 0
