ply
format ascii 1.0
comment Created by Open3D
element vertex 33
property double x
property double y
property double z
end_header
-83.5023 427.837 -1277
-61.7331 465.925 -1313
-50.7586 462.166 -1311
-34.8735 464.36 -1326
-101.522 467.048 -1298
-117.959 465.528 -1301
-129.41 467.923 -1307
-23.8828 441.726 -1329
-154.503 453.705 -1315
-62.9515 394.123 -1296
-107.588 400.418 -1287
81.2401 266.282 -1431
-288.433 274.098 -1377
312.141 252.237 -1503
-558.918 255.461 -1380
590.355 268.557 -1592
-802.503 262.684 -1343
710.09 268.683 -1704
-867.267 261.428 -1308
715.765 275.856 -1727
-875.247 265.02 -1308
629.079 249.408 -1590
-849.999 259.548 -1323
0.698953 -257.475 -1331
-182.591 -255.841 -1314
-5.03951 -618.624 -1371
-174.282 -617.731 -1347
-23.2379 -1077.3 -1499
-166.011 -1063.64 -1474
-46.875 -1099.76 -1466
-145.639 -1101.61 -1458
-15.1983 -1169.48 -1308
-148.62 -1177.4 -1279
