ply
format ascii 1.0
comment Created by Open3D
element vertex 66
property double x
property double y
property double z
end_header
-22.4166 414.591 -1642
-2.48574 453.275 -1656
14.2404 446.493 -1644
27.6081 446.524 -1644
-43.0909 452.015 -1664
-53.3736 453.156 -1668
-70.8278 452.948 -1680
52.9126 442.474 -1709
-77.6379 432.346 -1683
10.926 383.988 -1659
-42.8087 378.497 -1665
179.328 254.113 -1745
-171.484 252.058 -1756
433.525 229.419 -1772
-445.999 233.157 -1800
659.62 237.563 -1731
-722.892 191.949 -1809
719.313 234.529 -1720
-800.206 185.602 -1801
722.255 227.059 -1718
-800.206 185.602 -1801
702.387 225.2 -1739
-763.964 176.651 -1797
89.1587 -265.897 -1696
-80.9769 -270.572 -1704
101.393 -661.153 -1723
-43.7578 -675.833 -1795
100.589 -1060.15 -1807
-35.1987 -1080.82 -1827
80.6639 -1095.73 -1793
-7.00266 -1134.43 -1808
130.261 -1146.01 -1605
-93.2145 -1165.4 -1641
-1.14119 371.787 -1877.99
11.0694 406.439 -1880.99
20.4266 407.629 -1887.99
29.3331 417.238 -1865.99
-19.4895 401.979 -1885.99
-28.8637 402.919 -1882.99
-41.3098 403.62 -1880.99
51.1223 401.45 -1851.99
-59.0066 403.549 -1846.99
11.9272 339.469 -1904.99
-18.4558 341.123 -1898.99
172.655 233.643 -1913.99
-166.593 225.402 -1933.99
456.214 206.655 -1842.99
-434.585 204.513 -1894.99
722.913 144.499 -1823.99
-526.913 197.457 -1899.99
792.31 138.6 -1836.99
-551.68 184.882 -1905.99
800.11 142.182 -1836.99
-494.902 180.359 -1901.99
768.517 137.721 -1838.99
-480.078 177.522 -1895.99
74.2425 -297.96 -1940.99
-81.0096 -288.348 -1931.99
88.7609 -685.919 -1905.99
-55.3226 -678.436 -1908.99
92.7362 -1110.27 -1895.99
-48.2185 -1112.01 -1907.99
78.62 -1170.5 -1946.99
-43.7504 -1184.81 -1966.99
98.993 -1048.9 -1892.99
-46.6431 -1047.14 -1909.99
