ply
format ascii 1.0
comment Created by Open3D
element vertex 33
property double x
property double y
property double z
end_header
-578.441 -219.776 -1270
-588.705 -192.688 -1266
-594.154 -192.484 -1265
-605.452 -190.829 -1268
0 0 0
0 0 0
0 0 0
-613.232 -206.275 -1264
0 0 0
0 0 0
-579.844 -253.055 -1305
-726.505 -374.271 -1281
-434.115 -373.081 -1297
-950.882 -431.219 -1336
-222.523 -430.348 -1373
-1126.12 -424.926 -1302
24.1323 -447.158 -1395
-1184.17 -432.767 -1302
80.8491 -457.583 -1400
-1186.2 -428.702 -1302
0 0 0
-1166.74 -427.712 -1305
61.6128 -452.513 -1426
-575.063 -777.861 -1195
-451.233 -785.962 -1206
-613.199 -1205.33 -1265
-474.506 -1203.58 -1262
-595.126 -1558.62 -1285
-498.62 -1539.26 -1262
-574.466 -1615.42 -1276
-493.942 -1588.81 -1247
-602.516 -1572.36 -1268
-504.378 -1527.15 -1271
