ply
format ascii 1.0
comment Created by Open3D
element vertex 33
property double x
property double y
property double z
end_header
0 0 0
0 0 0
-492.703 -244.905 -1382
-493.852 -241.067 -1373
-493.791 -246.564 -1379
-495.639 -243.071 -1372
-498.111 -241.061 -1361
-523.25 -243.892 -1354
-529.62 -245.997 -1354
-491.064 -317.189 -1398
-494.865 -316.123 -1384
-515.15 -353.257 -1188
-508.861 -327.633 -1177
-492.704 -334.354 -1161
-337.776 -257.31 -976
-361.175 -300.335 -1017
-151.479 -177.636 -713
-356.887 -301.102 -1014
-136.302 -198.803 -777
-346.594 -291.662 -998
0 0 0
-344.65 -292.975 -997
-134.63 -180.944 -721
-539.182 -791.967 -1235
-554.054 -790.99 -1234
-525.109 -1110.84 -1246
-538.002 -1125.11 -1249
-564.75 -1439.12 -1272
-598.675 -1542.25 -1309
-600.917 -1511.14 -1296
-631.307 -1601.79 -1311
-503.898 -1691.02 -1462
-455.115 -1609.73 -1289
