ply
format ascii 1.0
comment Created by Open3D
element vertex 33
property double x
property double y
property double z
end_header
-520.381 -288.992 -1393
-506.748 -260.914 -1397
-493.154 -260.858 -1396
-486.038 -264.125 -1401
-537.075 -259.278 -1390
-554.129 -263.248 -1400
-567.146 -264.075 -1405
0 0 0
-595.314 -282.541 -1420
-507.474 -328.876 -1401
-542.272 -326.783 -1394
-409.954 -473.508 -1479
-715.16 -459.755 -1494
-197.05 -542.301 -1521
-953.949 -491.352 -1530
6.86305 -601.458 -1573
-1154.87 -494.932 -1544
65.3307 -617.481 -1576
-1213.31 -499.342 -1539
76.5052 -623.17 -1597
-1217.12 -498.929 -1538
55.0688 -611.36 -1573
-1201.01 -502.655 -1541
-440.53 -891.685 -1426
-610.089 -897.91 -1427
-452.74 -1270.58 -1442
-587.405 -1257.16 -1420
-495.844 -1642.29 -1490
-584.591 -1636.63 -1498
-501.442 -1641.32 -1473
-572.769 -1657.21 -1498
-454.652 -1650.03 -1364
-547.654 -1656.03 -1380
