ply
format ascii 1.0
comment Created by Open3D
element vertex 33
property double x
property double y
property double z
end_header
0 0 0
-587.709 -181.76 -1247
-580.497 -179.384 -1244
-572.279 -179.304 -1243
-594.978 -180.151 -1250
-589.211 -177.617 -1246
-587.286 -175.642 -1246
0 0 0
0 0 0
0 0 0
0 0 0
-221.394 -164.897 -594
-389.785 -294.904 -1033
-262.369 -173.358 -644
-391.37 -288.255 -958
-260.481 -146.079 -604
-291.793 -174.711 -658
-248.169 -124.864 -557
-280.952 -156.507 -631
0 0 0
-277.428 -151.552 -623
-245.127 -125.61 -564
-237.63 -132.087 -557
-414.281 -736.559 -1117
-432.218 -730.049 -1118
-435.02 -1102.38 -1143
-434.447 -1094.69 -1146
-409.472 -1538.79 -1241
-418.458 -1432.74 -1189
-379.428 -1602.49 -1251
-399.738 -1553.87 -1241
-543.559 -1587.97 -1225
-571.11 -1598.94 -1260
