ply
format ascii 1.0
comment Created by Open3D
element vertex 33
property double x
property double y
property double z
end_header
-79.9328 203.239 -2143
-92.444 232.373 -2134
-96.521 231.951 -2130
-100.725 231.856 -2129
-96.521 231.951 -2130
-100.787 236.244 -2130
-104.941 236.038 -2128
-135.027 223.966 -2134
-143.178 227.65 -2128
-92.053 167.889 -2129
-96.3837 168.057 -2131
-126.127 28.4963 -1484
-208.747 68.5762 -1950
-190.255 -139.751 -2043
-154.09 10.4883 -1440
-174.303 -270.486 -2039
0 0 0
-173.122 -321.299 -2020
0 0 0
-165.45 -309.955 -2027
0 0 0
-166.263 -291.077 -2039
0 0 0
-172.333 -400.457 -2001
-221.738 -402.304 -2007
-169.06 -727.448 -2000
-213.422 -735.46 -1982
-191.545 -1028.74 -1980
-217.276 -1058.91 -1968
-217.363 -1080.75 -1961
-261.285 -1198.58 -2092
-79.7674 -1192.78 -2193
-104.976 -1192.43 -2110
