ply
format ascii 1.0
comment Created by Open3D
element vertex 33
property double x
property double y
property double z
end_header
0 0 0
0 0 0
0 0 0
0 0 0
0 0 0
0 0 0
0 0 0
0 0 0
0 0 0
-176.584 176.212 -2025
0 0 0
-321.672 39.9563 -2069
-32.278 61.1236 -2102
-562.313 11.2628 -2085
195.997 33.156 -2177
-752.777 6.98954 -2031
411.774 11.7372 -2200
-812.118 -1.42357 -2005
473.248 7.31843 -2190
0 0 0
472.174 16.1033 -2185
-797.127 11.173 -2014
0 0 0
-257.208 -411.252 -2028
-101.947 -405.15 -2049
-248.055 -778.863 -2059
-111.316 -779.753 -2082
-226.926 -1169.23 -2082
-140.923 -1170.36 -2099
-216.342 -1220.3 -2046
0 0 0
-213.384 -1197.42 -2074
0 0 0
