ply
format ascii 1.0
comment Created by Open3D
element vertex 33
property double x
property double y
property double z
end_header
-302.586 198.202 -2076
-285.496 231.108 -2072
-281.155 230.953 -2071
-276.553 230.577 -2068
-285.496 231.108 -2072
-281.155 230.953 -2071
-276.553 230.577 -2068
-239.137 218.037 -2071
-239.517 222.532 -2074
-285.319 164.57 -2075
-285.319 164.57 -2075
0 0 0
0 0 0
0 0 0
-163.143 -93.4469 -2013
-130.022 8.08646 -1530
-156.381 -174.912 -2026
0 0 0
-145.029 -196.115 -2036
-123.667 8.06862 -1527
-145.01 -192.034 -2036
-130.278 11.1497 -1533
-156.419 -183.027 -2026
-170.618 -404.455 -1980
-198.083 -399.495 -1974
-191.989 -744.697 -1972
-216.047 -734.483 -1967
-174.001 -1077.53 -1958
-186.293 -1048.96 -1961
-148.737 -1218.84 -2057
-162.672 -1180.17 -2076
-297.796 -1192.63 -2049
-318.227 -1186.43 -2105
