ply
format ascii 1.0
comment Created by Open3D
element vertex 66
property double x
property double y
property double z
end_header
-258.886 413.628 -1914
-249.535 448.766 -1928
-242.247 449.773 -1933
-232.386 453.5 -1950
-274.607 451.366 -1937
-282.886 452.011 -1939
-291.191 452.661 -1941
-227.171 435.266 -1942
-306.514 428.313 -1940
-242.035 382.75 -1941
-269.679 383.037 -1940
-92.9071 239.605 -2049
-437.404 239.915 -1986
154.353 198.557 -2136
-723.693 210.431 -2045
388.852 211.531 -2117
-974.784 237.139 -1984
471.486 200.108 -2075
-1029.53 213.058 -1937
0 0 0
-1036.51 216.963 -1931
0 0 0
0 0 0
-206.822 -289.098 -1994
-325.591 -292.463 -1951
-231.351 -694.393 -2044
-344.068 -695.694 -1997
0 0 0
-358.926 -1135.56 -2048
0 0 0
-360.045 -1160.66 -2015
-195.05 -1209.74 -2011
0 0 0
-649.782 -29.5787 -4208.25
-649.782 -29.5787 -4208.25
-649.782 -29.5787 -4208.25
-649.782 -29.5787 -4208.25
-649.782 -29.5787 -4208.25
-649.782 -29.5787 -4208.25
-649.782 -29.5787 -4208.25
-649.782 -29.5787 -4208.25
-278.813 429.514 -2028.25
-649.782 -29.5787 -4208.25
-649.782 -29.5787 -4208.25
-64.2499 192.032 -2190.25
-427.145 213.375 -2137.25
203.728 139.849 -2176.25
-676.109 174.961 -2095.25
472.968 153.174 -2143.25
-916.645 169.262 -2029.25
-649.782 -29.5787 -4208.25
-649.782 -29.5787 -4208.25
549.108 163.567 -2154.25
-992.227 165.779 -2026.25
523.368 167.574 -2151.25
-965.664 174.328 -2026.25
-197.979 -358.38 -2222.25
-378.185 -344.235 -2185.25
-204.455 -799.237 -2171.25
-365.787 -782.537 -2133.25
-250.363 -1219.18 -2214.25
-366.032 -1220.3 -2161.25
-649.782 -29.5787 -4208.25
-649.782 -29.5787 -4208.25
-245.386 -1220.73 -2212.25
-344.916 -1236.79 -2144.25
