ply
format ascii 1.0
comment Created by Open3D
element vertex 66
property double x
property double y
property double z
end_header
-152.388 447.495 -1297
-135.386 469.847 -1312
-124.903 471.375 -1317
-111.798 470.961 -1325
-170.092 467.978 -1304
-179.556 471.473 -1313
-189.666 466.735 -1307
-96.9155 448.1 -1355
-211.952 432.355 -1298
0 0 0
-166.948 406.12 -1292
20.7837 259.412 -1427
-342.783 250.332 -1364
251.389 249.501 -1494
-573.161 208.447 -1357
508.523 262.314 -1550
-808.658 212.885 -1286
588.064 244.048 -1540
-874.56 196.716 -1269
596.208 251.212 -1542
-876.512 199.406 -1266
561.727 253.487 -1544
-861 203.448 -1282
-59.5799 -249.744 -1304
-232.006 -249.006 -1273
-104.57 -681.159 -1408
-220.126 -660.565 -1349
-135.39 -1071.04 -1424
-194.878 -1069.19 -1417
-135.222 -1096.27 -1409
-186.251 -1106.93 -1413
-142.406 -1195.79 -1316
-211.393 -1166.46 -1272
-146.187 410.435 -1474.88
-342.495 5.62607 -2910.88
-127.444 436.145 -1494.88
-115.386 442.509 -1474.88
-342.495 5.62607 -2910.88
-342.495 5.62607 -2910.88
-342.495 5.62607 -2910.88
-98.1119 434.292 -1439.88
-206.578 417.464 -1488.88
-133.669 379.433 -1464.88
-167.29 374.067 -1470.88
6.07711 273.512 -1560.88
-331.69 250.223 -1467.88
230.83 223.708 -1606.88
-558.864 210.844 -1377.88
444.801 228.598 -1688.88
-829.322 250.731 -1293.88
486.127 222.309 -1711.88
-936.953 248.13 -1209.88
485.203 227.571 -1713.88
-909.64 251.93 -1278.88
473.803 228.969 -1698.88
-878.932 253.663 -1283.88
-86.4899 -260.143 -1567.88
-247.004 -261.874 -1544.88
-90.9569 -611.301 -1536.88
-217.785 -613.725 -1496.88
-119.206 -1047.7 -1529.88
-201.128 -1080.2 -1503.88
-125.644 -1106.47 -1558.88
-198.456 -1138 -1542.88
-97.8179 -1019.3 -1528.88
-164.542 -1054.92 -1491.88
