ply
format ascii 1.0
comment Created by Open3D
element vertex 33
property double x
property double y
property double z
end_header
-61.4399 31.6597 -1652
-45.8425 62.2418 -1681
-39.213 62.3115 -1683
-25.8933 59.0682 -1686
-79.1079 62.1617 -1678
-89.2294 62.2484 -1680
-99.3812 62.3366 -1682
-5.84741 45.921 -1695
-116.603 49.1893 -1689
-42.1055 -1.12779 -1666
-84.8244 2.17026 -1660
91.8916 -113.135 -1760
-220.245 -90.9946 -1731
307.414 -127.388 -1797
-444.106 -85.2686 -1727
522.09 -135.37 -1880
-661.173 -81.7009 -1761
594.286 -144.75 -1889
-724.404 -85.0496 -1737
599.957 -140.385 -1881
-727.964 -77.7524 -1736
574.079 -134.981 -1864
-704.082 -81.1643 -1737
25.1628 -527.722 -1692
-150.268 -533.544 -1671
19.3057 -888.691 -1699
-164.886 -891.431 -1658
4.97347 -1329.33 -1657
-152.181 -1321.03 -1656
-10.8091 -1368.76 -1650
-145.463 -1359.18 -1655
4.91025 -1404.48 -1584
-167.679 -1400.34 -1554
