ply
format ascii 1.0
comment Created by Open3D
element vertex 33
property double x
property double y
property double z
end_header
48.8824 53.6574 -1727
34.8175 83.6465 -1709
31.4073 86.9914 -1708
31.4073 86.9914 -1708
31.3868 83.5465 -1707
28.0482 87.0911 -1710
24.6237 86.9875 -1708
-5.87408 76.5272 -1702
-12.6376 73.1895 -1703
41.7453 22.6643 -1716
34.8124 25.9758 -1710
-18.2761 -83.8653 -1604
0 0 0
-30.0663 -99.1986 -1100
0 0 0
-31.4695 -194.932 -1621
0 0 0
-28.3236 -218.205 -1624
0 0 0
-25.073 -211.644 -1624
0 0 0
-25.0447 -201.699 -1623
0 0 0
-9.0551 -493.734 -1617
-78.1269 -491.372 -1608
-26.4808 -832.63 -1584
-79.282 -822.551 -1541
8.58793 -1252.04 -1614
-64.1517 -1216.29 -1528
-18.0122 -1302.07 -1596
-81.7771 -1249.05 -1498
90.9649 -1388.88 -1611
1.00738 -1383.83 -1535
