ply
format ascii 1.0
comment Created by Open3D
element vertex 33
property double x
property double y
property double z
end_header
-202.209 42.8368 -1698
-178.82 73.4178 -1702
-175.302 73.3644 -1701
-167.975 69.7484 -1696
-182.344 73.4714 -1703
-178.82 73.4178 -1702
-175.519 76.8465 -1703
-126.864 52.6246 -1691
-140.632 59.482 -1694
-188.18 8.97386 -1695
-195.222 8.98738 -1697
0 0 0
-132.822 -86.9819 -1599
8.82059 -104.173 -1040
-119.841 -291.348 -1624
-1.55358 -101.64 -1057
-137.847 -446.858 -1620
-1.55358 -101.64 -1057
-140.327 -486.926 -1602
-14.4746 -95.2173 -1080
-143.688 -490.476 -1602
-14.4111 -99.0754 -1075
-140.794 -475.373 -1610
-90.7663 -517.987 -1592
-153.634 -520.341 -1596
-103.679 -850.931 -1548
-162.355 -851.175 -1560
-79.8511 -1261.05 -1538
-120.797 -1196.86 -1514
0 0 0
-93.085 -1259.64 -1504
-177.635 -1385.23 -1492
-248.269 -1391.58 -1590
