ply
format ascii 1.0
comment Created by Open3D
element vertex 33
property double x
property double y
property double z
end_header
-84.1538 53.2514 -1713
-94.9084 77.5055 -1722
-104.648 77.1186 -1713
-115.696 77.6789 -1725
-70.9258 77.4705 -1722
0 0 0
0 0 0
-129.571 57.1797 -1727
0 0 0
-94.5775 29.5144 -1717
-67.7762 29.7228 -1730
-240.437 -97.684 -1725
63.5116 -91.588 -1751
-486.864 -86.0126 -1735
293.986 -96.4564 -1829
-673.642 -92.0347 -1671
517.36 -101.542 -1822
-734.116 -108.626 -1638
579.902 -117.023 -1819
-736.158 -98.5013 -1643
582.622 -106.318 -1828
-712.985 -94.7187 -1644
561.668 -102.168 -1825
-171.28 -555.445 -1669
-12.9 -549.728 -1680
-184.932 -934.075 -1663
-21.0757 -941.483 -1683
-225.416 -1384.18 -1687
-6.95388 -1372.18 -1682
-200.733 -1405.51 -1577
-30.3753 -1391.28 -1622
-290.803 -1392.32 -1648
-10.9516 -1378.77 -1676
