ply
format ascii 1.0
comment Created by Open3D
element vertex 66
property double x
property double y
property double z
end_header
-100.843 439.879 -1295
-84.1825 472.736 -1323
-71.082 471.191 -1336
-54.9525 472.219 -1348
-122.372 477.617 -1318
-136.693 477.13 -1324
-149.98 475.69 -1319
-49.023 443.895 -1344
-175.41 455.779 -1328
-82.3489 400.834 -1308
-127.7 402.905 -1303
46.5457 256.562 -1427
-307.41 261.882 -1386
293.785 206.435 -1510
-566.045 226.838 -1385
568.455 178.059 -1600
-819.917 221.388 -1346
644.157 155.362 -1627
-889.634 225.302 -1323
657.305 156.876 -1641
-898.945 228.385 -1319
618.965 156.695 -1610
-866.187 221.691 -1329
-20.4555 -246.662 -1317
-189.266 -248.827 -1305
-27.4441 -601.11 -1332
-159.532 -608.124 -1320
-46.4411 -1076.05 -1459
-144.479 -1079.31 -1453
-59.3813 -1099.05 -1428
-129.824 -1106.85 -1423
-43.8185 -1174.9 -1292
-126.137 -1168.99 -1282
-267.762 -18.0408 -2843.53
-267.762 -18.0408 -2843.53
-267.762 -18.0408 -2843.53
-78.3647 431.74 -1534.53
-136.843 424.142 -1543.53
-267.762 -18.0408 -2843.53
-267.762 -18.0408 -2843.53
-56.6127 421.15 -1515.53
-174.633 419.791 -1501.53
-101.399 381.922 -1485.53
-136.763 381.698 -1473.53
64.2663 238.573 -1535.53
-292.996 239.802 -1486.53
324.001 160.932 -1543.53
-542.995 206.272 -1416.53
539.853 99.6842 -1585.53
-829.598 212.758 -1344.53
598.045 77.5766 -1601.53
-885.619 212.612 -1360.53
598.252 83.2812 -1601.53
-884.057 219.479 -1356.53
584.783 83.7082 -1588.53
-861.41 214.846 -1360.53
-58.0907 -283.051 -1580.53
-208.56 -279.216 -1549.53
-83.9927 -696.388 -1509.53
-205.653 -667.43 -1506.53
-97.0857 -1106.29 -1482.53
-164.506 -1115.34 -1472.53
-109.459 -1175.21 -1511.53
-154.032 -1191.02 -1501.53
-100.792 -1025.67 -1483.53
-146.832 -1068.98 -1427.53
