ply
format ascii 1.0
comment Created by Open3D
element vertex 33
property double x
property double y
property double z
end_header
-773.433 -364.439 -1533
-731.369 -329.588 -1495
-727.236 -327.487 -1496
-719.775 -327.353 -1495
-738.505 -328.25 -1500
-735.712 -325.677 -1499
-731.081 -323.35 -1499
-670.374 -339.644 -1484
-687.06 -338.474 -1490
-745.014 -390.313 -1510
-752.65 -394.201 -1516
-521.109 -455.767 -1350
-642.734 -505.761 -1474
-358.626 -444.834 -1176
-549.45 -601.762 -1440
-185.351 -413.228 -1001
-787.342 -1053.66 -2358
-132.62 -413.507 -957
-757.502 -1080.38 -2359
-133.136 -419.755 -961
-757.62 -1073.02 -2359
-150.879 -417.247 -966
-776.4 -1061.66 -2359
-569.118 -906.665 -1409
-616.068 -902.673 -1411
-578.055 -1234.41 -1387
-596.671 -1224.05 -1390
-578.318 -1545.26 -1384
-600.96 -1532.19 -1401
-583.946 -1714.73 -1487
-558.685 -1547.71 -1373
-724.052 -1722.19 -1487
-747.735 -1722.36 -1511
