ply
format ascii 1.0
comment Created by Open3D
element vertex 33
property double x
property double y
property double z
end_header
-673.523 -391.913 -1540
-673.257 -361.823 -1517
-684.85 -364.116 -1527
-689.766 -360.413 -1522
0 0 0
0 0 0
0 0 0
0 0 0
0 0 0
-673.31 -401.696 -1513
-662.975 -412.138 -1533
-798.293 -510.345 -1508
-546.404 -550.781 -1570
-989.623 -524.246 -1441
-362.003 -654.577 -1690
-1110.05 -513.372 -1336
-130.619 -737.65 -1718
-1138.62 -514.929 -1294
-105.073 -950.942 -2159
-1147.95 -511.227 -1300
-83.4235 -738.386 -1713
-1135.65 -512.79 -1309
-99.6543 -736.17 -1708
-683.284 -924.715 -1475
-603.811 -934.678 -1488
-727.387 -1323.53 -1533
-640.521 -1344.4 -1554
-727.825 -1668.9 -1531
-652.025 -1674.8 -1542
-721.85 -1739.56 -1540
-643.764 -1713.05 -1524
-720.882 -1708.92 -1513
-668.447 -1738.9 -1543
