ply
format ascii 1.0
comment Created by Open3D
element vertex 33
property double x
property double y
property double z
end_header
-570.381 -367.27 -1467
-558.624 -345.74 -1484
-548.529 -345.386 -1482
-540.608 -348.801 -1486
-591.266 -341.564 -1478
-610.794 -343.213 -1486
-621.605 -342.609 -1484
-534.541 -366.41 -1509
-656.162 -366.619 -1516
-559.76 -406.19 -1489
-603.712 -403.646 -1482
-472.201 -574.904 -1572
-771.9 -543.214 -1559
-256.838 -655.927 -1625
-992.775 -578.772 -1560
-62.8319 -723.357 -1678
-1189.17 -618.081 -1577
-8.94825 -757.368 -1701
-1242.43 -629.846 -1567
-0.750694 -753.814 -1705
-1244.06 -628.22 -1569
-22.4711 -744.072 -1689
-1224.41 -629.456 -1571
-524.715 -935.417 -1494
-682.036 -927.84 -1487
-559.22 -1321.08 -1543
-700.826 -1314.92 -1548
-609.821 -1719.06 -1600
-705.172 -1714.8 -1597
-612.174 -1723.17 -1575
-687.931 -1731.34 -1581
-575.865 -1727.6 -1473
-645.097 -1726.99 -1475
