ply
format ascii 1.0
comment Created by Open3D
element vertex 33
property double x
property double y
property double z
end_header
-493.062 -408.999 -1568
-503.526 -370.205 -1553
-503.566 -364.116 -1538
-505.134 -361.693 -1528
-503.084 -365.565 -1544
-504.057 -360.22 -1532
-505.948 -355.615 -1523
-546.652 -363.157 -1516
-541.923 -358.376 -1516
-503.909 -433.442 -1549
-505.086 -429.832 -1545
-592.919 -482.861 -1400
-528.648 -427.62 -1336
-1130.11 -923.023 -2360
-528.451 -454.027 -1321
-680.025 -583.486 -1473
-358.423 -373.615 -974
0 0 0
-330.737 -367.596 -896
-660.008 -571.601 -1454
-318.461 -362.346 -893
-650.063 -568.969 -1447
-319.609 -360.97 -900
-567.212 -908.519 -1389
-576.03 -899.854 -1389
-567.086 -1209.66 -1376
-588.491 -1205.03 -1366
-599.261 -1478.27 -1367
-616.609 -1513.02 -1378
-636.889 -1559.45 -1386
-670.722 -1602.11 -1426
-573.99 -1731.14 -1521
-582.403 -1737.77 -1501
