ply
format ascii 1.0
comment Created by Open3D
element vertex 33
property double x
property double y
property double z
end_header
-74.7433 190.342 -1348
-51.0023 224.917 -1359
-37.4127 225.033 -1360
-23.8106 225.164 -1361
-89.5682 223.346 -1365
-98.1613 224.226 -1370
-106.744 224.949 -1374
-2.04757 217.991 -1386
-104.235 219.959 -1378
-48.4623 165.675 -1370
-84.2951 166.3 -1374
101.711 76.1517 -1493
-196.968 92.031 -1455
343.21 33.473 -1558
-414.559 37.8168 -1467
592.139 19.0091 -1622
-652.077 20.5068 -1457
687.169 23.675 -1701
-721.99 11.3543 -1447
693.557 23.7721 -1707
-733.288 14.5569 -1455
646.798 12.6387 -1658
-697.008 8.17791 -1440
35.3512 -369.911 -1421
-139.518 -375.87 -1405
32.5393 -745.952 -1476
-118.914 -772.878 -1453
4.47612 -1094.65 -1543
-83.751 -1094.73 -1535
-16.6636 -1109.38 -1524
-76.6825 -1115.73 -1525
-2.45385 -1170.77 -1388
-58.9585 -1171.05 -1376
