ply
format ascii 1.0
comment Created by Open3D
element vertex 33
property double x
property double y
property double z
end_header
-144.239 188.772 -1314
-133.319 217.132 -1308
-123.976 217.201 -1293
-115.719 218.915 -1288
-139.143 218.024 -1313
-139.069 220.544 -1312
-136.101 220.008 -1309
-64.0156 219.01 -1291
-89.3871 215.206 -1283
-114.508 158.761 -1310
-122.593 159.061 -1312
6.239 64.3737 -963
-26.9472 61.1801 -1156
33.4262 46.3608 -693
0 0 0
70.1106 62.2782 -699
-32.5301 70.2052 -1192
84.3872 56.921 -701
-30.1408 74.8861 -1191
71.9585 47.6931 -733
-53.6664 84.4887 -1302
70.8139 54.1201 -721
-61.7083 77.0757 -1308
-6.7482 -377.809 -1203
-21.4471 -361.533 -1201
-33.5942 -670.651 -1210
-25.1705 -621.111 -1199
25.2623 -1045.98 -1282
18.5456 -959.83 -1269
72.9177 -1173.14 -1344
52.8894 -1045.31 -1286
-127.434 -1165.43 -1355
-130.528 -1156.66 -1408
