ply
format ascii 1.0
comment Created by Open3D
element vertex 33
property double x
property double y
property double z
end_header
-61.8423 225.551 -1491
-78.993 255.943 -1473
-81.5083 254.572 -1465
-87.0019 256.38 -1458
-81.5448 251.747 -1466
-89.8924 250.433 -1458
-95.2547 252.069 -1450
-131.794 240.993 -1435
-143.829 236.068 -1440
-76.0895 188.138 -1481
-78.6379 190.108 -1473
-155.655 78.5476 -1284
-172.876 84.6278 -1258
-121.772 9.47093 -838
-143.965 13.8876 -800
-126.42 -12.25 -835
0 0 0
-208.727 -44.4349 -1360
0 0 0
0 0 0
0 0 0
-124.91 -20.0824 -814
0 0 0
-154.685 -371.602 -1334
-160.876 -392.481 -1336
-131.203 -660.677 -1371
-133.205 -709.459 -1379
-161.689 -996.144 -1454
-182.164 -1061.92 -1464
-194.46 -1051.7 -1455
-221.563 -1152.21 -1500
-35.3472 -1155.52 -1567
-30.7808 -1163.75 -1500
