ply
format ascii 1.0
comment Created by Open3D
element vertex 33
property double x
property double y
property double z
end_header
-186.928 208.727 -1372
-196.577 226.027 -1340
-204.199 225.491 -1336
-214.04 224.502 -1329
-176.167 230.312 -1351
-168.95 234.345 -1359
-160.543 234.056 -1358
0 0 0
0 0 0
-201.08 178.695 -1376
-178.014 186.119 -1392
-332.173 76.914 -1324
-42.4307 82.6311 -1357
-587.806 46.4583 -1320
222.162 41.6009 -1419
-781.838 41.563 -1277
480.506 25.4801 -1430
-828.564 38.5297 -1249
542.851 34.9103 -1442
-827.32 44.1033 -1247
547.833 47.3167 -1455
-811.693 38.6659 -1262
526.478 37.5905 -1433
-248.819 -375.07 -1286
-89.8897 -365.818 -1307
-247.971 -723.603 -1335
-91.0545 -726.586 -1367
-204.745 -1126.76 -1354
-104.06 -1148.47 -1359
-189.428 -1171.5 -1307
-120.873 -1179.57 -1294
-204.394 -1023.74 -1315
-98.6507 -1026.59 -1321
