ply
format ascii 1.0
comment Created by Open3D
element vertex 33
property double x
property double y
property double z
end_header
0 0 0
0 0 0
0 0 0
0 0 0
0 0 0
0 0 0
0 0 0
0 0 0
-370.969 459.093 -2180
0 0 0
0 0 0
-585.532 221.611 -2018
-222.637 242.954 -2071
-853.51 169.428 -2032
26.327 204.54 -2113
-1122.75 182.753 -2065
266.863 198.841 -2179
0 0 0
0 0 0
-1198.89 193.146 -2054
342.445 195.358 -2182
-1173.15 197.153 -2057
315.882 203.907 -2182
-451.803 -328.801 -1986
-271.597 -314.656 -2023
-445.327 -769.658 -2037
-283.995 -752.958 -2075
-399.419 -1189.6 -1994
-283.75 -1190.72 -2047
0 0 0
0 0 0
-404.396 -1191.15 -1996
-304.866 -1207.21 -2064
