ply
format ascii 1.0
comment Created by Open3D
element vertex 33
property double x
property double y
property double z
end_header
-459.546 415.819 -1918
-440.391 451.78 -1918
-436.538 451.872 -1919
-428.832 452.06 -1921
-448.796 452.307 -1919
-448.796 452.307 -1919
-448.796 452.307 -1919
-382.303 445.099 -1933
-409.851 448.925 -1928
-434.188 378.882 -1919
-450.097 382.405 -1935
0 0 0
-248.247 187.116 -1371
-256.057 169.307 -1339
-315.476 107.752 -1751
-296.431 169.22 -1249
-369.993 50.1533 -1826
-312.892 172.177 -1230
-370.747 31.8591 -1830
-304.601 171.125 -1187
-366.373 35.4712 -1827
-291.218 166.251 -1154
-374.971 42.9593 -1832
-309.76 -237.072 -1860
-349.86 -240.072 -1849
-309.207 -629.346 -1868
-359.325 -617.211 -1863
-309.27 -1052.19 -1882
-339.168 -1021.9 -1896
-289.597 -1168.29 -1916
-276.086 -1109.88 -1898
-388.666 -1178.93 -1878
-436.626 -1158.41 -1935
