ply
format ascii 1.0
comment Created by Open3D
element vertex 33
property double x
property double y
property double z
end_header
-258.886 413.628 -1914
-249.535 448.766 -1928
-242.247 449.773 -1933
-232.386 453.5 -1950
-274.607 451.366 -1937
-282.886 452.011 -1939
-291.191 452.661 -1941
-227.171 435.266 -1942
-306.514 428.313 -1940
-242.035 382.75 -1941
-269.679 383.037 -1940
-92.9071 239.605 -2049
-437.404 239.915 -1986
154.353 198.557 -2136
-723.693 210.431 -2045
388.852 211.531 -2117
-974.784 237.139 -1984
471.486 200.108 -2075
-1029.53 213.058 -1937
0 0 0
-1036.51 216.963 -1931
0 0 0
0 0 0
-206.822 -289.098 -1994
-325.591 -292.463 -1951
-231.351 -694.393 -2044
-344.068 -695.694 -1997
0 0 0
-358.926 -1135.56 -2048
0 0 0
-360.045 -1160.66 -2015
-195.05 -1209.74 -2011
0 0 0
