ply
format ascii 1.0
comment Created by Open3D
element vertex 33
property double x
property double y
property double z
end_header
-121.863 415.749 -2186
-134.849 454.623 -2177
-134.849 454.623 -2177
-138.775 457.492 -2169
-142.988 452.613 -2167
-147.233 452.237 -2165
-155.99 452.323 -2165
-177.068 441.735 -2156
-203.577 442.669 -2159
-132.083 384.785 -2214
-139.142 379.809 -2185
-171.738 177.606 -1540
-210.337 203.627 -1595
0 0 0
-189.027 194.949 -1553
-126.771 180.334 -1417
-110.026 185.382 -1350
-186.544 201.806 -1957
-105.029 191.519 -1355
-181.731 208.581 -1947
-112.743 203.793 -1382
-179.119 218.775 -2005
-111.579 198.95 -1368
-216.868 -275.721 -2014
-250.209 -276.889 -2020
-207.537 -656.337 -2026
-227.312 -661.511 -2013
-220.273 -1068.53 -2045
-230.471 -1114.87 -2042
-248.12 -1136.36 -2031
-263.015 -1192.3 -2023
-104.962 -1164.57 -2120
-107.301 -1172.01 -2064
