ply
format ascii 1.0
comment Created by Open3D
element vertex 66
property double x
property double y
property double z
end_header
-156.289 407.21 -1394
-140.637 443.721 -1435
-129.089 441.585 -1439
-117.178 438.241 -1439
-181.136 441.905 -1426
-195.49 438.263 -1423
-207.573 436.104 -1425
-96.8495 413.04 -1450
-233.966 406.739 -1428
-129.424 366.313 -1423
-180.455 364.211 -1411
34.3922 206.573 -1530
-357.266 223.451 -1490
287.705 163.237 -1602
-610.534 161.269 -1519
536.367 165.126 -1612
-859.091 121.723 -1466
612.868 164.236 -1584
-946.548 99.8016 -1444
623.221 170.968 -1582
-942.931 96.5097 -1445
591.49 163.812 -1585
-906.158 95.3784 -1439
-55.5871 -316.284 -1395
-247.11 -316.313 -1381
-76.9396 -678.903 -1464
-269.486 -675.067 -1448
-121.827 -1084.28 -1586
-233.762 -1087.83 -1576
-124.806 -1111.15 -1563
-208.706 -1121.51 -1565
-94.354 -1201.75 -1405
-283.514 -1207.95 -1426
-386.565 -2.0577 -3115.79
-386.565 -2.0577 -3115.79
-386.565 -2.0577 -3115.79
-386.565 -2.0577 -3115.79
-386.565 -2.0577 -3115.79
-386.565 -2.0577 -3115.79
-386.565 -2.0577 -3115.79
-386.565 -2.0577 -3115.79
-386.565 -2.0577 -3115.79
-136.424 368.565 -1597.79
-174.996 368.452 -1580.79
33.6788 207.385 -1671.79
-339.754 208.045 -1626.79
306.518 162.499 -1652.79
-600.593 159.096 -1526.79
587.811 160.974 -1671.79
-859.709 128.316 -1463.79
648.645 169.46 -1678.79
-386.565 -2.0577 -3115.79
659.315 181.291 -1664.79
-919.142 117.91 -1479.79
623.085 171.808 -1677.79
-889.935 118.167 -1469.79
-91.4902 -312.981 -1725.79
-266.794 -295.651 -1692.79
-59.2802 -684.405 -1651.79
-243.916 -642.306 -1638.79
-117.47 -1118.09 -1617.79
-214.729 -1117.12 -1596.79
-115.07 -1184.65 -1632.79
-214.435 -1182.6 -1625.79
-122.617 -1069.39 -1606.79
-249.957 -1148.35 -1496.79
