ply
format ascii 1.0
comment Created by Open3D
element vertex 33
property double x
property double y
property double z
end_header
-146.133 219.347 -2050
-131.011 250.318 -2068
-123.032 250.881 -2073
-115.016 251.448 -2078
-163.683 249.784 -2062
-180.648 246.333 -2067
-189.411 246.988 -2072
-98.8619 235.895 -2089
-209.889 226.043 -2070
-126.111 187.271 -2060
-165.592 185.54 -2039
5.40705 45.6823 -2161
-311.861 66.2073 -2116
220.473 -5.88148 -2204
-561.223 58.1747 -2097
416.148 -19.5747 -2248
-757.045 59.1649 -2093
486.906 -37.8522 -2253
-819.024 46.0033 -2069
492.453 -33.3822 -2257
-818.259 50.2718 -2067
467.564 -28.7033 -2250
-800.822 54.5701 -2071
-70.0151 -369.415 -2086
-248.596 -367.52 -2066
-98.0084 -712.474 -2091
-247.744 -713.021 -2112
-109.778 -1083.45 -2153
-247.327 -1112.76 -2171
-126.228 -1139.07 -2186
-237.038 -1141.21 -2152
-116.468 -1191.38 -2059
-228.326 -1198.25 -2036
