ply
format ascii 1.0
comment Created by Open3D
element vertex 33
property double x
property double y
property double z
end_header
0 0 0
0 0 0
0 0 0
0 0 0
0 0 0
0 0 0
0 0 0
0 0 0
0 0 0
-169.572 189.999 -2088
0 0 0
-315.393 61.8426 -2111
-20.2651 75.4956 -2155
-570.843 15.6153 -2100
208.287 38.1497 -2215
-765.37 2.79438 -2040
429.607 16.3256 -2222
-819.635 -9.84481 -2012
498.218 2.95101 -2220
-816.37 -1.42348 -2004
498.227 16.3813 -2220
-797.911 2.77572 -2016
0 0 0
-250.121 -399.074 -2075
-91.4148 -392.408 -2094
-252.824 -776.326 -2103
-109.741 -786.488 -2139
-219.663 -1188.43 -2097
-114.35 -1189.27 -2114
0 0 0
0 0 0
-223.443 -1202.41 -2082
-123.527 -1197.85 -2109
