ply
format ascii 1.0
comment Created by Open3D
element vertex 33
property double x
property double y
property double z
end_header
-80.4979 221.854 -2157
-97.2146 250.714 -2144
-97.2146 250.714 -2144
-101.354 250.379 -2141
-97.2146 250.714 -2144
-105.68 250.512 -2142
-109.959 250.529 -2142
-139.31 241.029 -2133
-147.847 241.072 -2133
-93.0888 186.902 -2152
-93.0133 191.028 -2150
0 0 0
0 0 0
-199.6 -25.962 -2058
-170.77 29.584 -1538
-216.874 -54.8468 -2065
0 0 0
-229.593 -79.6457 -2067
0 0 0
-221.365 -67.2951 -2068
0 0 0
-212.732 -54.839 -2065
0 0 0
-158.261 -368.972 -2033
-203.37 -369.282 -2032
-161.125 -699.992 -2012
-207.064 -704.785 -2010
-179.936 -1031.55 -1996
-211.122 -1058.15 -1996
-219.874 -1157.34 -2111
-246.602 -1180.62 -2091
-78.7126 -1177 -2164
-104.94 -1187.4 -2111
