ply
format ascii 1.0
comment Created by Open3D
element vertex 33
property double x
property double y
property double z
end_header
-273.754 222.612 -2112
-259.728 250.91 -2100
-250.952 246.348 -2098
-246.712 246.309 -2098
-259.728 250.91 -2100
-255.722 251.107 -2102
-251.232 250.827 -2100
-207.942 232.628 -2092
-212.487 237.215 -2095
-259.765 183.643 -2105
-263.891 183.587 -2104
0 0 0
0 0 0
-101.053 5.27975 -1603
-128.248 2.23798 -1710
-89.8811 2.0596 -1575
0 0 0
0 0 0
-67.4839 14.458 -1564
-83.2954 5.16573 -1569
-64.3366 20.6512 -1563
-89.8811 2.0596 -1575
-77.2049 17.6548 -1572
-168.185 -384.069 -2002
-179.527 -382.479 -1993
-193.233 -720.589 -1992
-185.008 -720.759 -1993
-175.97 -1068.13 -1988
-176.046 -1051.3 -1995
-148.891 -1197.37 -2068
-149.58 -1175.5 -2088
-309.982 -1186.48 -2076
-318.611 -1178.59 -2111
