ply
format ascii 1.0
comment Created by Open3D
element vertex 66
property double x
property double y
property double z
end_header
-107.547 385.987 -1324
-91.526 411.313 -1323
-80.8894 412.408 -1327
-70.7254 416.628 -1341
-134.619 407.657 -1318
-147.075 402.006 -1308
-161.799 402.53 -1318
-60.6283 400.558 -1366
-182.846 379.788 -1337
0 0 0
-126.454 338.063 -1302
62.8748 193.865 -1414
-288.052 186.844 -1385
293.87 177.142 -1421
-551.198 197.327 -1367
544.823 210.482 -1446
-807.858 222.205 -1357
603.574 207.918 -1434
-879.381 218.221 -1320
617.315 211.503 -1434
-889.73 218.549 -1318
599.302 208.539 -1440
-863.212 215.68 -1331
-24.3369 -279.374 -1385
-192.067 -280.51 -1340
-26.9661 -682.933 -1451
-209.966 -691.187 -1421
-49.0789 -1126.45 -1547
-186.1 -1098.72 -1489
-68.6229 -1130.95 -1488
-169.722 -1132.68 -1485
-9.10583 -1186.56 -1372
-211.066 -1189.67 -1348
-263.688 18.3624 -3064.31
-263.688 18.3624 -3064.31
-142.147 406.233 -1518.31
-263.688 18.3624 -3064.31
-263.688 18.3624 -3064.31
-263.688 18.3624 -3064.31
-263.688 18.3624 -3064.31
-263.688 18.3624 -3064.31
-191.281 403.499 -1416.31
-144.354 354.974 -1453.31
-171.756 355.193 -1418.31
72.1879 212.332 -1510.31
-304.651 196.416 -1514.31
314.711 167.861 -1449.31
-539.042 170.794 -1437.31
593.217 175.033 -1402.31
-810.548 189.909 -1387.31
664.6 172.573 -1413.31
-887.67 177.253 -1391.31
670.94 180.274 -1410.31
-883.84 191.075 -1392.31
638.641 175.444 -1413.31
-855.677 193.426 -1397.31
-33.8461 -264.123 -1584.31
-210.457 -258.664 -1569.31
-37.8311 -669.292 -1518.31
-195.76 -647.516 -1507.31
-90.1551 -1107.72 -1530.31
-170.93 -1103.47 -1498.31
-104.557 -1177.73 -1566.31
-181.821 -1160.03 -1527.31
-15.7031 -1156.8 -1469.31
-178.289 -1148.29 -1523.31
