ply
format ascii 1.0
comment Created by Open3D
element vertex 66
property double x
property double y
property double z
end_header
-133.877 367.042 -1347
-120.465 406.577 -1344
-106.109 415.062 -1373
-95.8888 416.712 -1389
-157.843 410.668 -1355
-169.262 408.591 -1357
-180.929 403.535 -1339
-90.6811 401.775 -1400
-208.442 394.679 -1377
-114.166 338.044 -1382
-156.636 335.769 -1358
27.1146 244.858 -1462
-331.154 228.957 -1430
285.733 274.737 -1493
-585.386 248.053 -1382
566.94 293.187 -1544
-863.283 271.602 -1355
610.984 286.137 -1530
-905.839 279.964 -1311
623.161 292.046 -1542
-915.601 286.225 -1307
596.049 277.241 -1520
-894.924 274.281 -1319
-35.485 -265.512 -1387
-210.188 -281.161 -1369
-36.7896 -655.964 -1485
-200.558 -643.949 -1410
-49.6713 -1078.55 -1594
-167.222 -1077.89 -1567
-66.8171 -1095.76 -1557
-142.482 -1133.85 -1601
-2.51767 -1169.85 -1440
-192.972 -1174.27 -1413
-125.582 394.678 -1515.88
-109.697 426.665 -1518.88
-273.492 5.44934 -3039.88
-273.492 5.44934 -3039.88
-273.492 5.44934 -3039.88
-273.492 5.44934 -3039.88
-273.492 5.44934 -3039.88
-273.492 5.44934 -3039.88
-174.771 418.546 -1458.88
-105.394 370.267 -1497.88
-139.351 368.363 -1489.88
55.74 251.863 -1536.88
-289.341 233.297 -1532.88
300.666 270.156 -1446.88
-562.63 250.458 -1436.88
562.62 309.189 -1407.88
-871.152 287.249 -1408.88
649.477 313.319 -1412.88
-937.64 293.911 -1383.88
-273.492 5.44934 -3039.88
-962.159 320.995 -1334.88
624.215 307.275 -1418.88
-927.017 305.916 -1372.88
-62.498 -279.73 -1606.88
-224.839 -271.594 -1592.88
-91.24 -692.497 -1532.88
-229.072 -690.664 -1513.88
-128.699 -1060.5 -1528.88
-224.784 -1098.28 -1497.88
-138.468 -1131.79 -1552.88
-207.405 -1163.01 -1540.88
-136.752 -1068.59 -1496.88
-273.492 5.44934 -3039.88
