ply
format ascii 1.0
comment Created by Open3D
element vertex 66
property double x
property double y
property double z
end_header
-156.62 422.968 -1577
-145.033 459.657 -1624
-131.575 455.669 -1623
-118.817 454.22 -1631
-180.219 456.392 -1610
-193.512 456.686 -1610
-207.955 452.853 -1620
-104.586 423.847 -1622
-240.753 422.417 -1620
-128.826 378.088 -1601
-180.234 380.355 -1593
27.7905 220.81 -1686
-369.334 228.929 -1643
285.156 236.762 -1765
-633.205 215.883 -1648
523.548 237.892 -1794
-875.73 217.062 -1582
619.67 239.485 -1786
-957.543 200.188 -1556
619.257 241.582 -1773
-961.275 200.242 -1555
581.549 236.041 -1767
-921.542 201.858 -1553
-65.6575 -292.267 -1577
-258.202 -294.328 -1540
-85.3286 -680.503 -1645
-277.091 -662.019 -1604
-140.31 -1112.15 -1753
-238.061 -1110.26 -1743
-146.7 -1132.27 -1722
-221.928 -1147.1 -1724
-86.7909 -1203.94 -1557
0 0 0
-448.196 2.27982 -3445.55
-448.196 2.27982 -3445.55
-448.196 2.27982 -3445.55
-448.196 2.27982 -3445.55
-448.196 2.27982 -3445.55
-448.196 2.27982 -3445.55
-448.196 2.27982 -3445.55
-448.196 2.27982 -3445.55
-448.196 2.27982 -3445.55
-138.195 371.292 -1729.55
-174.24 371.005 -1709.55
27.4981 221.039 -1821.55
-350.022 219.684 -1734.55
303.513 195.275 -1817.55
-606.194 179.496 -1656.55
569.784 190.506 -1855.55
-856.066 146.554 -1597.55
635.464 184.183 -1874.55
-929.288 132.246 -1599.55
647.104 199.348 -1872.55
-922.265 136.131 -1596.55
612.624 194.071 -1874.55
-892.299 138.753 -1607.55
-91.4919 -307.538 -1853.55
-278.993 -299.623 -1821.55
-81.9159 -684.152 -1802.55
-259.66 -651.3 -1767.55
-146.421 -1125.53 -1766.55
-231.16 -1108.06 -1754.55
-143.896 -1200.65 -1782.55
-238.59 -1170.49 -1779.55
-148.161 -1103.79 -1769.55
-265.473 -1116.9 -1707.55
