ply
format ascii 1.0
comment Created by Open3D
element vertex 33
property double x
property double y
property double z
end_header
-93.3631 184.016 -1629
-106.093 212.715 -1622
-118.072 210.958 -1608
-128.309 211.942 -1615
0 0 0
0 0 0
0 0 0
0 0 0
-53.5478 209.724 -1706
-107.461 162.954 -1647
-83.3199 167.204 -1691
-260.578 66.6569 -1612
33.2488 79.8777 -1632
-503.967 42.596 -1645
265.564 59.9054 -1696
-712.488 57.681 -1644
483.214 51.2194 -1716
-771.827 57.7171 -1627
548.333 54.9357 -1710
-781.78 61.4191 -1631
548.333 54.9357 -1710
-757.026 54.4341 -1638
523.727 51.0808 -1703
-164.62 -389.153 -1566
-15.0446 -385.156 -1569
-161.439 -753.973 -1622
-9.47104 -758.688 -1629
-138.106 -1162.62 -1635
-36.6163 -1174.42 -1634
-128.842 -1206.43 -1585
-52.8311 -1187.66 -1524
-116.709 -1124.93 -1675
-6.7636 -1173.94 -1713
