ply
format ascii 1.0
comment Created by Open3D
element vertex 33
property double x
property double y
property double z
end_header
-25.8933 206.347 -1484
-5.22173 242.186 -1501
6.78737 242.026 -1500
15.9046 240.733 -1511
-44.358 239.679 -1504
-56.5944 240.519 -1509
-68.7669 237.817 -1511
34.5599 222.92 -1536
-84.2187 223.578 -1518
-2.22015 179.252 -1508
-47.098 178.479 -1501
115.277 65.6575 -1599
-188.415 84.0583 -1581
338.359 34.5823 -1612
-403.018 60.2698 -1594
555.251 48.9446 -1620
-634.709 55.7162 -1603
625.783 55.9574 -1613
-703.384 59.211 -1588
633.983 56.0886 -1615
-709.612 55.8207 -1585
600.708 49.1123 -1615
-675.999 45.5362 -1586
52.8405 -389.7 -1509
-121.869 -396.549 -1508
53.5751 -748.722 -1542
-95.3335 -770.554 -1546
30.2596 -1099.37 -1611
-61.033 -1094.99 -1604
15.5545 -1117.03 -1595
-53.7652 -1117.41 -1595
28.6744 -1183.81 -1457
-40.5917 -1187.34 -1449
