ply
format ascii 1.0
comment Created by Open3D
element vertex 33
property double x
property double y
property double z
end_header
120.809 218.689 -1667
99.9282 249.769 -1650
96.3254 248.992 -1645
89.4736 251.529 -1640
99.9282 249.769 -1650
89.5097 248.348 -1641
82.83 248.01 -1639
39.9163 239.726 -1629
33.4312 233.397 -1631
104.12 185.328 -1670
100.435 187.993 -1664
-33.5777 87.6723 -1440
0 0 0
0 0 0
-32.3558 20.5974 -974
0 0 0
-28.3488 3.42163 -1040
-40.9217 24.9711 -994
0 0 0
-44.1538 31.7957 -1023
-34.3112 7.49754 -1033
-33.8654 14.6173 -962
-26.2593 5.47904 -1039
-32.917 -387.173 -1512
-20.6646 -408.808 -1509
-21.798 -673.857 -1534
-8.9953 -737.022 -1542
-23.8867 -1015.1 -1582
-24.1399 -1050.96 -1588
-47.2372 -1117.36 -1630
-55.1791 -1161.78 -1630
140.272 -1172.99 -1693
144.706 -1180.84 -1639
