ply
format ascii 1.0
comment Created by Open3D
element vertex 33
property double x
property double y
property double z
end_header
-226.342 210.03 -1593
-195.711 239.069 -1552
-189.408 238.988 -1552
-182.955 235.592 -1551
-199.034 242.436 -1553
-195.794 245.41 -1552
-189.732 245.643 -1554
-138.542 224.941 -1546
-141.748 225.114 -1547
-208.321 173.163 -1582
-215.551 173.882 -1588
0 0 0
-43.5501 45.1571 -886
-57.8471 41.2864 -917
-50.0492 36.272 -979
-99.0601 35.0374 -943
-94.5966 44.0969 -936
-114.13 25.2427 -927
-98.9654 38.7559 -942
-119.792 32.1697 -913
-105.001 44.8309 -912
-115.893 32.6109 -926
-107.937 39.1228 -906
-73.2525 -382.883 -1458
-90.7164 -378.66 -1453
-100.052 -707.033 -1477
-103.004 -699.369 -1476
-75.0835 -1054.46 -1511
-74.5476 -1029.79 -1508
-39.0752 -1176.61 -1562
-36.1416 -1177.77 -1604
-243.32 -1185.4 -1582
-236.705 -1170.79 -1597
