ply
format ascii 1.0
comment Created by Open3D
element vertex 66
property double x
property double y
property double z
end_header
-160 373.022 -1621
-148.706 420.887 -1635
-132.412 421.925 -1640
-119.905 424.833 -1652
-185.036 417.04 -1631
-196.336 416.566 -1642
-209.21 415.581 -1637
-107.519 415.414 -1671
-222.703 405.26 -1665
-139.016 345.156 -1651
-178.073 343.399 -1640
32.1026 251.787 -1735
-339.189 227.799 -1717
294.29 295.596 -1727
-581.261 259.83 -1700
569.669 306.315 -1723
-858.933 282.889 -1680
0 0 0
-932.348 291.71 -1638
653.188 326.609 -1736
-939.366 298.874 -1634
627.549 308.392 -1722
-908.922 291.158 -1643
-32.2656 -272.734 -1655
-222.91 -288.302 -1657
-55.433 -700.682 -1806
-235.034 -701.635 -1788
-56.2895 -1070.61 -1869
-202.419 -1059.23 -1851
-76.2494 -1095.79 -1843
-174.884 -1124.08 -1895
-14.3065 -1161.38 -1680
-232.37 -1164.04 -1666
-131.487 408.064 -1772.87
-346.72 21.6089 -3332.87
-346.72 21.6089 -3332.87
-346.72 21.6089 -3332.87
-346.72 21.6089 -3332.87
-346.72 21.6089 -3332.87
-346.72 21.6089 -3332.87
-66.9877 439.614 -1720.87
-346.72 21.6089 -3332.87
-113.837 382.205 -1757.87
-148.962 382.375 -1753.87
31.5313 265.943 -1810.87
-310.882 243.371 -1804.87
295.474 248.164 -1739.87
-568.035 244.151 -1718.87
564.174 243.008 -1725.87
-844.385 272.171 -1679.87
635.955 233.409 -1743.87
-932.152 283.224 -1670.87
655.89 243.348 -1726.87
-945.281 292.956 -1655.87
618.852 232.774 -1742.87
-911.772 281.802 -1675.87
-58.3717 -274.333 -1884.87
-226.2 -260.368 -1862.87
-68.5157 -675.334 -1796.87
-232.229 -664.864 -1772.87
-96.7037 -1069.19 -1774.87
-249.576 -1091.15 -1745.87
-119.78 -1151.33 -1792.87
-233.742 -1139.84 -1812.87
-96.6717 -983.231 -1765.87
-346.72 21.6089 -3332.87
