ply
format ascii 1.0
comment Created by Open3D
element vertex 33
property double x
property double y
property double z
end_header
67.3594 375.822 -1566
48.4096 407.989 -1563
42.2927 413.381 -1571
35.7063 410.985 -1562
42.1699 409.001 -1567
35.6478 407.146 -1560
25.7975 401.632 -1539
-14.6734 389.025 -1528
-30.1891 386.339 -1530
51.0336 337.772 -1557
44.6251 333.649 -1553
0 0 0
0 0 0
-90.1482 -9.48759 -1430
-44.0351 59.7666 -798
-31.1354 -122.729 -1458
28.9109 51.3359 -843
-22.6458 -150.198 -1470
42.7941 43.4297 -820
-16.843 -141.841 -1475
45.033 48.9797 -831
-16.7931 -135.57 -1471
41.8739 49.1497 -834
-57.0208 -289.785 -1436
-96.966 -296.924 -1426
-53.1243 -611.831 -1423
-102.022 -647.984 -1426
-97.031 -963.447 -1441
-126.358 -1058.97 -1445
-139.834 -1042.84 -1453
-168.455 -1179.54 -1489
0 0 0
32.9336 -1173.86 -1513
