ply
format ascii 1.0
comment Created by Open3D
element vertex 33
property double x
property double y
property double z
end_header
-263.546 351.324 -1545
-241.735 387.534 -1522
-233.95 388.045 -1512
-226.923 386.599 -1507
-241.735 387.534 -1522
-233.95 388.045 -1512
-226.923 386.599 -1507
-175.922 379.718 -1497
-173.309 380.672 -1501
-238.885 310.151 -1536
-238.796 313.146 -1535
-83.8493 188.601 -1280
-88.8798 163.638 -1210
-20.3118 68.9629 -743
-37.0295 64.9646 -784
-91.822 75.4886 -810
-90.5127 74.1238 -813
0 0 0
-99.9402 82.2678 -796
-105.648 73.8411 -791
-101.182 83.5704 -793
-101.356 74.1752 -795
-100.052 80.7654 -797
-53.2163 -290.562 -1411
-99.2335 -289.408 -1418
-38.0645 -631.389 -1414
-87.6905 -605.34 -1399
-5.92207 -1075.86 -1478
-44.4538 -962.018 -1428
40.2043 -1178.6 -1519
0.902279 -1071.26 -1478
-169.476 -1179.72 -1458
0 0 0
