ply
format ascii 1.0
comment Created by Open3D
element vertex 33
property double x
property double y
property double z
end_header
-95.5307 337.603 -1540
-113.076 362.039 -1520
0 0 0
0 0 0
-82.0085 360.769 -1516
-71.1468 368.045 -1547
-61.1704 367.63 -1532
-155.197 351.43 -1541
-47.0796 356.578 -1583
-117.171 314.569 -1584
-81.3085 314.738 -1570
-273.402 169.527 -1513
74.1008 173.004 -1532
-526.955 100.029 -1531
328.429 127.336 -1593
-790.882 67.5782 -1515
576.366 92.5208 -1617
-861.163 48.4121 -1507
636.977 93.0668 -1612
-868.678 51.966 -1513
635.74 89.5281 -1609
-832.733 51.3856 -1506
614.241 82.6306 -1611
-168.945 -305.221 -1447
-14.0421 -303.193 -1473
-171.732 -684.787 -1503
-15.0741 -681.824 -1503
-157.146 -1086.63 -1481
-40.0521 -1069.11 -1481
-150.281 -1175.4 -1485
-47.7568 -1151.76 -1478
-197.967 -1093.03 -1506
-92.6114 -1088.56 -1500
