ply
format ascii 1.0
comment Created by Open3D
element vertex 33
property double x
property double y
property double z
end_header
-22.7728 363.809 -1453
-8.23952 399.06 -1481
9.85423 400.678 -1487
22.0208 399.139 -1493
-47.1659 400.451 -1474
-59.2233 397.925 -1476
-74.5731 396.775 -1483
43.4957 380.084 -1505
-93.1573 377.694 -1494
0.783261 331.307 -1485
-46.7222 325.451 -1472
149.063 172.347 -1579
-209.72 190.562 -1567
407.11 123.042 -1656
-457.222 138.551 -1590
672.414 97.2172 -1682
-725.412 114.211 -1601
744.119 100.447 -1656
-806.241 115.583 -1597
748.106 100.511 -1656
-798.758 123.662 -1566
720.575 90.0564 -1666
-771.079 116.811 -1574
50.7254 -319.148 -1550
-122.98 -316.629 -1535
53.1523 -667.677 -1553
-136.874 -689.599 -1549
37.8212 -1065.86 -1639
-149.815 -1067.48 -1630
8.64108 -1142.03 -1681
-123.867 -1136.11 -1662
94.8551 -1181.82 -1541
-180.582 -1189.69 -1501
