ply
format ascii 1.0
comment Created by Open3D
element vertex 30
property double x
property double y
property double z
end_header
0 0 0
0 0 0
0 0 0
0 0 0
0 0 0
0 0 0
0 0 0
0 0 0
0 0 0
-583.219 -11.6342 -1208
-552.066 -15.6061 -1214
-756.181 -160.649 -1191
-384.305 -178.42 -1188
-1023.21 -239.12 -1221
-127.594 -257.794 -1220
111.069 -308.334 -1274
168.101 -277.231 -1237
55.7182 -482.491 -1941
55.538 -458.99 -1934
0 0 0
-637.348 -697.961 -1137
-463.504 -696.729 -1137
-646.269 -1095.75 -1205
-503.341 -1093.15 -1199
-614.177 -1521.83 -1207
-518.556 -1503.93 -1205
-600.379 -1564 -1185
-519.757 -1545.47 -1188
-618.701 -1521.25 -1198
-529.375 -1493.46 -1204
