ply
format ascii 1.0
comment Created by Open3D
element vertex 33
property double x
property double y
property double z
end_header
0 0 0
-400.251 54.3133 -1200
-400.251 54.3133 -1200
-401.022 55.8203 -1191
-402.577 53.8458 -1190
-407.707 53.5092 -1183
-413.79 55.2118 -1179
-433.948 43.7079 -1178
-454.985 41.4716 -1170
-223.285 -12.2617 -689
-232.407 -11.3205 -700
-362.213 -105.227 -896
-377.539 -78.3306 -902
-421.538 -317.092 -1048
-125.279 18.934 -582
-556.276 -896.129 -2127
-6.45334 80.7924 -424
-545.692 -967.117 -2129
19.1838 97.6363 -398
-521.812 -946.568 -2127
20.794 101.194 -392
-528.59 -926.064 -2126
15.4988 97.5742 -403
-402.933 -635.216 -1065
-446.292 -643.984 -1062
-391.883 -1037.02 -1141
-452.582 -1103.79 -1165
0 0 0
-485.905 -1499.11 -1198
-485.079 -1481.86 -1209
-523.312 -1550.45 -1196
-335.671 -1632.8 -1321
-314.285 -1561.27 -1169
