ply
format ascii 1.0
comment Created by Open3D
element vertex 33
property double x
property double y
property double z
end_header
0 0 0
-621.17 88.388 -1131
-615.388 88.3352 -1130
-609.081 86.4048 -1128
-622.347 91.9041 -1130
-618.86 91.9217 -1130
-614.282 91.7765 -1128
-567.222 62.7498 -1121
-571.382 71.5641 -1119
0 0 0
0 0 0
-378.387 -61.1484 -779
-381.038 -64.3014 -787
-321.956 -31.6461 -567
-349.737 -50.8908 -592
-258.364 -1.27743 -398
-276.631 0.61404 -399
-272.864 3.6937 -391
-270.365 11.3935 -380
-239.17 13.6788 -360
-270.498 12.0267 -381
-249.492 8.9989 -379
-271.471 7.26751 -384
-456.189 -575.732 -961
-470.688 -571.045 -966
-463.549 -1030.31 -1062
-417.929 -871.418 -940
-460.603 -1463.1 -1104
-468.795 -1318.19 -1096
-439.63 -1513.79 -1108
-443.907 -1405.94 -1133
-612.968 -1523.28 -1104
-703.492 -1623.74 -1296
