ply
format ascii 1.0
comment Created by Open3D
element vertex 33
property double x
property double y
property double z
end_header
-520.355 -18.5724 -1281
-505.033 12.3933 -1283
-493.682 10.3492 -1285
-486.191 6.24371 -1292
-535.686 16.263 -1265
-556.765 16.4032 -1277
-575.878 14.4171 -1284
-483.953 -16.8902 -1308
-613.801 -10.4835 -1305
-505.777 -65.987 -1280
-549.67 -59.2066 -1270
-411.257 -271.454 -1389
-792.713 -258.899 -1402
-158.556 -363.619 -1410
-1050.82 -319.507 -1428
91.0464 -424.442 -1416
-1276.63 -338.496 -1408
149.732 -430.797 -1408
-1341.42 -350.184 -1394
167.344 -428.195 -1422
-1350.56 -349.251 -1399
139.059 -428.48 -1415
-1327.43 -347.855 -1402
-467.065 -762.614 -1315
-634.118 -756.118 -1313
-505.429 -1174.34 -1394
-632.58 -1182.21 -1402
-550.902 -1612.74 -1419
-596.435 -1626.16 -1418
-559.719 -1648.2 -1420
-590.837 -1658.22 -1416
-475.746 -1615.95 -1291
-534.848 -1619.08 -1271
