ply
format ascii 1.0
comment Created by Open3D
element vertex 33
property double x
property double y
property double z
end_header
-170.589 218.271 -1714
-155.838 253.022 -1739
-149.007 253.253 -1741
-138.978 254.041 -1747
-189.574 248.104 -1727
-200.171 248.362 -1728
-211.649 249.633 -1736
-122.102 241.26 -1758
-229.095 235.723 -1736
-148.91 193.872 -1745
-192.199 191.871 -1724
-13.58 78.6475 -1830
-339.627 91.9593 -1784
200.417 65.2055 -1854
-567.986 78.4684 -1765
388.245 72.234 -1925
-770.648 80.7209 -1768
464.897 61.0249 -1927
-826.044 72.8943 -1741
473.276 65.002 -1928
-828.939 76.5268 -1738
448.763 68.7359 -1927
-812.247 77.0517 -1757
-80.074 -332.13 -1753
-261.007 -339.846 -1725
-89.381 -683.921 -1731
-257.074 -705.141 -1753
-112.21 -1098.27 -1748
-252.693 -1101.78 -1736
-131.65 -1144.4 -1726
-248.106 -1125.99 -1720
-127.346 -1210.81 -1689
-241.131 -1207.86 -1655
