ply
format ascii 1.0
comment Created by Open3D
element vertex 33
property double x
property double y
property double z
end_header
-281.657 235.392 -1755
-260.687 263.868 -1756
-257.539 264.266 -1759
-249.648 263.411 -1754
-260.687 263.868 -1756
-261.038 267.762 -1758
-257.3 267.556 -1757
-211.893 239.458 -1739
-219.279 246.893 -1741
-267.915 200.368 -1762
-274.637 200.111 -1759
0 0 0
-161.139 60.0969 -1330
-91.6293 37.4583 -1131
-214.361 -128.91 -1683
-76.7786 39.018 -1112
-236.942 -262.698 -1688
-67.0505 31.9662 -1098
-238.905 -301.646 -1673
-74.1527 34.406 -1106
-238.905 -301.646 -1673
-78.9216 36.7772 -1111
-236.044 -285.389 -1679
-180.493 -350.356 -1662
-226.883 -352.731 -1653
-185.728 -729.995 -1664
-227.722 -711.121 -1635
-151.382 -1159.12 -1665
-176.293 -1136.36 -1652
-131.892 -1197.02 -1641
-151.712 -1203.64 -1649
-225.738 -1207.56 -1546
-256.265 -1195.23 -1560
