ply
format ascii 1.0
comment Created by Open3D
element vertex 33
property double x
property double y
property double z
end_header
-138.424 232.132 -1742
-149.208 257.085 -1743
-160.655 258.653 -1753
-167.211 254.428 -1748
-123.675 254.83 -1729
0 0 0
0 0 0
-181.906 241.329 -1755
0 0 0
-150.881 210.556 -1767
-126.004 210.281 -1766
-297.941 90.1918 -1754
4.48989 94.8755 -1793
-541.343 85.5121 -1766
225.318 69.7463 -1875
-729.063 88.2218 -1700
444.298 60.3447 -1908
-782.773 69.7015 -1667
518.442 48.8699 -1899
-787.474 80.4552 -1668
518.254 64.288 -1898
-768.662 84.2787 -1680
487.679 67.6536 -1889
-227.466 -370.024 -1735
-69.428 -363.389 -1747
-230.707 -732.834 -1743
-72.8157 -720.441 -1762
-250.293 -1166 -1758
-50.2856 -1169.72 -1744
-229.576 -1216.57 -1690
-60.6906 -1223.62 -1666
-260.815 -1185.53 -1771
4.94992 -1202.72 -1710
