ply
format ascii 1.0
comment Created by Open3D
element vertex 33
property double x
property double y
property double z
end_header
-6.20753 252.21 -1788
-20.2404 280.883 -1763
-23.6869 279.932 -1757
-23.6869 279.932 -1757
-23.6869 279.932 -1757
-30.7184 279.944 -1757
-34.2151 279.792 -1756
-58.7739 265.585 -1756
-72.8603 262.224 -1757
-13.1559 216.909 -1765
-16.6466 216.543 -1762
0 0 0
-92.3281 68.3732 -1085
-71.9782 31.9715 -1668
-91.6496 66.0775 -1159
-78.369 21.9763 -1663
-79.461 81.484 -1117
-85.4376 2.18594 -1672
-80.9455 76.3416 -1107
-81.8204 15.4038 -1666
-79.461 81.484 -1117
-75.2902 25.3516 -1668
-77.7221 84.2318 -1124
-80.2992 -332.561 -1682
-146.592 -332.853 -1663
-103.936 -675.551 -1670
-147.666 -666.068 -1607
-84.2065 -1060.2 -1651
-131.803 -1041.4 -1591
-105.854 -1098.68 -1622
-154.279 -1087.55 -1582
0 0 0
-47.5914 -1196.77 -1609
