ply
format ascii 1.0
comment Created by Open3D
element vertex 33
property double x
property double y
property double z
end_header
-88.6691 353.73 -1423
0 0 0
-107.593 375.262 -1401
0 0 0
-68.7071 380.963 -1424
-59.3385 376.613 -1408
-47.7813 375.732 -1405
-134.389 364.089 -1414
-28.4528 369.962 -1441
-101.391 322.365 -1403
-62.3066 325.679 -1419
-260.944 219.35 -1360
79.6428 196.25 -1410
-502.765 154.789 -1334
264.443 145.448 -1456
-712.979 140.059 -1291
476.214 146.14 -1491
-786.228 121.174 -1275
566.033 133.918 -1509
-779.47 129.516 -1275
564.53 149.217 -1504
-747.575 132.229 -1286
531.465 150.961 -1497
-194.291 -313.962 -1351
-13.0412 -309.1 -1364
-188.611 -638.864 -1363
-25.651 -640.821 -1383
-203.171 -1079.23 -1364
23.4957 -1090.6 -1365
-207.532 -1168.55 -1358
10.6547 -1168.57 -1340
-197.472 -1014.78 -1373
49.5631 -1075.48 -1380
