ply
format ascii 1.0
comment Created by Open3D
element vertex 33
property double x
property double y
property double z
end_header
43.859 357.693 -1327
33.6378 404.96 -1342
36.4637 405.88 -1345
39.2147 405.896 -1345
17.1426 401.388 -1340
6.18453 398.17 -1339
-7.47296 394.686 -1337
3.44079 388.911 -1337
-51.9178 378.535 -1361
41.2505 323.335 -1336
22.4107 319.076 -1342
-30.4681 99.312 -615
0 0 0
-62.0931 23.2946 -1215
6.15205 90.4345 -724
21.9523 -77.9458 -1338
38.2288 104.666 -701
43.2182 -117.041 -1424
48.113 100.602 -702
49.4935 -112.772 -1442
41.1152 107.683 -702
43.3778 -103.266 -1430
35.1304 106.578 -695
-41.6965 -267.318 -1236
-39.1676 -279.5 -1233
-29.035 -538.874 -1289
-85.4997 -643.323 -1297
0 0 0
-114.385 -1013.19 -1281
-113.566 -912.642 -1317
-145.546 -1124.16 -1311
71.2293 -1147.12 -1609
46.6566 -1203.69 -1475
