ply
format ascii 1.0
comment Created by Open3D
element vertex 33
property double x
property double y
property double z
end_header
-94.7173 377.887 -1470
-75.5343 407.994 -1501
-63.6422 410.064 -1509
-51.4732 407.837 -1513
0 0 0
-127.436 411.03 -1498
-137.193 412.827 -1504
-27.7628 402.301 -1567
-153.9 391.799 -1521
-65.8193 344.04 -1499
-117.103 346.511 -1494
88.1568 215.499 -1619
-268.972 214.7 -1575
306.497 151.639 -1651
-501.185 197.109 -1550
528.346 167.533 -1713
-726.834 243.584 -1544
619.4 158.696 -1713
-825.597 241.109 -1517
624.893 166.319 -1717
-825.806 248.809 -1524
589.488 169.955 -1726
-796.342 243.325 -1544
-2.2788 -321.882 -1533
-187.337 -313.486 -1500
10.9676 -693.466 -1596
-212.839 -726.951 -1593
-9.96832 -1072.14 -1613
-200.606 -1102.24 -1643
-32.7958 -1142.25 -1645
-182.303 -1186.81 -1703
32.0288 -1165.77 -1459
-246.488 -1195.57 -1477
