ply
format ascii 1.0
comment Created by Open3D
element vertex 33
property double x
property double y
property double z
end_header
-262.889 327.016 -1436
-245.027 354.581 -1414
-237.522 354.899 -1404
-229.279 353.907 -1389
-256.401 358.354 -1428
-256.132 360.896 -1426
-256.132 360.896 -1426
-196.368 353.733 -1380
-221.889 351.201 -1379
-243.484 307.138 -1430
-254.784 307.34 -1444
-64.5015 157.37 -874
-133.821 137.316 -914
-91.8877 66.5035 -630
0 0 0
0 0 0
-206.978 93.7096 -1312
0 0 0
-177.192 78.1747 -1235
0 0 0
0 0 0
0 0 0
-93.1645 53.3552 -709
-110.434 -210.599 -1229
-168.616 -213.03 -1254
-91.5981 -562.774 -1286
-183.904 -470.166 -1263
-84.9098 -1080.62 -1334
0 0 0
-58.4565 -1174.27 -1357
-98.3264 -895.848 -1322
-181.77 -1181.39 -1254
-324.922 -1180.97 -1601
