ply
format ascii 1.0
comment Created by Open3D
element vertex 33
property double x
property double y
property double z
end_header
-631.363 -100.829 -1459
-616.963 -70.8478 -1468
-606.68 -73.3913 -1471
-600.39 -74.0736 -1484
-657.418 -70.6346 -1466
-672.517 -73.0967 -1469
-689.517 -78.1374 -1476
0 0 0
-711.178 -102.204 -1483
-609.503 -146.882 -1473
-658.08 -142.73 -1458
-490.98 -332.645 -1551
-881.091 -333.074 -1585
-222.488 -397.973 -1554
-1144.51 -391.761 -1633
39.6254 -429.763 -1558
-1391.75 -381.735 -1627
110.834 -423.768 -1564
-1481.73 -398.664 -1637
126.082 -419.611 -1596
-1472.49 -387.893 -1624
100.824 -421.83 -1566
-1448.61 -388.272 -1625
-542.177 -824.369 -1473
-721.802 -821.941 -1479
0 0 0
-711.682 -1228.05 -1544
-628.536 -1677.54 -1584
-701.276 -1674.63 -1582
-626.717 -1691.53 -1568
-689.978 -1704.5 -1574
-544.657 -1685.87 -1456
-671.42 -1686.18 -1448
