ply
format ascii 1.0
comment Created by Open3D
element vertex 33
property double x
property double y
property double z
end_header
0 0 0
-421.582 24.1641 -1246
-422.197 24.0842 -1242
-424.418 23.9826 -1237
-424.418 23.9826 -1237
-429.6 23.9369 -1235
-435.998 25.8378 -1231
-462.105 9.89557 -1228
-476.814 9.91209 -1231
-239.195 -31.609 -724
-246.82 -31.9909 -733
-393.304 -135.48 -937
-388.321 -101.008 -911
-411.129 -263.148 -1160
-209.096 -39.2757 -693
-542.184 -510.071 -2133
-65.3995 23.7508 -539
-535.365 -510.139 -2133
-33.8172 32.6527 -526
-497.021 -468.347 -2128
-36.4608 40.3671 -515
-492.884 -471.128 -2125
-38.5119 39.9089 -520
-447.312 -659.226 -1109
-490.66 -670.888 -1110
-433.923 -978.3 -1103
-529.876 -1124.56 -1213
-557.334 -1581.33 -1386
-534.415 -1527.01 -1237
-535.727 -1470.72 -1256
-557.342 -1573.43 -1234
-427.221 -1671.9 -1419
-363.941 -1574.04 -1195
