ply
format ascii 1.0
comment Created by Open3D
element vertex 33
property double x
property double y
property double z
end_header
-195.56 16.8358 -420
0 0 0
0 0 0
0 0 0
0 0 0
0 0 0
0 0 0
-172.274 14.9887 -443
0 0 0
-196.885 3.44475 -430
-199.103 3.43515 -429
-348.513 -114.491 -947
-397.151 -120.799 -1014
-298.2 -70.512 -755
0 0 0
-174.63 -3.82675 -474
-185.796 -3.80596 -472
-156.849 10.5805 -437
-176.62 10.2862 -456
-152.358 9.23977 -440
-176.099 13.0781 -451
-168.003 0.750132 -466
-180.153 0.749631 -467
-377.093 -639.68 -1045
-405.838 -610.867 -1030
-374.034 -1088.95 -1136
0 0 0
-378.555 -1479.1 -1170
-385.373 -1386.5 -1177
-347.525 -1552.19 -1177
-362.786 -1429.97 -1176
-538.729 -1564.24 -1182
-583.997 -1613.94 -1314
