ply
format ascii 1.0
comment Created by Open3D
element vertex 33
property double x
property double y
property double z
end_header
0 0 0
0 0 0
0 0 0
0 0 0
0 0 0
0 0 0
0 0 0
0 0 0
0 0 0
0 0 0
0 0 0
-761.482 -167.713 -1188
-408.498 -202.945 -1233
-1009.87 -226.122 -1184
-162.091 -280.267 -1307
110.574 -322.787 -1370
78.8143 -307.154 -1359
52.5448 -504.304 -1941
0 0 0
57.0696 -326.841 -1368
139.665 -300.852 -1371
104.267 -328.408 -1375
119.094 -304.004 -1365
-661.152 -716.465 -1176
-481.496 -714.506 -1172
-716.645 -1163.76 -1302
-532.317 -1134.98 -1282
-639.38 -1501.55 -1251
-565.237 -1537.39 -1293
-634.321 -1558.38 -1239
-561.994 -1577.52 -1278
-652.77 -1500.31 -1258
-572.051 -1520.06 -1290
