ply
format ascii 1.0
comment Created by Open3D
element vertex 33
property double x
property double y
property double z
end_header
104.337 399.257 -1648
90.2769 429.246 -1630
87.0972 433.212 -1632
83.826 433.447 -1633
83.826 433.447 -1633
77.0371 432.591 -1630
70.2579 434.938 -1626
33.5554 423.864 -1611
13.9598 424.602 -1614
86.9658 363.038 -1641
83.6228 366.211 -1640
-45.2752 214.711 -1439
-38.2087 256.859 -1497
-62.7822 38.3109 -1525
-88.6614 187.645 -1239
-20.8001 -68.9404 -1555
-117.745 124.84 -906
-11.5684 -93.8559 -1558
-159.609 120.335 -924
-8.48372 -87.7674 -1560
-147.801 125.653 -909
-8.47222 -84.5558 -1558
-127.971 125.983 -900
-14.4404 -263.043 -1521
-26.6685 -272.576 -1522
-31.09 -572.42 -1539
-58.3278 -652.032 -1568
-55.4284 -902.633 -1613
-61.8205 -1101.73 -1628
-103.453 -994.563 -1619
-117.148 -1182.17 -1587
108.735 -1168.58 -1852
131.284 -1177.33 -1607
