ply
format ascii 1.0
comment Created by Open3D
element vertex 33
property double x
property double y
property double z
end_header
66.8687 381.6 -1633
54.0674 417.681 -1640
0 0 0
0 0 0
83.2372 410.638 -1625
93.5444 412.499 -1632
102.993 410.579 -1624
7.68967 413.531 -1680
121.425 410.619 -1651
49.4781 345.694 -1609
82.2737 350.535 -1615
-110.518 231.094 -1590
243.278 234.91 -1584
-379.51 209.017 -1644
519.034 196.849 -1600
-645.351 162.077 -1664
685.894 170.066 -1590
-709.714 162.496 -1651
0 0 0
-717.23 166.106 -1650
0 0 0
-690.958 158.705 -1653
682.016 166.582 -1590
-11.7093 -289.138 -1561
157.809 -277.291 -1561
0.875689 -674.956 -1588
138.034 -673.349 -1589
4.64618 -1114.35 -1612
140.855 -1131.02 -1604
19.2552 -1189.47 -1566
130.147 -1181.58 -1526
-42.7951 -1153.02 -1773
126.66 -1042.53 -1593
