ply
format ascii 1.0
comment Created by Open3D
element vertex 33
property double x
property double y
property double z
end_header
-36.4319 382.109 -1681
-23.2666 419.954 -1706
-9.5488 424.116 -1723
0.915955 425.835 -1730
-58.0171 421.568 -1712
-71.3925 418.7 -1700
-85.1556 415.223 -1700
14.8487 402.879 -1725
-106.21 396.072 -1709
-12.8548 352.897 -1709
-60.6977 351.183 -1700
129.561 220.245 -1789
-218.704 211.157 -1798
401.127 180.608 -1798
-493.505 162.276 -1825
657.163 128.459 -1786
-745.45 90.0834 -1818
723.015 112.919 -1757
-813.21 67.1753 -1797
732.838 109.604 -1761
-819.775 63.5859 -1802
703.954 106.011 -1771
-801.277 60.0994 -1819
42.1193 -289.64 -1715
-133.299 -297.017 -1714
42.2376 -698.651 -1801
-100.642 -701.193 -1806
45.533 -1084.46 -1833
-80.629 -1100.02 -1850
17.2896 -1132.4 -1821
-56.6463 -1159.88 -1848
96.4579 -1173.06 -1666
-123.358 -1174.87 -1704
