ply
format ascii 1.0
comment Created by Open3D
element vertex 33
property double x
property double y
property double z
end_header
-37.7721 368.031 -1747
-20.1054 408.622 -1734
-13.0869 411.772 -1732
-2.58488 411.764 -1732
-30.6615 405.714 -1737
-30.6615 405.714 -1737
-30.6536 409.118 -1736
53.3632 407.793 -1730
18.4029 407.912 -1731
-13.1417 339.687 -1750
-23.75 337.059 -1755
90.0556 220.772 -1439
100.358 212.772 -1464
-28.4316 153.624 -964
19.9485 183.649 -1599
-3.38005 143.159 -973
-19.9975 147.105 -1028
-12.5594 144.7 -932
-21.5539 151.816 -1004
-8.50532 144.735 -897
-24.2351 149.607 -951
-4.96708 140.811 -907
-29.4747 153.262 -1000
49.2093 -268.652 -1610
52.3685 -258.659 -1609
83.6638 -649.273 -1653
68.5608 -599.896 -1632
122.453 -1082.65 -1692
120.216 -999.561 -1687
167.828 -1172.48 -1698
168.64 -1130.24 -1780
-44.3434 -1172.31 -1645
-39.9786 -1179.55 -1830
