ply
format ascii 1.0
comment Created by Open3D
element vertex 66
property double x
property double y
property double z
end_header
-36.4319 382.109 -1681
-23.2666 419.954 -1706
-9.5488 424.116 -1723
0.915955 425.835 -1730
-58.0171 421.568 -1712
-71.3925 418.7 -1700
-85.1556 415.223 -1700
14.8487 402.879 -1725
-106.21 396.072 -1709
-12.8548 352.897 -1709
-60.6977 351.183 -1700
129.561 220.245 -1789
-218.704 211.157 -1798
401.127 180.608 -1798
-493.505 162.276 -1825
657.163 128.459 -1786
-745.45 90.0834 -1818
723.015 112.919 -1757
-813.21 67.1753 -1797
732.838 109.604 -1761
-819.775 63.5859 -1802
703.954 106.011 -1771
-801.277 60.0994 -1819
42.1193 -289.64 -1715
-133.299 -297.017 -1714
42.2376 -698.651 -1801
-100.642 -701.193 -1806
45.533 -1084.46 -1833
-80.629 -1100.02 -1850
17.2896 -1132.4 -1821
-56.6463 -1159.88 -1848
96.4579 -1173.06 -1666
-123.358 -1174.87 -1704
-47.1028 350.92 -1869.26
-34.3015 387.001 -1862.26
19.7659 -30.6797 -3502.26
19.7659 -30.6797 -3502.26
-63.4713 379.958 -1877.26
-73.7785 381.819 -1870.26
-83.2271 379.899 -1878.26
12.0762 382.851 -1822.26
-101.659 379.939 -1851.26
-29.7122 315.014 -1893.26
-62.5078 319.855 -1887.26
130.284 200.414 -1912.26
-223.512 204.23 -1918.26
399.276 178.337 -1858.26
-499.268 166.169 -1902.26
665.117 131.397 -1838.26
-666.128 139.386 -1912.26
729.48 131.816 -1851.26
19.7659 -30.6797 -3502.26
736.996 135.426 -1852.26
19.7659 -30.6797 -3502.26
710.724 128.025 -1849.26
-662.25 135.902 -1912.26
31.4752 -319.818 -1941.26
-138.043 -307.971 -1941.26
18.8902 -705.636 -1914.26
-118.268 -704.029 -1913.26
15.1197 -1145.03 -1890.26
-121.089 -1161.7 -1898.26
0.510708 -1220.15 -1936.26
-110.381 -1212.26 -1976.26
62.561 -1183.7 -1729.26
-106.894 -1073.21 -1909.26
