ply
format ascii 1.0
comment Created by Open3D
element vertex 66
property double x
property double y
property double z
end_header
-111.545 871.184 -1067
-97.4275 889.658 -1077
-87.3461 889.584 -1082
-76.6422 882.998 -1079
-124.062 877.167 -1060
-134.68 877.46 -1064
-143.633 885.42 -1073
-63.758 857.263 -1093
-156.838 844.909 -1071
-88.2948 842.85 -1078
-129.746 829.048 -1062
15.8343 689.089 -1142
-246.318 687.508 -1106
195.244 741.882 -1208
-440.651 772.596 -1126
394.838 786.968 -1258
-1120.57 1614.47 -2013
497.949 787.204 -1272
-1187.56 1669.61 -2019
498.026 790.267 -1271
-1146.51 1662.79 -2024
457.897 789.966 -1274
-1113.48 1629.21 -2017
-36.3336 247.078 -1012
-185.395 236.248 -1000
-34.3046 -101.194 -971
-192.925 -83.5528 -980
-33.3726 -435.225 -939
-196.282 -439.318 -955
-49.8464 -453.94 -944
-170.558 -478.011 -980
-47.792 -541.48 -866
-228.292 -565.317 -933
-159.208 738.463 -1116.87
-254.763 -17.3831 -2269.87
-254.763 -17.3831 -2269.87
-254.763 -17.3831 -2269.87
-160.376 826.392 -1042.87
-162.587 831.796 -1034.87
-254.763 -17.3831 -2269.87
-254.763 -17.3831 -2269.87
-170.016 836.431 -1016.87
-144.432 719.905 -1120.87
-161.955 721.698 -1111.87
4.63052 663.288 -1145.87
-287.064 671.617 -1068.87
240.308 734.563 -1136.87
-498.132 743.543 -988.872
708.802 1557.18 -263.872
-676.109 781.059 -972.872
682.931 1511.12 -406.872
-758.571 774.837 -970.872
633.885 1510.89 -382.872
-742.266 775.66 -971.872
643.259 1539.71 -288.872
-721.421 778.741 -967.872
-82.0475 215.642 -1244.87
-225.312 211.203 -1205.87
-46.8365 -149.586 -1269.87
-194.089 -166.977 -1249.87
-26.2615 -484.387 -1310.87
-172.389 -513.393 -1309.87
-69.6245 -536.191 -1345.87
-182.626 -574.488 -1329.87
22.3195 -597.534 -1291.87
-130.309 -581.418 -1351.87
