ply
format ascii 1.0
comment Created by Open3D
element vertex 33
property double x
property double y
property double z
end_header
-525.385 -284.611 -1383
-507.499 -259.003 -1387
-502.014 -259.628 -1390
-493.486 -263.284 -1397
-543.223 -261.247 -1389
-562.125 -262.782 -1398
-575.682 -265.07 -1399
0 0 0
-596.832 -278.844 -1413
-510.803 -327.313 -1404
-555.186 -330.05 -1399
-422.956 -484.648 -1492
-709.906 -450.381 -1464
-200.125 -511.949 -1524
-939.207 -460.179 -1470
9.20279 -518.797 -1542
-1134.73 -451.616 -1461
74.0352 -526.079 -1542
-1183.06 -449.036 -1435
87.4088 -526.561 -1558
-1194.08 -444.735 -1443
64.2796 -522.892 -1547
-1173.82 -447.003 -1442
-461.128 -896.907 -1421
-625.948 -892.958 -1413
-472.29 -1283.8 -1447
-615.413 -1282.87 -1439
-500.804 -1634.63 -1471
-605.001 -1640.28 -1475
-516.576 -1654.55 -1471
-592.416 -1651.49 -1467
-450.97 -1640.42 -1341
-552.147 -1648.45 -1350
