ply
format ascii 1.0
comment Created by Open3D
element vertex 33
property double x
property double y
property double z
end_header
0 0 0
-470.021 -246.795 -1367
-471.168 -244.045 -1364
-471.611 -240.95 -1359
-472.265 -245.671 -1361
-475.189 -242.732 -1357
-479.851 -241.777 -1352
-506.519 -248.581 -1355
-516.409 -250.274 -1353
0 0 0
0 0 0
-500.997 -347.391 -1168
-502.255 -326.446 -1166
-467.555 -300.395 -1143
0 0 0
0 0 0
-215.387 -187.234 -749
0 0 0
-210.63 -186.089 -749
0 0 0
-212.812 -183.801 -740
0 0 0
-215.731 -182.419 -730
-537.348 -788.232 -1235
-547.856 -787.41 -1237
-520.775 -1119.63 -1245
-519.359 -1132.82 -1251
-579.8 -1481.55 -1306
-597.92 -1551.16 -1325
-615.386 -1550.61 -1323
-623.112 -1604.8 -1315
-502.737 -1685.61 -1446
-470.725 -1630.49 -1338
