ply
format ascii 1.0
comment Created by Open3D
element vertex 33
property double x
property double y
property double z
end_header
0 0 0
0 0 0
0 0 0
0 0 0
-566.936 -200.86 -1253
-558.662 -200.771 -1252
-553.693 -199.141 -1254
0 0 0
0 0 0
0 0 0
-550.3 -243.933 -1209
-683.11 -350.186 -1231
-447.968 -393.329 -1345
-861.499 -356.255 -1197
-289.402 -495.882 -1529
-994.733 -298.502 -1118
-143.142 -537.641 -1630
-1032.66 -297.128 -1107
0 0 0
-1028.01 -287.192 -1102
-124.784 -676.885 -2123
-1011.09 -291.195 -1104
0 0 0
-580.846 -794.673 -1215
-465.448 -810.204 -1249
-621.167 -1198.96 -1281
-505.703 -1231.57 -1328
-587.726 -1543.32 -1290
-500.116 -1561.53 -1311
-559.369 -1582.41 -1268
-492.707 -1624.22 -1304
-588.931 -1588.7 -1281
-481.65 -1606.81 -1301
