ply
format ascii 1.0
comment Created by Open3D
element vertex 33
property double x
property double y
property double z
end_header
-310.691 -114.593 -651
-265.642 -88.4691 -581
-262.921 -88.493 -581
0 0 0
-266.097 -87.382 -580
-264.743 -87.5484 -581
-262.937 -86.6352 -581
0 0 0
0 0 0
-321.929 -138.646 -693
-322.089 -137.133 -691
-389.634 -320.476 -1097
-388.471 -309.415 -1043
-355.776 -241.262 -901
-361.713 -249.142 -909
-299.126 -144.379 -698
-295.868 -150.614 -706
-294.599 -127.506 -663
-270.113 -118.247 -630
-282.14 -122.867 -644
-274.659 -122.751 -643
-289.475 -131.744 -668
-284.026 -134.346 -670
-413.003 -775.141 -1183
-432.349 -768.863 -1185
-437.546 -1145.71 -1219
-441.043 -1129.65 -1218
-414.601 -1561.86 -1304
-414.003 -1441.33 -1246
-379.482 -1635.48 -1317
-402.801 -1587.17 -1325
-549.808 -1612.15 -1287
-578.827 -1634.72 -1344
