ply
format ascii 1.0
comment Created by Open3D
element vertex 66
property double x
property double y
property double z
end_header
-208.209 386.137 -1507
-202.541 408.671 -1532
-193.863 407.029 -1539
-184.761 404.586 -1543
-224.745 409.223 -1532
-234.814 407.254 -1536
-243.513 402.911 -1531
-173.05 368.298 -1529
-269.792 370.136 -1541
-187.999 342.42 -1527
-224.384 344.353 -1518
-48.3963 208.974 -1646
-392.77 195.654 -1586
220.447 245.756 -1708
-658.902 228.727 -1579
454.14 279.793 -1716
-889.53 273.282 -1505
523.951 267.232 -1690
-956.389 260.486 -1459
535.163 283.632 -1725
-960.509 267.334 -1458
497.944 278.747 -1701
-933.901 263.06 -1463
-140.288 -323.961 -1554
-284.417 -332.696 -1521
-148.383 -710.711 -1562
-280.988 -757.25 -1601
-182.201 -1059.65 -1623
-249.371 -1112.76 -1604
-187.159 -1085.48 -1626
0 0 0
0 0 0
0 0 0
-146.922 390.558 -1652.16
-471.948 38.1646 -3355.16
-471.948 38.1646 -3355.16
-125.733 425.654 -1658.16
-471.948 38.1646 -3355.16
-471.948 38.1646 -3355.16
-471.948 38.1646 -3355.16
-125.347 412.189 -1654.16
-471.948 38.1646 -3355.16
-145.819 360.49 -1661.16
-172.845 353.956 -1674.16
-40.9545 229.309 -1814.16
-369.435 227.068 -1683.16
164.431 256.669 -1897.16
-598.656 236.093 -1604.16
382.889 294.674 -1993.16
-842.932 282.216 -1487.16
428.453 283.686 -2024.16
-919.806 260.216 -1457.16
431.304 288.036 -2038.16
-915.94 265.935 -1474.16
411.866 288.524 -2026.16
-888.21 273.008 -1475.16
-162.312 -273.332 -1765.16
-308.003 -276.005 -1719.16
-142.752 -671.141 -1745.16
-310.366 -690.591 -1683.16
-180.473 -1088.17 -1750.16
-289.958 -1152.28 -1705.16
-195.817 -1153.65 -1754.16
-289.401 -1159.29 -1792.16
-471.948 38.1646 -3355.16
-280.187 -1152.57 -1768.16
