ply
format ascii 1.0
comment Created by Open3D
element vertex 66
property double x
property double y
property double z
end_header
-211.526 356.973 -1561
-199.791 396.828 -1590
-189.802 393.012 -1589
-177.595 391.362 -1597
-230.393 393.822 -1575
-240.856 391.959 -1580
-251.076 389.593 -1583
-164.659 362.262 -1603
-281.584 365.632 -1592
-191.9 313.628 -1591
-236.869 320.046 -1586
-53.1685 194.729 -1695
-419.876 192.207 -1668
191.499 242.243 -1761
-679.093 233.709 -1695
430.685 286.382 -1786
-886.933 300.652 -1641
513.166 287.268 -1753
-957.794 288.48 -1606
517.104 291.06 -1753
-958.647 292.317 -1607
486.564 286.472 -1753
-930.827 291.453 -1612
-150.551 -339.223 -1595
-323.169 -344.253 -1570
-167.478 -771.427 -1686
-323.03 -784.202 -1654
-215.414 -1098.24 -1680
0 0 0
-236.313 -1130.18 -1682
0 0 0
0 0 0
-275.317 -1205.05 -1473
-523.339 18.1477 -3425.31
-523.339 18.1477 -3425.31
-523.339 18.1477 -3425.31
-523.339 18.1477 -3425.31
-523.339 18.1477 -3425.31
-523.339 18.1477 -3425.31
-523.339 18.1477 -3425.31
-161.694 393.627 -1685.31
-523.339 18.1477 -3425.31
-181.975 345.028 -1689.31
-213.991 337.589 -1706.31
-67.3177 214.19 -1819.31
-401.602 211.092 -1718.31
133.135 227.464 -1894.31
-632.415 205.321 -1675.31
355.226 260.922 -1990.31
-891.663 239.461 -1588.31
419.151 244.049 -2022.31
-979.639 215.744 -1540.31
415.47 255.1 -2035.31
-967.007 221.431 -1593.31
395.219 256.434 -2016.31
-936.312 228.393 -1593.31
-182.05 -308.298 -1779.31
-340.644 -309.292 -1739.31
-163.986 -692.816 -1769.31
-326.487 -694.94 -1717.31
-194.358 -1103.96 -1795.31
-298.44 -1131.52 -1750.31
-523.339 18.1477 -3425.31
-523.339 18.1477 -3425.31
-523.339 18.1477 -3425.31
-523.339 18.1477 -3425.31
