ply
format ascii 1.0
comment Created by Open3D
element vertex 33
property double x
property double y
property double z
end_header
-540.882 -278.987 -1378
-532.359 -254.688 -1389
-523.23 -254.591 -1388
-520.367 -258.73 -1398
-556.336 -250.184 -1378
-572.304 -250.395 -1380
-584.434 -249.901 -1378
-520.622 -273.546 -1405
-634.905 -268.632 -1409
-537.335 -318.881 -1398
-564.702 -314.131 -1379
-463.419 -479.211 -1463
-762.605 -448.061 -1452
-209.093 -503.392 -1451
-985.951 -468.145 -1428
19.6235 -467.458 -1396
-1105.63 -401.372 -1310
90.2939 -459.304 -1372
-1138.97 -386.396 -1276
110.927 -453.141 -1380
-1138.44 -378.922 -1271
81.6115 -455.964 -1375
-1117.89 -381.326 -1272
-484.301 -884.433 -1392
-648.789 -885.869 -1383
-489.64 -1269.83 -1419
-635.793 -1269.85 -1405
-504.4 -1625.46 -1449
-613.926 -1625.4 -1448
-516.609 -1641.69 -1446
-598.971 -1646.27 -1445
-454.395 -1638.64 -1333
-564.249 -1635.72 -1325
