ply
format ascii 1.0
comment Created by Open3D
element vertex 33
property double x
property double y
property double z
end_header
0 0 0
0 0 0
-452.717 -197.916 -1292
-451.24 -196.367 -1282
-453.401 -200.301 -1294
-452.791 -197.31 -1275
-454.894 -193.527 -1264
-483.64 -200.094 -1256
-488.012 -199.404 -1252
-452.487 -272.381 -1311
-453.786 -271.483 -1297
-493.853 -312.198 -1122
-459.248 -276.324 -1085
-770.637 -657.333 -2124
-234.478 -193.467 -838
-496.394 -837.147 -2128
-63.7869 -122.773 -629
-469.49 -855.021 -2130
0 0 0
-451.845 -836.884 -2126
0 0 0
-455.239 -836.845 -2126
0 0 0
-515.865 -740.581 -1134
-476.999 -730.321 -1125
-541.081 -1113.06 -1221
-451.174 -1071.26 -1161
-655.422 -1562.36 -1342
-529.432 -1498.34 -1238
-686.779 -1605.94 -1328
-564.718 -1551.56 -1233
-530.468 -1556.25 -1273
-487.059 -1603.59 -1289
