ply
format ascii 1.0
comment Created by Open3D
element vertex 33
property double x
property double y
property double z
end_header
-572.967 -191.482 -1220
-589.365 -167.413 -1230
0 0 0
-589.932 -161.295 -1200
-571.047 -170.374 -1236
-557.865 -168.781 -1224
0 0 0
-603.122 -177.716 -1208
0 0 0
-580.327 -217.446 -1224
0 0 0
-721.268 -340.998 -1228
-433.764 -341.795 -1237
-964.126 -406.791 -1294
-223.695 -412.079 -1315
-1148.14 -397.131 -1311
25.2097 -442.123 -1333
-1210.13 -398.709 -1317
86.0089 -452.854 -1340
-1213.1 -390.786 -1318
0 0 0
-1193.37 -391.084 -1312
64.9404 -448.373 -1352
-587.89 -753.907 -1162
-464.385 -752.955 -1159
-629.874 -1183.83 -1229
-483.284 -1178.39 -1220
-631.066 -1541.66 -1262
-521.043 -1532.64 -1246
-615.718 -1611.2 -1264
-512.887 -1571.77 -1228
-622.073 -1585.68 -1253
-506.017 -1564.62 -1234
