ply
format ascii 1.0
comment Created by Open3D
element vertex 33
property double x
property double y
property double z
end_header
0 0 0
-621.17 -210.394 -1314
-611.304 -207.083 -1306
-604.908 -206.328 -1301
-624.657 -208.753 -1317
-617.747 -205.746 -1311
-611.34 -202.912 -1306
-563.708 -214.54 -1286
-565.738 -212.465 -1286
0 0 0
0 0 0
-436.781 -302.064 -1102
-433.625 -318.711 -1099
-403.362 -239.515 -897
-432.941 -301.534 -988
-359.613 -144.603 -658
-386.629 -180.073 -748
-387.289 -138.408 -655
-351.774 -148.742 -653
-373.342 -130.765 -633
-397.214 -172.11 -721
-363.148 -136.116 -634
-366.171 -164.505 -702
-437.195 -757.316 -1173
-464.917 -752.836 -1178
-452.089 -1118.47 -1202
-463.755 -1108.16 -1203
-428.759 -1556.49 -1298
-439.66 -1458.52 -1248
-401.193 -1624.1 -1308
-419.891 -1573.19 -1302
-552.208 -1604.19 -1270
-579.445 -1611.52 -1304
