ply
format ascii 1.0
comment Created by Open3D
element vertex 33
property double x
property double y
property double z
end_header
-289.135 380.006 -1595
-260.497 408.546 -1577
-255.979 403.285 -1570
-249.288 402.849 -1569
-260.497 408.546 -1577
-256.233 406.899 -1571
-249.059 405.682 -1567
-193.242 386.958 -1564
-196.834 387.767 -1567
-271.76 336.318 -1597
-271.76 336.318 -1597
-108.9 160.942 -1245
-97.2175 166.52 -1289
-112.845 98.2223 -1032
-92.9831 181.049 -1339
-144.428 89.9501 -818
0 0 0
-172.219 81.6306 -814
0 0 0
-166.669 85.3251 -772
0 0 0
-159.383 83.2211 -768
-236.512 243.15 -1738
-97.0104 -294.284 -1472
-115.155 -286.304 -1477
-82.4244 -635.911 -1462
-118.448 -597.124 -1458
-44.9443 -1101.96 -1533
-88.2437 -934.907 -1475
-6.28289 -1181.49 -1549
-54.1112 -1035.94 -1511
-213.848 -1180.4 -1480
0 0 0
