ply
format ascii 1.0
comment Created by Open3D
element vertex 33
property double x
property double y
property double z
end_header
-82.3991 379.772 -1582
-73.9736 415.194 -1603
-67.5852 415.92 -1606
-58.1024 414.761 -1615
-108.591 413.993 -1584
-125.097 412.133 -1589
-137.767 408.173 -1586
-60.6858 390.657 -1600
-177.921 385.582 -1601
-70.3449 348.284 -1605
-107.747 340.531 -1583
54.5139 179.834 -1683
-318.679 191.873 -1650
311.07 127.719 -1735
-555.126 160.557 -1631
571.54 122.296 -1768
-809.95 158.182 -1610
656.177 113.464 -1784
-875.04 156.195 -1563
660.297 120.267 -1773
-881.205 159.493 -1559
628.385 122.752 -1762
-851.611 152.868 -1573
-38.7169 -324.266 -1641
-215.003 -328.081 -1617
-30.2807 -680.234 -1655
-222.99 -682.995 -1633
-41.2535 -1061.51 -1730
-232.658 -1062.08 -1713
-74.6122 -1143.94 -1774
-204.939 -1164.36 -1791
8.47486 -1187.13 -1617
-260.721 -1189.84 -1600
