ply
format ascii 1.0
comment Created by Open3D
element vertex 33
property double x
property double y
property double z
end_header
-193.913 346.809 -1576
0 0 0
0 0 0
0 0 0
-179.35 371.818 -1557
0 0 0
0 0 0
-248.679 360.288 -1572
-153.931 355.714 -1560
-214.583 318.69 -1615
-185.776 322.945 -1622
-365.722 175.948 -1530
-24.3283 190.642 -1577
-626.516 120.51 -1526
231.868 156.158 -1672
-884.533 94.6661 -1497
489.308 142.821 -1721
-958.031 78.7647 -1482
571.048 152.918 -1741
-957.543 85.3783 -1481
581.743 153.85 -1750
-928.297 85.1368 -1488
548.487 140.065 -1719
-250.28 -293.842 -1473
-101.369 -286.376 -1494
-266.369 -686.644 -1506
-89.8397 -671.369 -1535
-249.022 -1106.31 -1513
-92.589 -1064.06 -1511
-231.89 -1193.73 -1508
-102.983 -1158.48 -1536
-286.395 -1076.58 -1513
-162.481 -1088 -1548
