ply
format ascii 1.0
comment Created by Open3D
element vertex 33
property double x
property double y
property double z
end_header
0 0 0
-29.7745 411.01 -1684
-36.3955 408.836 -1675
-39.6435 407.384 -1669
-33.1432 410.533 -1682
-42.816 405.445 -1661
-49.0649 401.57 -1645
-94.8404 381.584 -1632
-101.487 378.458 -1633
-22.6929 328.79 -1676
-26.0681 332.252 -1676
-122.148 166.837 -1502
-87.8402 123.708 -900
-179.815 80.8281 -1413
-171.094 104.027 -849
-101.449 -1.0572 -1560
-131.627 102.297 -970
-98.28 8.23051 -1559
-141.604 97.9939 -985
-95.663 2.04947 -1567
-133.836 119.462 -1180
-101.385 5.13527 -1559
-141.281 113.606 -1144
-144.244 -297.244 -1532
-183.78 -305.527 -1523
-146.108 -627.028 -1521
-185.428 -656.067 -1519
-195.867 -988.236 -1532
-213.706 -1060 -1537
-235.372 -1066.03 -1537
-265.818 -1179.28 -1585
0 0 0
-55.0108 -1173.18 -1618
