ply
format ascii 1.0
comment Created by Open3D
element vertex 33
property double x
property double y
property double z
end_header
-215.233 386.455 -1560
0 0 0
0 0 0
0 0 0
0 0 0
0 0 0
0 0 0
-279.732 418.005 -1612
0 0 0
-232.883 360.596 -1575
-197.758 360.766 -1579
-378.251 244.334 -1522
-35.8374 221.762 -1528
-642.194 226.555 -1593
221.315 222.542 -1614
-910.894 221.399 -1607
497.665 250.562 -1653
-982.675 211.8 -1589
585.432 261.615 -1662
-1002.61 221.739 -1606
598.561 271.347 -1677
-965.572 211.165 -1590
565.052 260.193 -1657
-288.348 -295.942 -1448
-120.52 -281.977 -1470
-278.204 -696.943 -1536
-114.491 -686.473 -1560
-250.016 -1090.8 -1558
-97.1433 -1112.76 -1587
-226.94 -1172.94 -1540
-112.978 -1161.45 -1520
-250.048 -1004.84 -1567
0 0 0
