ply
format ascii 1.0
comment Created by Open3D
element vertex 33
property double x
property double y
property double z
end_header
-160 373.022 -1621
-148.706 420.887 -1635
-132.412 421.925 -1640
-119.905 424.833 -1652
-185.036 417.04 -1631
-196.336 416.566 -1642
-209.21 415.581 -1637
-107.519 415.414 -1671
-222.703 405.26 -1665
-139.016 345.156 -1651
-178.073 343.399 -1640
32.1026 251.787 -1735
-339.189 227.799 -1717
294.29 295.596 -1727
-581.261 259.83 -1700
569.669 306.315 -1723
-858.933 282.889 -1680
0 0 0
-932.348 291.71 -1638
653.188 326.609 -1736
-939.366 298.874 -1634
627.549 308.392 -1722
-908.922 291.158 -1643
-32.2656 -272.734 -1655
-222.91 -288.302 -1657
-55.433 -700.682 -1806
-235.034 -701.635 -1788
-56.2895 -1070.61 -1869
-202.419 -1059.23 -1851
-76.2494 -1095.79 -1843
-174.884 -1124.08 -1895
-14.3065 -1161.38 -1680
-232.37 -1164.04 -1666
