ply
format ascii 1.0
comment Created by Open3D
element vertex 33
property double x
property double y
property double z
end_header
-239.74 367.278 -1492
-224.372 409.095 -1507
-212.145 409.31 -1509
-196.343 411.618 -1507
-247.062 407.823 -1512
-250.786 405.737 -1516
-255.626 408.508 -1526
-141.641 398.32 -1522
-220.915 396.093 -1507
-207.052 332.041 -1507
-239.207 334.261 -1514
-95.6668 209.977 -1299
-97.7397 188.128 -1294
-124.384 114.097 -839
-63.9154 21.5215 -1416
-111.532 119.368 -795
-115.304 -119.697 -1386
-124.503 122.805 -764
-121.014 -147.54 -1386
0 0 0
-146.339 -153.517 -1388
-126.434 131.21 -817
-143.254 -142.114 -1386
-75.1852 -268.011 -1399
-64.2347 -252.311 -1408
-80.8593 -617.789 -1436
-71.1361 -570.243 -1435
-34.5292 -1079.09 -1554
-30.2272 -987.005 -1545
15.3546 -1145.78 -1554
11.9783 -1105.42 -1613
-197.566 -1160 -1506
-215.036 -1162.28 -1687
