ply
format ascii 1.0
comment Created by Open3D
element vertex 33
property double x
property double y
property double z
end_header
7.13532 371.113 -1561
0.818892 405.65 -1542
0.818892 405.65 -1542
3.99862 413.967 -1561
-14.8481 406.189 -1544
-21.1373 409.749 -1545
-30.4622 411.727 -1540
-39.8562 396.186 -1543
-48.6729 225.698 -864
-2.30931 336.565 -1552
-14.7555 338.27 -1545
-89.7407 166.987 -1293
-141.105 177.709 -1418
-89.2015 -3.76856 -1415
-108.085 198.036 -1151
-62.5583 -144.828 -1445
-94.4766 227.571 -898
-40.1962 -194.045 -1466
-90.2797 245.374 -853
-40.1962 -194.045 -1466
-92.5524 245.632 -841
-42.9908 -187.623 -1462
-93.4742 240.379 -868
-109.73 -279.755 -1370
-107.079 -291.096 -1370
-97.5396 -608.649 -1414
-106.826 -631.555 -1412
-129.964 -1020.32 -1518
-135.08 -1095.87 -1508
-162.924 -1088.54 -1509
-167.358 -1150.82 -1490
26.7293 -1170.92 -1588
32.3096 -1162.07 -1479
