ply
format ascii 1.0
comment Created by Open3D
element vertex 66
property double x
property double y
property double z
end_header
-93.3726 390.905 -1275
-74.4965 423.311 -1307
-61.5789 424.145 -1319
-50.9808 423.386 -1326
-112.683 420.843 -1280
-126.735 423.749 -1288
-141.742 428.993 -1303
-38.2075 407.764 -1361
-164.427 407.745 -1316
-67.7276 354.244 -1293
-122.199 357.204 -1281
71.5373 188.718 -1418
-295.661 197.52 -1379
304.82 128.378 -1493
-531.092 150.954 -1344
516.757 118.175 -1566
-737.272 152.975 -1328
603.154 93.7886 -1572
-825.743 145.002 -1302
605.704 100.214 -1569
-825.976 148.488 -1308
575.557 107.225 -1584
-792.887 145.402 -1320
-4.61539 -290.206 -1317
-185.152 -298.177 -1307
-2.26284 -759.351 -1417
-188.581 -755.308 -1401
-12.3469 -1131.54 -1387
-176.966 -1123.82 -1376
-36.2908 -1173.96 -1409
-160.645 -1144.62 -1368
3.89335 -1198.38 -1203
-186.063 -1199.95 -1221
-179.736 -3.75692 -2840.44
-179.736 -3.75692 -2840.44
-179.736 -3.75692 -2840.44
-179.736 -3.75692 -2840.44
-179.736 -3.75692 -2840.44
-179.736 -3.75692 -2840.44
-179.736 -3.75692 -2840.44
-179.736 -3.75692 -2840.44
-161.075 369.069 -1478.44
-77.0723 324.395 -1498.44
-115.406 325.845 -1502.44
54.9357 212.343 -1548.44
-288.994 183.291 -1517.44
307.333 146.401 -1571.44
-496.739 149.184 -1459.44
499.881 130.839 -1627.44
-672.103 160.048 -1446.44
568.378 112.151 -1654.44
-746.783 155.289 -1426.44
568.083 120.067 -1655.44
-737.417 166.098 -1434.44
531.77 119.752 -1644.44
-710.09 167.829 -1438.44
-5.19327 -305.327 -1553.44
-188.28 -305.802 -1543.44
-13.2153 -681.892 -1557.44
-194.282 -665.054 -1557.44
-33.2453 -1136.09 -1563.44
-205.814 -1137.04 -1546.44
-53.5203 -1208.42 -1578.44
-196.429 -1205.63 -1577.44
-17.5433 -1151.96 -1573.44
-193.288 -1160.72 -1546.44
