ply
format ascii 1.0
comment Created by Open3D
element vertex 33
property double x
property double y
property double z
end_header
-93.3726 390.905 -1275
-74.4965 423.311 -1307
-61.5789 424.145 -1319
-50.9808 423.386 -1326
-112.683 420.843 -1280
-126.735 423.749 -1288
-141.742 428.993 -1303
-38.2075 407.764 -1361
-164.427 407.745 -1316
-67.7276 354.244 -1293
-122.199 357.204 -1281
71.5373 188.718 -1418
-295.661 197.52 -1379
304.82 128.378 -1493
-531.092 150.954 -1344
516.757 118.175 -1566
-737.272 152.975 -1328
603.154 93.7886 -1572
-825.743 145.002 -1302
605.704 100.214 -1569
-825.976 148.488 -1308
575.557 107.225 -1584
-792.887 145.402 -1320
-4.61539 -290.206 -1317
-185.152 -298.177 -1307
-2.26284 -759.351 -1417
-188.581 -755.308 -1401
-12.3469 -1131.54 -1387
-176.966 -1123.82 -1376
-36.2908 -1173.96 -1409
-160.645 -1144.62 -1368
3.89335 -1198.38 -1203
-186.063 -1199.95 -1221
