ply
format ascii 1.0
comment Created by Open3D
element vertex 33
property double x
property double y
property double z
end_header
-4.80165 352.52 -1362
-4.79099 384.831 -1353
-2.03471 384.829 -1353
3.47523 384.545 -1352
-24.079 387.492 -1352
-32.3006 386.952 -1350
-43.0897 385.005 -1343
-21.2971 362.249 -1355
-73.7382 371.258 -1355
-4.85608 322.997 -1383
0 0 0
-37.0589 102.061 -693
-72.8757 109.967 -616
-62.8565 3.89816 -1184
-57.1741 110.634 -651
-14.477 -101.74 -1269
-10.999 132.955 -625
-4.47754 -142.477 -1293
0 0 0
-1.89825 -131.898 -1291
3.55967 306.514 -1400
-6.98435 -118.147 -1282
-4.91089 304.037 -1402
-34.9738 -268.09 -1264
-68.794 -271.1 -1229
-46.6979 -550.979 -1247
-101.447 -635.163 -1248
-93.7729 -887.191 -1298
-124.448 -1125.14 -1281
-136.742 -963.477 -1280
-161.904 -1197.47 -1273
50.7641 -1168.09 -1518
62.9136 -1152.39 -1251
