ply
format ascii 1.0
comment Created by Open3D
element vertex 33
property double x
property double y
property double z
end_header
-230.498 347.189 -1362
-218.115 381.23 -1349
-212.092 383.126 -1346
-203.064 381.742 -1342
-224.167 379.326 -1352
-224.167 379.326 -1352
-221.426 382.164 -1352
-151.339 383.256 -1352
-170.443 379.938 -1349
-199.435 318.669 -1367
-208.531 314.249 -1372
-23.4375 149.502 -851
-108.291 207.486 -1178
25.9088 60.0548 -676
-87.5522 36.3175 -1167
21.936 64.4385 -603
-113.927 -41.3727 -1199
15.5445 61.6713 -637
-154.454 -77.1359 -1233
10.0643 75.0942 -611
-151.623 -81.8591 -1230
10.0643 75.0942 -611
-117.24 -56.131 -1208
-77.5148 -252.319 -1212
-114.992 -246.803 -1220
-84.4197 -593.813 -1203
-126.656 -530.387 -1203
-26.5435 -1058.31 -1265
0 0 0
30.0924 -1189.3 -1319
-42.5438 -924.63 -1243
-178.83 -1179.03 -1190
-237.568 -1175.98 -1441
