ply
format ascii 1.0
comment Created by Open3D
element vertex 33
property double x
property double y
property double z
end_header
0 0 0
0 0 0
0 0 0
0 0 0
0 0 0
0 0 0
0 0 0
0 0 0
-18.6612 372.826 -1362
-102.664 328.152 -1342
-64.3304 329.602 -1338
-234.672 216.1 -1292
109.258 187.048 -1323
-487.069 150.158 -1269
317.003 152.941 -1381
-679.617 134.596 -1213
492.367 163.805 -1394
-748.114 115.908 -1186
567.047 159.046 -1414
-747.819 123.824 -1185
557.681 169.855 -1406
-711.506 123.509 -1196
530.354 171.586 -1402
-174.543 -301.57 -1287
8.54349 -302.045 -1297
-166.521 -678.135 -1283
14.5458 -661.297 -1283
-146.491 -1132.33 -1277
26.0779 -1133.28 -1294
-126.216 -1204.66 -1262
16.6932 -1201.87 -1263
-162.193 -1148.2 -1267
13.5522 -1156.96 -1294
