ply
format ascii 1.0
comment Created by Open3D
element vertex 66
property double x
property double y
property double z
end_header
-2.64017 427.748 -1768
15.3457 445.159 -1778
29.835 446.442 -1783
40.8407 444.703 -1791
-13.4734 449.163 -1779
-24.3058 445.926 -1781
-35.0585 441.455 -1778
55.4868 416.752 -1800
-56.8221 410.242 -1788
0 0 0
0 0 0
180.385 196.433 -1833
-171.421 204.081 -1836
436.158 208.749 -1849
-432.089 201.77 -1892
697.724 228.253 -1867
-699.419 209.114 -1951
762.251 228.931 -1856
-793.591 223.2 -1985
776.778 230.928 -1870
-801.872 231.507 -1982
737.958 219.704 -1850
-758.355 220.216 -1965
86.1115 -324.107 -1768
-88.3755 -329.786 -1779
89.4792 -728.099 -1843
-87.7005 -741.658 -1845
0 0 0
-81.6136 -1129.99 -1866
0 0 0
0 0 0
0 0 0
0 0 0
-133.687 15.7918 -3878.63
14.3587 418.405 -1932.63
25.8137 421.529 -1937.63
37.7067 421.88 -1936.63
-9.50632 417.348 -1936.63
-17.1383 421.932 -1933.63
-28.6513 422.882 -1928.63
64.9877 398.087 -1936.63
-133.687 15.7918 -3878.63
15.4837 357.099 -1961.63
-9.96032 361.317 -1936.63
183.271 208.302 -1947.63
-169.71 212.78 -1924.63
457.059 211.634 -1914.63
-448.079 199.162 -1875.63
721.613 206.931 -1942.63
-690.274 192.779 -1891.63
788.558 202.288 -1969.63
-765.131 190.364 -1886.63
787.117 230.542 -1974.63
-764.114 221.434 -1905.63
762.254 230.448 -1967.63
-739.882 229.598 -1900.63
70.1357 -300.22 -1991.63
-89.2973 -303.059 -1990.63
57.7577 -699.214 -1950.63
-90.5374 -696.645 -1939.63
47.7817 -1097.85 -1948.63
-96.361 -1100.44 -1929.63
-133.687 15.7918 -3878.63
-133.687 15.7918 -3878.63
28.9807 -1039.37 -1951.63
-100.915 -1065.51 -1936.63
