ply
format ascii 1.0
comment Created by Open3D
element vertex 66
property double x
property double y
property double z
end_header
-93.153 428.547 -1191
-78.157 471.947 -1220
-65.5418 470.11 -1223
-53.108 470.209 -1231
-118.666 471.257 -1216
-133.467 469.732 -1211
-148.226 465.864 -1207
-47.7322 442.252 -1231
-176.966 445.629 -1217
-76.3542 394.005 -1208
-122.442 392.933 -1194
53.3583 249.213 -1311
-311.048 266.235 -1277
288.853 231.158 -1377
-568.979 256.46 -1282
537.653 234.164 -1442
-827.448 275.98 -1233
603.736 243.145 -1464
-887.373 293.1 -1220
0 0 0
0 0 0
570.185 233.354 -1449
-863.831 281.515 -1215
-26.4175 -249.237 -1223
-194.033 -248.963 -1199
-31.8425 -613.876 -1271
-181.053 -624.718 -1259
-83.8138 -1059.26 -1393
-161.27 -1077.33 -1371
-96.7945 -1088.05 -1377
-141.818 -1103.3 -1359
-67.7718 -1166.99 -1251
-147.662 -1166.96 -1231
-123.12 452.305 -1409.8
-341.625 28.7771 -2752.8
-341.625 28.7771 -2752.8
-341.625 28.7771 -2752.8
-341.625 28.7771 -2752.8
-341.625 28.7771 -2752.8
-341.625 28.7771 -2752.8
-61.7419 473.883 -1405.8
-341.625 28.7771 -2752.8
-106.786 424.028 -1407.8
-139.772 421.783 -1401.8
57.3211 290.649 -1458.8
-307.465 293.268 -1418.8
376.195 243.612 -1459.8
-580.383 260.183 -1367.8
656.726 237.119 -1495.8
-860.533 268.672 -1308.8
1495.66 409.324 -600.804
-920.328 271.005 -1308.8
1488.36 429.82 -602.804
-341.625 28.7771 -2752.8
1438.51 415.348 -606.804
-913.439 286.924 -1284.8
-81.2639 -225.377 -1497.8
-223.885 -219.154 -1474.8
-82.0449 -651.794 -1422.8
-209.266 -629.02 -1435.8
-85.0299 -1059.72 -1411.8
-176.881 -1063.06 -1386.8
-103.661 -1127.37 -1440.8
-170.283 -1141.69 -1428.8
-55.9999 -1003.29 -1407.8
-183.006 -995.763 -1386.8
