ply
format ascii 1.0
comment Created by Open3D
element vertex 66
property double x
property double y
property double z
end_header
-114.774 359.561 -1386
-94.0742 398.331 -1409
-80.0374 397.1 -1416
-68.6209 397.826 -1419
-138.084 395.18 -1417
-149.68 392.358 -1417
-161.63 390.378 -1420
-45.8671 380.683 -1435
-170.512 373.383 -1424
-87.6561 329.732 -1410
-133.323 329.83 -1408
75.8239 176.02 -1505
-283.086 195.214 -1496
319.107 115.492 -1564
-519.718 151.63 -1507
577.093 72.9661 -1630
-791.587 123.291 -1514
645.356 62.6186 -1606
-858.612 119.323 -1479
648.55 49.1834 -1605
-862.604 119.425 -1479
617.16 45.74 -1610
-828.506 112.703 -1489
-5.23217 -328.988 -1493
-181.822 -330.216 -1477
-2.33183 -693.477 -1489
-169.777 -695.945 -1480
-6.17479 -1064.58 -1567
-157.627 -1074.93 -1584
-20.6151 -1093.56 -1575
-127.006 -1112.46 -1599
7.88961 -1195.25 -1459
-170.135 -1191.29 -1460
-191.376 43.0357 -3126.07
-191.376 43.0357 -3126.07
-191.376 43.0357 -3126.07
-191.376 43.0357 -3126.07
-97.6295 407.873 -1620.07
-109.34 413.126 -1611.07
-191.376 43.0357 -3126.07
-191.376 43.0357 -3126.07
-134.007 420.227 -1526.07
-63.4908 355.796 -1568.07
-100.776 360.28 -1560.07
90.3432 210.266 -1635.07
-264.652 226.193 -1612.07
342.993 137.311 -1641.07
-526.504 193.302 -1565.07
579.694 91.9654 -1684.07
-780.909 170.141 -1544.07
654.681 73.4464 -1699.07
-843.48 178.097 -1543.07
663.129 79.8341 -1698.07
-838.551 177.763 -1546.07
627.752 76.3939 -1699.07
-810.372 170.113 -1552.07
-22.6038 -294.023 -1711.07
-180.601 -283.545 -1698.07
-31.1388 -677.9 -1654.07
-182.661 -667.851 -1631.07
-72.5068 -1066.58 -1662.07
-171.697 -1048.94 -1645.07
-78.3098 -1135.62 -1678.07
-160.732 -1143.65 -1647.07
-49.2848 -1030.25 -1656.07
-147.541 -1021.39 -1626.07
