ply
format ascii 1.0
comment Created by Open3D
element vertex 33
property double x
property double y
property double z
end_header
-419.931 -0.00280975 -1277
-434.538 39.9849 -1238
-435.792 39.9165 -1236
-438.279 39.7798 -1232
-439.168 38.0398 -1240
-445.413 36.0565 -1241
-450.209 33.9611 -1238
-473.699 17.8811 -1233
-485.746 9.93189 -1234
-425.285 -37.2855 -1281
-429.01 -38.9438 -1268
-407.579 -139.45 -997
-385.754 -113.232 -977
-195.248 -92.9496 -785
-137.124 -29.6191 -700
-171.163 -162.962 -2124
21.2775 31.0161 -575
-115.497 -117.688 -2119
0 0 0
-97.9734 -103.613 -2114
39.1355 41.2499 -549
-112.03 -128.069 -2119
29.2258 38.5013 -548
-454.323 -664.89 -1139
-451.149 -673.665 -1136
-397.736 -947.551 -1093
-445.754 -1107.92 -1236
-513.401 -1436.32 -1281
-481.557 -1526.15 -1278
-586.804 -1571.62 -1351
-523.033 -1591.55 -1289
-425.924 -1686.14 -1444
-295.236 -1596.87 -1255
