ply
format ascii 1.0
comment Created by Open3D
element vertex 33
property double x
property double y
property double z
end_header
-494.994 1.92029 -1200
-486.68 35.2695 -1217
-478.317 35.5224 -1225
-467.469 33.7637 -1232
-523.308 34.9644 -1209
-540.661 35.0807 -1214
-554.914 33.0498 -1212
-457.94 14.0332 -1243
-597.686 11.9626 -1246
-480.931 -43.1402 -1217
-527.524 -40.8472 -1210
-376.511 -231.932 -1328
-752.306 -213.932 -1330
-124.394 -311.318 -1359
-1025.42 -286.766 -1379
104.391 -362.31 -1378
-1279.72 -302.367 -1374
171.294 -375.267 -1378
-1361.37 -315.317 -1375
186.431 -374.278 -1391
208.519 -358.832 -1535
156.388 -372.55 -1384
-1325.26 -310.724 -1364
-433.648 -742.278 -1266
-607.284 -738.876 -1266
-473.012 -1179.53 -1358
-611.86 -1160.2 -1320
-499.857 -1589.22 -1376
-613.705 -1569.56 -1346
-530.455 -1666.01 -1413
-604.541 -1619.86 -1359
-387.169 -1602.42 -1251
-606.772 -1583.23 -1212
