ply
format ascii 1.0
comment Created by Open3D
element vertex 32
property double x
property double y
property double z
end_header
-607.283 1.95516 -1234
0 0 0
0 0 0
0 0 0
0 0 0
0 0 0
0 0 0
0 0 0
-588.825 6.17437 -1286
-623.339 -33.9565 -1247
-610.543 -38.9103 -1277
-810.339 -185.188 -1218
-444.025 -198.421 -1256
-1097.37 -269.913 -1278
-183.483 -271.931 -1339
0 0 0
137.392 -309.716 -1465
64.2737 -556.369 -1917
52.0555 -377.136 -1479
206.332 -299.493 -1535
0 0 0
172.089 -319.71 -1611
-683.956 -715.312 -1178
-508.017 -721.417 -1187
-712.157 -1146.31 -1276
-577.87 -1176.8 -1327
-688.087 -1552.68 -1281
-578.015 -1523 -1273
-666.638 -1592.17 -1257
-573.626 -1556.54 -1252
-662.322 -1579.16 -1274
-583.44 -1537.83 -1260
