ply
format ascii 1.0
comment Created by Open3D
element vertex 33
property double x
property double y
property double z
end_header
0 0 0
-608.269 82.2586 -1170
-593.053 83.305 -1158
-584.86 83.1933 -1156
-616.85 82.6565 -1176
-611.645 82.4616 -1173
-604.894 83.92 -1167
-532.242 58.858 -1147
-552.835 64.4181 -1149
-422.367 2.50983 -791
-426.31 3.75181 -787
-411.83 -69.8153 -925
-417.659 -91.4213 -919
-396.488 65.714 -593
-508.906 -210.824 -1008
-382.54 100.193 -470
-1302.59 -528.983 -2138
-364.556 121.695 -417
-1307.22 -519.304 -2140
-361.788 117.902 -424
-1329.59 -503.101 -2144
-370.561 108.293 -441
-1334.2 -509.069 -2141
-419.492 -620.881 -1021
-455.964 -605.596 -1010
-447.048 -1051.03 -1090
-418.522 -882.236 -958
-426.819 -1463.42 -1131
-444.086 -1332.35 -1123
-398.265 -1531.99 -1131
-420.429 -1418.63 -1150
-599.593 -1552.17 -1146
-655.632 -1615.82 -1277
