ply
format ascii 1.0
comment Created by Open3D
element vertex 33
property double x
property double y
property double z
end_header
62.3401 221.776 -1466
47.5551 253.356 -1459
41.1883 250.209 -1441
32.2575 251.022 -1429
44.3945 254.924 -1451
38.1485 252.093 -1435
32.2575 251.022 -1429
-10.5748 242.225 -1412
-13.4005 239.345 -1412
41.3089 184.341 -1452
38.3381 186.875 -1449
-69.9054 84.2822 -1223
-72.5494 94.2842 -1226
-33.8398 25.9247 -784
-52.9686 40.7571 -867
-14.3723 12.5924 -829
-26.2283 15.7554 -745
-14.4067 10.9744 -831
0 0 0
-1.98418 -11.6566 -1354
-11.0955 9.31453 -830
0.702123 -8.9781 -1355
-11.0957 10.9608 -830
-57.5109 -352.668 -1301
-65.5098 -368.888 -1299
-58.1808 -640.456 -1312
-55.9498 -661.274 -1321
-85.571 -999.407 -1389
-89.7748 -1043.07 -1389
-110.115 -1107.53 -1431
-117.832 -1161.01 -1420
51.2268 -1164.39 -1539
59.9598 -1167.71 -1467
