ply
format ascii 1.0
comment Created by Open3D
element vertex 33
property double x
property double y
property double z
end_header
-80.0673 213.517 -1392
-64.2096 247.464 -1408
-50.4324 249.153 -1418
-39.1635 249.813 -1422
-100.593 246.665 -1402
-115.217 247.85 -1408
-126.829 245.601 -1411
-28.1092 235.632 -1442
-145.518 234.132 -1428
-55.9082 185.922 -1419
-103.754 185.376 -1413
61.1791 80.4738 -1520
-238.316 96.3727 -1473
285.591 59.0215 -1577
-465.045 68.0818 -1465
511.483 87.8013 -1605
-687.329 66.5247 -1441
576.74 88.2097 -1598
-752.825 66.8866 -1428
585.005 85.1407 -1601
-761.713 66.8538 -1424
551.945 74.31 -1589
-732.432 60.5566 -1431
-5.08824 -375.561 -1443
-178.788 -377.348 -1419
-11.8556 -749.562 -1476
-157.476 -763.909 -1462
-45.0816 -1098.24 -1541
-129.521 -1086.82 -1535
-58.9064 -1113.16 -1522
-115.584 -1109.57 -1528
-55.8872 -1169.7 -1386
-112.518 -1168.2 -1382
