ply
format ascii 1.0
comment Created by Open3D
element vertex 33
property double x
property double y
property double z
end_header
-257.159 214.364 -1402
-236.512 244.596 -1379
-225.06 244.048 -1361
-221.93 243.635 -1359
-236.913 247.806 -1381
-228.702 245 -1366
-218.703 245.845 -1356
-175.64 237.759 -1346
-175.207 234.467 -1343
-225.403 178.255 -1370
-225.692 175.723 -1372
-55.1588 53.4292 -798
-111.13 59.7139 -1169
-30.5634 34.857 -742
-80.1717 18.5474 -966
3.28121 34.3208 -731
-56.9918 21.5597 -740
11.9059 32.6461 -726
-51.5649 17.301 -747
8.9616 33.8529 -721
-59.8101 20.5519 -757
4.75792 33.0482 -735
-83.521 26.0748 -960
-83.6113 -360.874 -1251
-119.126 -352.503 -1248
-99.4426 -647.681 -1254
-109.376 -634.378 -1246
-33.588 -1042.69 -1327
-52.0023 -1010.67 -1330
0.883829 -1148.26 -1390
-18.6936 -1099.34 -1376
-169.853 -1159.75 -1351
-183.01 -1161.03 -1386
