ply
format ascii 1.0
comment Created by Open3D
element vertex 33
property double x
property double y
property double z
end_header
-135.212 223.705 -1382
-146.237 245.772 -1378
-155.186 246.774 -1383
-166.187 246.573 -1381
-123.292 244.263 -1371
0 0 0
0 0 0
-179.606 229.259 -1378
0 0 0
-150.634 200.81 -1398
-124.455 203.844 -1421
-285.835 85.2749 -1381
0.723875 87.6941 -1395
-531.17 57.1308 -1398
262.794 47.9575 -1435
-749.204 61.2318 -1361
523.926 40.3631 -1426
-813.105 55.6222 -1346
603.205 50.9313 -1459
-809.03 61.0507 -1333
0 0 0
-791.636 55.3711 -1347
585.704 57.1276 -1466
-198.889 -372.694 -1334
-48.3246 -363.16 -1340
-197.337 -723.277 -1408
-38.5257 -705.579 -1410
-150.929 -1124.32 -1426
-59.9752 -1130.34 -1432
-136.179 -1174.23 -1382
-72.2607 -1177.76 -1372
-148.657 -1027.93 -1401
-41.1797 -1019.36 -1400
