ply
format ascii 1.0
comment Created by Open3D
element vertex 66
property double x
property double y
property double z
end_header
-103.528 746.383 -1581
-80.9901 773.14 -1597
-70.7397 772.982 -1597
-60.5711 773.813 -1599
-114.569 772.908 -1587
-129.26 779.582 -1600
-139.761 780.84 -1602
-40.4314 759.897 -1620
-146.162 764.714 -1601
-80.3856 713.192 -1602
-128.523 720.654 -1608
53.412 597.084 -1694
-253.877 616.427 -1672
279.665 588.239 -1720
-470.223 625.648 -1666
473.817 575.664 -1774
-686.852 635.454 -1666
549.565 547.166 -1770
-750.216 616.155 -1637
551.596 549.204 -1763
-749.676 622.927 -1634
526.509 557.655 -1770
-741.327 631.721 -1651
-15.1636 171.657 -1607
-183.365 167.186 -1588
-31.646 -209.02 -1629
-206.581 -188.755 -1644
-52.6692 -566.562 -1621
-183.743 -541.604 -1594
-61.9995 -606.465 -1591
-173.559 -586.751 -1581
-68.1356 -690.904 -1555
-186.129 -679.993 -1549
-126.229 721.392 -1754.06
-116.099 736.619 -1764.06
-105.582 738.161 -1761.06
-99.277 733.712 -1771.06
-139.862 740.872 -1754.06
-150.544 736.199 -1764.06
-197.8 -5.45491 -3387.06
-92.2743 731.303 -1768.06
-197.8 -5.45491 -3387.06
-112.823 700.821 -1757.06
-144.2 694.807 -1770.06
24.4677 615.353 -1771.06
-287.293 610.002 -1747.06
274.417 617.024 -1741.06
-506.684 601.888 -1671.06
464.232 614.05 -1783.06
-735.365 592.213 -1656.06
519.108 599.518 -1808.06
-801.847 581.403 -1655.06
-197.8 -5.45491 -3387.06
-197.8 -5.45491 -3387.06
515.136 625.354 -1776.06
-774.716 591.098 -1668.06
-51.0193 156.732 -1814.06
-208.08 147.872 -1803.06
-20.3283 -238.908 -1800.06
-189.177 -236.319 -1811.06
-17.3423 -604.175 -1774.06
-182.251 -633.274 -1815.06
-40.4083 -688.869 -1828.06
-175.733 -694.185 -1836.06
28.7897 -678.678 -1778.06
-192.128 -691.921 -1841.06
