ply
format ascii 1.0
comment Created by Open3D
element vertex 33
property double x
property double y
property double z
end_header
0 0 0
-148.046 402.613 -1946
-159.501 405.737 -1941
-171.394 406.088 -1942
-124.181 401.556 -1942
-116.549 406.14 -1945
-105.036 407.09 -1950
-198.675 382.295 -1942
0 0 0
-149.171 341.307 -1917
-123.727 345.525 -1942
-316.958 192.51 -1931
36.0229 196.988 -1954
-590.746 195.842 -1964
314.392 183.37 -2003
-855.3 191.139 -1936
556.587 176.987 -1987
-922.245 186.496 -1909
631.444 174.572 -1992
-920.804 214.75 -1904
630.427 205.642 -1973
-895.941 214.656 -1911
606.195 213.806 -1978
-203.823 -316.012 -1887
-44.39 -318.851 -1888
-191.445 -715.006 -1928
-43.1499 -712.437 -1939
-181.469 -1113.64 -1930
-37.3263 -1116.23 -1949
0 0 0
0 0 0
-162.668 -1055.16 -1927
-32.7723 -1081.3 -1942
