ply
format ascii 1.0
comment Created by Open3D
element vertex 33
property double x
property double y
property double z
end_header
0 0 0
-193.58 413.409 -1812
-189.777 413.12 -1811
-182.591 413.46 -1813
-193.58 413.409 -1812
-186.333 409.946 -1814
-178.741 409.381 -1812
-135.041 388.269 -1822
-146.077 391.967 -1821
-206.724 347.269 -1840
-206.724 347.269 -1840
-55.7582 181.189 -1577
-88.4967 162.11 -1545
0 0 0
-108.879 -76.6197 -1726
-72.1474 187.846 -1134
-126.333 -262.441 -1717
-56.1075 183.89 -1046
-130.035 -318.089 -1714
-66.5136 209.421 -1113
-140.253 -317.82 -1712
-71.3633 208.284 -1119
-140.13 -296.908 -1713
-109.482 -325.338 -1716
-99.0425 -307.813 -1717
-97.7927 -695.971 -1751
-116.99 -587.109 -1733
-54.5935 -1141.7 -1771
-55.3176 -898.144 -1742
-22.1534 -1182.89 -1689
-22.0901 -986.795 -1764
0 0 0
0 0 0
