ply
format ascii 1.0
comment Created by Open3D
element vertex 33
property double x
property double y
property double z
end_header
0 0 0
77.3481 432.204 -1992
72.9973 430.229 -1983
68.8226 429.123 -1978
72.9822 434.135 -1982
64.7535 432.561 -1975
52.6784 427.532 -1971
16.977 408.859 -1980
9.01131 404.96 -1981
0 0 0
76.2182 366.552 -1971
-34.1369 153.163 -1246
-39.2599 151.271 -1251
0.985782 134.508 -1899
-19.4527 124.792 -1263
-1.80644 133.633 -1228
-4.19502 151.137 -1210
-9.13107 138.341 -1226
-6.56743 157.409 -1202
-16.3592 156.927 -1217
-9.43838 180.857 -1264
-4.34663 126.607 -1256
-6.82374 173.516 -1248
4.70335 -295.753 -1864
-2.75931 -311.271 -1866
8.84906 -638.828 -1901
-6.83887 -685.86 -1902
-48.2631 -1016.8 -1897
-36.53 -1109.15 -1901
0 0 0
0 0 0
0 0 0
0 0 0
