ply
format ascii 1.0
comment Created by Open3D
element vertex 33
property double x
property double y
property double z
end_header
-2.64017 427.748 -1768
15.3457 445.159 -1778
29.835 446.442 -1783
40.8407 444.703 -1791
-13.4734 449.163 -1779
-24.3058 445.926 -1781
-35.0585 441.455 -1778
55.4868 416.752 -1800
-56.8221 410.242 -1788
0 0 0
0 0 0
180.385 196.433 -1833
-171.421 204.081 -1836
436.158 208.749 -1849
-432.089 201.77 -1892
697.724 228.253 -1867
-699.419 209.114 -1951
762.251 228.931 -1856
-793.591 223.2 -1985
776.778 230.928 -1870
-801.872 231.507 -1982
737.958 219.704 -1850
-758.355 220.216 -1965
86.1115 -324.107 -1768
-88.3755 -329.786 -1779
89.4792 -728.099 -1843
-87.7005 -741.658 -1845
0 0 0
-81.6136 -1129.99 -1866
0 0 0
0 0 0
0 0 0
0 0 0
