ply
format ascii 1.0
comment Created by Open3D
element vertex 66
property double x
property double y
property double z
end_header
-23.3077 224.8 -1507
-5.32025 249.817 -1529
6.961 251.289 -1538
19.2702 248.168 -1538
-39.0157 250.035 -1530
-51.4761 251.055 -1536
-63.7902 251.106 -1536
38.2991 230.013 -1563
-82.1723 232.448 -1536
-2.2466 193.555 -1525
-41.4932 192.208 -1514
113.159 75.9037 -1614
-174.844 94.7084 -1602
340.651 41.7498 -1639
-398.862 73.6153 -1604
567.589 40.0343 -1667
-627.022 66.3513 -1621
631.287 29.8234 -1657
-689.625 56.1026 -1600
636.207 26.441 -1660
-695.912 56.0665 -1597
609.773 22.9038 -1660
-671.56 52.9039 -1611
56.6199 -373.011 -1532
-113.808 -375.783 -1528
50.667 -751.155 -1555
-93.1124 -766.31 -1569
37.9357 -1098.62 -1631
-65.1054 -1087.5 -1621
19.3698 -1115.78 -1614
-54.2356 -1116.14 -1614
14.8744 -1176.01 -1472
-58.0664 -1170.18 -1464
-15.5911 207.855 -1671.27
-3.49308 232.137 -1682.27
6.09092 235.44 -1682.27
19.3289 236.329 -1677.27
-28.7541 229.18 -1679.27
-38.1754 229.419 -1677.27
-50.6436 230.094 -1672.27
44.2019 220.587 -1653.27
-65.9875 216.117 -1656.27
-132.604 -7.57922 -3264.27
-27.4961 175.113 -1703.27
136.441 70.6914 -1680.27
-158.835 80.2189 -1665.27
390.494 44.3379 -1649.27
-402.875 61.1123 -1603.27
603.28 41.7295 -1680.27
-611.973 52.3313 -1600.27
660.172 28.2642 -1699.27
-681.882 49.1503 -1608.27
667.589 31.6602 -1700.27
-132.604 -7.57922 -3264.27
642.544 28.2262 -1695.27
-657.388 55.8816 -1605.27
38.7989 -387.429 -1723.27
-111.488 -384.578 -1715.27
38.8359 -721.489 -1671.27
-109.84 -707.931 -1661.27
10.3739 -1138 -1654.27
-96.4951 -1147.18 -1644.27
-0.175081 -1205.49 -1677.27
-82.8531 -1192.94 -1717.27
-6.67708 -1135.82 -1628.27
-125.906 -1177.93 -1571.27
