ply
format ascii 1.0
comment Created by Open3D
element vertex 66
property double x
property double y
property double z
end_header
-80.0673 213.517 -1392
-64.2096 247.464 -1408
-50.4324 249.153 -1418
-39.1635 249.813 -1422
-100.593 246.665 -1402
-115.217 247.85 -1408
-126.829 245.601 -1411
-28.1092 235.632 -1442
-145.518 234.132 -1428
-55.9082 185.922 -1419
-103.754 185.376 -1413
61.1791 80.4738 -1520
-238.316 96.3727 -1473
285.591 59.0215 -1577
-465.045 68.0818 -1465
511.483 87.8013 -1605
-687.329 66.5247 -1441
576.74 88.2097 -1598
-752.825 66.8866 -1428
585.005 85.1407 -1601
-761.713 66.8538 -1424
551.945 74.31 -1589
-732.432 60.5566 -1431
-5.08824 -375.561 -1443
-178.788 -377.348 -1419
-11.8556 -749.562 -1476
-157.476 -763.909 -1462
-45.0816 -1098.24 -1541
-129.521 -1086.82 -1535
-58.9064 -1113.16 -1522
-115.584 -1109.57 -1528
-55.8872 -1169.7 -1386
-112.518 -1168.2 -1382
-82.0583 225.666 -1576.57
-71.0333 247.733 -1580.57
-62.0843 248.735 -1575.57
-51.0833 248.534 -1577.57
-93.9783 246.224 -1587.57
-217.27 1.96142 -2958.57
-217.27 1.96142 -2958.57
-37.6643 231.22 -1580.57
-217.27 1.96142 -2958.57
-66.6363 202.771 -1560.57
-92.8153 205.805 -1537.57
68.5647 87.2363 -1577.57
-217.994 89.6555 -1563.57
313.9 59.0922 -1560.57
-480.064 49.9189 -1523.57
531.934 63.1932 -1597.57
-741.196 42.3245 -1532.57
595.835 57.5836 -1612.57
-820.475 52.8927 -1499.57
591.76 63.0121 -1625.57
-217.27 1.96142 -2958.57
574.366 57.3325 -1611.57
-802.974 59.089 -1492.57
-18.3813 -370.733 -1624.57
-168.946 -361.199 -1618.57
-19.9333 -721.316 -1550.57
-178.745 -703.618 -1548.57
-66.3413 -1122.36 -1532.57
-157.295 -1128.38 -1526.57
-81.0913 -1172.27 -1576.57
-145.01 -1175.8 -1586.57
-68.6133 -1025.97 -1557.57
-176.091 -1017.4 -1558.57
