ply
format ascii 1.0
comment Created by Open3D
element vertex 66
property double x
property double y
property double z
end_header
-146.133 219.347 -2050
-131.011 250.318 -2068
-123.032 250.881 -2073
-115.016 251.448 -2078
-163.683 249.784 -2062
-180.648 246.333 -2067
-189.411 246.988 -2072
-98.8619 235.895 -2089
-209.889 226.043 -2070
-126.111 187.271 -2060
-165.592 185.54 -2039
5.40705 45.6823 -2161
-311.861 66.2073 -2116
220.473 -5.88148 -2204
-561.223 58.1747 -2097
416.148 -19.5747 -2248
-757.045 59.1649 -2093
486.906 -37.8522 -2253
-819.024 46.0033 -2069
492.453 -33.3822 -2257
-818.259 50.2718 -2067
467.564 -28.7033 -2250
-800.822 54.5701 -2071
-70.0151 -369.415 -2086
-248.596 -367.52 -2066
-98.0084 -712.474 -2091
-247.744 -713.021 -2112
-109.778 -1083.45 -2153
-247.327 -1112.76 -2171
-126.228 -1139.07 -2186
-237.038 -1141.21 -2152
-116.468 -1191.38 -2059
-228.326 -1198.25 -2036
-343.444 5.69423 -4349.01
-343.444 5.69423 -4349.01
-343.444 5.69423 -4349.01
-343.444 5.69423 -4349.01
-343.444 5.69423 -4349.01
-343.444 5.69423 -4349.01
-343.444 5.69423 -4349.01
-343.444 5.69423 -4349.01
-343.444 5.69423 -4349.01
-173.872 195.693 -2261.01
-343.444 5.69423 -4349.01
-28.0506 67.5368 -2238.01
-323.179 81.1898 -2194.01
227.399 21.3095 -2249.01
-551.731 43.8439 -2134.01
421.926 8.48861 -2309.01
-773.051 22.0198 -2127.01
476.191 -4.15058 -2337.01
-841.662 8.64524 -2129.01
472.926 4.27075 -2345.01
-841.671 22.0755 -2129.01
454.467 8.46995 -2333.01
-343.444 5.69423 -4349.01
-93.3226 -393.38 -2274.01
-252.029 -386.714 -2255.01
-90.6196 -770.632 -2246.01
-233.703 -780.794 -2210.01
-123.781 -1182.74 -2252.01
-229.094 -1183.58 -2235.01
-343.444 5.69423 -4349.01
-343.444 5.69423 -4349.01
-120.001 -1196.72 -2267.01
-219.917 -1192.16 -2240.01
