ply
format ascii 1.0
comment Created by Open3D
element vertex 33
property double x
property double y
property double z
end_header
-186.451 394.243 -1712
0 0 0
0 0 0
0 0 0
0 0 0
0 0 0
0 0 0
0 0 0
0 0 0
-202.63 364.392 -1705
-171.552 364.327 -1707
-358.41 246.217 -1671
-12.4728 232.33 -1671
-604.796 228.109 -1727
247.685 210.251 -1757
-865.245 212.416 -1743
523.631 225.307 -1782
-934.499 202.363 -1732
613.729 228.921 -1793
0 0 0
620.608 233.826 -1801
-919.36 206.123 -1737
589.02 222.885 -1779
-250.35 -287.635 -1593
-79.4667 -277.273 -1602
-233.095 -671.6 -1661
-73.1272 -678.058 -1687
-199.245 -1092.86 -1673
-67.5145 -1116.32 -1686
-186.571 -1156.33 -1630
-89.589 -1171.04 -1642
0 0 0
0 0 0
