ply
format ascii 1.0
comment Created by Open3D
element vertex 33
property double x
property double y
property double z
end_header
-129.991 398.281 -1702
-119.629 429.171 -1697
-110.491 433.855 -1716
0 0 0
-158.41 435.087 -1704
-172.153 434.809 -1702
-183.591 429.182 -1679
-107.468 414.742 -1727
-219.388 421.814 -1719
-119.852 360.988 -1711
-156.195 360.722 -1691
4.5372 257.688 -1801
-346.512 222.084 -1755
237.862 242.967 -1845
-597.575 218.304 -1707
509.523 254.802 -1900
-871.734 211.482 -1662
0 0 0
-934.068 208.495 -1611
0 0 0
-945.993 208.773 -1609
571.722 247.08 -1889
-915.507 201.213 -1617
-29.9105 -261.227 -1712
-211.581 -275.256 -1704
0 0 0
-195.106 -704.814 -1843
-40.6237 -1077.55 -1908
-140.867 -1065.86 -1911
-61.5548 -1112.19 -1897
-116.761 -1108.25 -1915
12.9256 -1165.2 -1753
-157.584 -1166.95 -1751
