ply
format ascii 1.0
comment Created by Open3D
element vertex 33
property double x
property double y
property double z
end_header
-234.329 394.343 -1757
-217.863 425.666 -1735
-209.711 426.967 -1726
-201.988 428.986 -1720
-213.927 424.857 -1732
-209.711 426.967 -1726
-198.391 425.275 -1720
-144.625 421.438 -1708
-148.405 418.861 -1712
-213.04 363.484 -1734
-209.498 363.424 -1734
0 0 0
-70.8817 188.075 -1435
-162.101 154.435 -924
-63.5644 38.7882 -1544
-150.47 154.097 -947
-153.504 -90.5281 -1549
-156.249 152.28 -935
-166.258 -112.402 -1551
-152.112 153.804 -933
-173.465 -106.844 -1560
-151.707 153.439 -955
-173.835 -91.4823 -1564
-85.7617 -254.51 -1543
-73.8647 -249.918 -1554
-75.1257 -622.104 -1584
-84.7086 -586.79 -1586
-41.2893 -1085.52 -1722
-44.122 -997.226 -1709
4.92216 -1149.61 -1722
1.03779 -1102.48 -1765
-213.124 -1151.94 -1672
-226.566 -1160.06 -1848
