ply
format ascii 1.0
comment Created by Open3D
element vertex 33
property double x
property double y
property double z
end_header
-36.8686 400.42 -1699
-51.0908 435.48 -1710
-51.0908 435.48 -1710
-47.8173 437.245 -1717
-64.893 435.051 -1708
-75.4713 436.144 -1712
-85.8532 435.974 -1711
-78.3068 415.413 -1701
-140.601 416.317 -1702
-43.6939 362.318 -1703
-64.291 362.412 -1703
0 0 0
-98.0756 132.678 -965
-94.6697 -4.26858 -1603
-95.3659 137.575 -919
-15.9183 -165.701 -1688
-89.6922 137.477 -958
5.80097 -282.035 -2307
-81.0361 137.147 -970
14.9187 -275.953 -2295
-71.256 140.928 -943
5.81902 -259.852 -2316
-74.2857 139.293 -958
-114.372 -268.715 -1551
-145.199 -268.154 -1546
-109.688 -586.158 -1564
-133.451 -620.08 -1567
-146.605 -963.918 -1679
-165.213 -1081.34 -1680
-178.909 -1024.15 -1686
-204.486 -1138.78 -1668
-15.3339 -1158.45 -1838
0.999054 -1156.92 -1652
