ply
format ascii 1.0
comment Created by Open3D
element vertex 66
property double x
property double y
property double z
end_header
0 0 0
-104.664 396.569 -1481
-93.8283 401.777 -1501
-82.486 402.964 -1518
-150.327 397.811 -1483
-164.332 395.151 -1472
-178.425 396.786 -1489
-71.1086 392.859 -1542
-199.661 381.275 -1514
0 0 0
-147.251 327.516 -1463
51.3736 207.375 -1583
-311.206 192.337 -1544
293.484 225.441 -1557
-581.989 226.921 -1512
544.91 246.418 -1567
-837.096 259.668 -1478
596.323 244.789 -1543
-924.576 263.703 -1448
604.813 247.526 -1537
-932.512 267.373 -1447
587.808 242.045 -1549
-903.722 259.142 -1448
-41.8513 -272.081 -1519
-217.021 -264.147 -1499
-63.2215 -689.26 -1603
-235.416 -696.357 -1591
-72.9506 -1149.62 -1721
-217.629 -1105.4 -1661
-92.6269 -1135.58 -1641
-190.829 -1144.37 -1641
-37.9695 -1196.41 -1491
-253.349 -1204.31 -1500
-288.072 22.9905 -3365.31
-288.072 22.9905 -3365.31
-288.072 22.9905 -3365.31
-288.072 22.9905 -3365.31
-288.072 22.9905 -3365.31
-288.072 22.9905 -3365.31
-288.072 22.9905 -3365.31
-288.072 22.9905 -3365.31
-194.353 418.534 -1560.31
-134.584 365.603 -1623.31
-164.71 366.148 -1600.31
58.5779 209.178 -1678.31
-333.257 202.363 -1654.31
325.905 220.527 -1586.31
-562.991 219.979 -1569.31
610.337 256.237 -1547.31
-838.535 256.582 -1519.31
681.094 245.492 -1561.31
-919.401 239.381 -1519.31
1375.42 443.633 -287.307
-921.311 259.19 -1515.31
1326.36 446.282 -305.307
-288.072 22.9905 -3365.31
-55.1071 -274.448 -1734.31
-229.38 -269.225 -1715.31
-68.1171 -687.007 -1676.31
-206.316 -693.566 -1652.31
-85.5361 -1130.16 -1683.31
-184.399 -1137.42 -1659.31
-91.6021 -1174.2 -1728.31
-174.584 -1172.55 -1711.31
-82.2451 -1138.58 -1693.31
-226.479 -1175.75 -1654.31
