ply
format ascii 1.0
comment Created by Open3D
element vertex 33
property double x
property double y
property double z
end_header
-318.615 454.745 -1298
0 0 0
-281.051 476.599 -1274
-272.106 475.037 -1271
0 0 0
-278.211 479.011 -1273
-271.823 477.213 -1269
-216.091 445.765 -1269
-222.056 452.432 -1271
-298.254 407.372 -1280
-300.687 409.719 -1278
-106.292 169.522 -762
-107.168 134.9 -654
-86.551 80.5993 -482
-97.7729 68.3638 -500
-126.726 77.5256 -524
-156.2 87.9805 -584
-151.059 70.3706 -600
-163.884 85.7499 -567
-146.384 84.2486 -585
-162.976 87.0509 -568
-146.384 84.2486 -585
-161.612 86.4031 -572
-174.47 -244.443 -1167
-191.141 -229.9 -1153
-171.897 -565.147 -1144
-200.392 -542.496 -1141
-168 -1074.37 -1338
-164.671 -1018.74 -1329
-129.586 -1155.28 -1343
-129.874 -1128.43 -1362
-360.974 -1173.49 -1286
-352.189 -1162.27 -1337
