ply
format ascii 1.0
comment Created by Open3D
element vertex 33
property double x
property double y
property double z
end_header
-100.843 439.879 -1295
-84.1825 472.736 -1323
-71.082 471.191 -1336
-54.9525 472.219 -1348
-122.372 477.617 -1318
-136.693 477.13 -1324
-149.98 475.69 -1319
-49.023 443.895 -1344
-175.41 455.779 -1328
-82.3489 400.834 -1308
-127.7 402.905 -1303
46.5457 256.562 -1427
-307.41 261.882 -1386
293.785 206.435 -1510
-566.045 226.838 -1385
568.455 178.059 -1600
-819.917 221.388 -1346
644.157 155.362 -1627
-889.634 225.302 -1323
657.305 156.876 -1641
-898.945 228.385 -1319
618.965 156.695 -1610
-866.187 221.691 -1329
-20.4555 -246.662 -1317
-189.266 -248.827 -1305
-27.4441 -601.11 -1332
-159.532 -608.124 -1320
-46.4411 -1076.05 -1459
-144.479 -1079.31 -1453
-59.3813 -1099.05 -1428
-129.824 -1106.85 -1423
-43.8185 -1174.9 -1292
-126.137 -1168.99 -1282
