ply
format ascii 1.0
comment Created by Open3D
element vertex 33
property double x
property double y
property double z
end_header
29.0652 206.929 -606
17.5812 221.408 -594
16.3668 220.423 -595
15.1321 220.414 -595
13.7485 220.482 -588
8.88993 219.869 -590
5.19955 219.112 -588
-3.39437 212.757 -600
-16.8568 228.427 -640
46.7931 413.711 -1323
0 0 0
-30.3384 189.641 -900
-87.6275 206.893 -970
-48.2805 1.53307 -1173
-55.9381 193.218 -873
-11.1341 -151.137 -1178
12.8431 217.277 -605
7.69177 -213.001 -1176
26.9253 223.277 -581
10.0292 -191.382 -1176
24.7153 227.372 -555
21.8962 -194.62 -1181
23.5755 222.276 -589
-22.9122 -236.011 -1170
-77.5931 -259.076 -1174
-35.5957 -541.708 -1133
-63.2658 -588.171 -1140
-102.402 -1011.56 -1285
-110.653 -1059.76 -1296
-140.711 -1111.11 -1296
-154.425 -1154.17 -1285
68.8143 -1172.29 -1418
62.2167 -1163.3 -1322
