ply
format ascii 1.0
comment Created by Open3D
element vertex 33
property double x
property double y
property double z
end_header
0 0 0
0 0 0
0 0 0
-189.397 449.781 -1309
-130.919 442.183 -1300
0 0 0
0 0 0
-211.149 439.191 -1328
-93.1284 437.832 -1342
-166.363 399.963 -1358
-130.999 399.739 -1370
-332.028 256.614 -1308
25.2345 257.843 -1357
-591.763 178.973 -1300
275.233 224.313 -1427
-807.615 117.725 -1258
561.836 230.799 -1499
-865.807 95.6174 -1242
617.857 230.653 -1483
-866.014 101.322 -1242
616.295 237.52 -1487
-852.545 101.749 -1255
593.648 232.887 -1483
-209.671 -265.01 -1263
-59.202 -261.175 -1294
-183.769 -678.347 -1334
-62.1092 -649.389 -1337
-170.676 -1088.25 -1361
-103.256 -1097.3 -1371
-158.303 -1157.17 -1332
-113.73 -1172.98 -1342
-166.97 -1007.63 -1360
-120.93 -1050.94 -1416
