ply
format ascii 1.0
comment Created by Open3D
element vertex 66
property double x
property double y
property double z
end_header
-170.589 218.271 -1714
-155.838 253.022 -1739
-149.007 253.253 -1741
-138.978 254.041 -1747
-189.574 248.104 -1727
-200.171 248.362 -1728
-211.649 249.633 -1736
-122.102 241.26 -1758
-229.095 235.723 -1736
-148.91 193.872 -1745
-192.199 191.871 -1724
-13.58 78.6475 -1830
-339.627 91.9593 -1784
200.417 65.2055 -1854
-567.986 78.4684 -1765
388.245 72.234 -1925
-770.648 80.7209 -1768
464.897 61.0249 -1927
-826.044 72.8943 -1741
473.276 65.002 -1928
-828.939 76.5268 -1738
448.763 68.7359 -1927
-812.247 77.0517 -1757
-80.074 -332.13 -1753
-261.007 -339.846 -1725
-89.381 -683.921 -1731
-257.074 -705.141 -1753
-112.21 -1098.27 -1748
-252.693 -1101.78 -1736
-131.65 -1144.4 -1726
-248.106 -1125.99 -1720
-127.346 -1210.81 -1689
-241.131 -1207.86 -1655
-188.822 250.55 -1916.34
-178.038 275.503 -1915.34
-166.591 277.071 -1905.34
-160.035 272.846 -1910.34
-203.571 273.248 -1929.34
-327.246 18.4184 -3658.34
-327.246 18.4184 -3658.34
-145.34 259.747 -1903.34
-327.246 18.4184 -3658.34
-176.365 228.974 -1891.34
-201.242 228.699 -1892.34
-29.3047 108.61 -1904.34
-331.736 113.294 -1865.34
214.097 103.931 -1892.34
-552.564 88.1647 -1783.34
401.817 106.64 -1958.34
-771.544 78.7631 -1750.34
455.527 88.1199 -1991.34
-845.688 67.2883 -1759.34
460.228 98.8736 -1990.34
-845.5 82.7064 -1760.34
441.416 102.697 -1978.34
-814.925 86.072 -1769.34
-99.7797 -351.606 -1923.34
-257.818 -344.971 -1911.34
-96.5387 -714.416 -1915.34
-254.43 -702.023 -1896.34
-76.9527 -1147.58 -1900.34
-276.96 -1151.3 -1914.34
-97.6697 -1198.15 -1968.34
-266.555 -1205.2 -1992.34
-66.4307 -1167.11 -1887.34
-332.196 -1184.3 -1948.34
