ply
format ascii 1.0
comment Created by Open3D
element vertex 66
property double x
property double y
property double z
end_header
-82.3991 379.772 -1582
-73.9736 415.194 -1603
-67.5852 415.92 -1606
-58.1024 414.761 -1615
-108.591 413.993 -1584
-125.097 412.133 -1589
-137.767 408.173 -1586
-60.6858 390.657 -1600
-177.921 385.582 -1601
-70.3449 348.284 -1605
-107.747 340.531 -1583
54.5139 179.834 -1683
-318.679 191.873 -1650
311.07 127.719 -1735
-555.126 160.557 -1631
571.54 122.296 -1768
-809.95 158.182 -1610
656.177 113.464 -1784
-875.04 156.195 -1563
660.297 120.267 -1773
-881.205 159.493 -1559
628.385 122.752 -1762
-851.611 152.868 -1573
-38.7169 -324.266 -1641
-215.003 -328.081 -1617
-30.2807 -680.234 -1655
-222.99 -682.995 -1633
-41.2535 -1061.51 -1730
-232.658 -1062.08 -1713
-74.6122 -1143.94 -1774
-204.939 -1164.36 -1791
8.47486 -1187.13 -1617
-260.721 -1189.84 -1600
-122.829 355.3 -1751.17
-316.742 8.49055 -3327.17
-316.742 8.49055 -3327.17
-316.742 8.49055 -3327.17
-137.392 380.309 -1770.17
-316.742 8.49055 -3327.17
-316.742 8.49055 -3327.17
-68.0628 368.779 -1755.17
-162.811 364.205 -1767.17
-102.159 327.181 -1712.17
-130.966 331.436 -1705.17
48.9802 184.439 -1797.17
-292.413 199.133 -1750.17
309.774 129.001 -1801.17
-548.61 164.649 -1655.17
567.791 103.157 -1830.17
-806.05 151.312 -1606.17
641.289 87.2553 -1845.17
-887.79 161.409 -1586.17
640.801 93.8689 -1846.17
-898.485 162.341 -1577.17
611.555 93.6274 -1839.17
-865.229 148.556 -1608.17
-66.4618 -285.351 -1854.17
-215.373 -277.885 -1833.17
-50.3728 -678.153 -1821.17
-226.902 -662.878 -1792.17
-67.7198 -1097.82 -1814.17
-224.153 -1055.57 -1816.17
-84.8518 -1185.24 -1819.17
-213.759 -1149.99 -1791.17
-30.3468 -1068.09 -1814.17
-154.261 -1079.51 -1779.17
