ply
format ascii 1.0
comment Created by Open3D
element vertex 33
property double x
property double y
property double z
end_header
-46.5286 208.833 -1480
-23.2441 242.205 -1501
-14.1914 238.501 -1497
-2.21894 236.236 -1502
-64.9109 243.764 -1491
-77.1839 244.808 -1497
-89.325 245.209 -1499
9.99821 228.813 -1534
-105.273 235.275 -1513
-23.2602 179.267 -1508
-68.0923 184.59 -1501
93.0476 78.3902 -1600
-198.538 92.358 -1560
324.282 35.1671 -1642
-423.662 45.7419 -1534
565.421 16.2331 -1694
-641.604 21.1769 -1514
631.757 5.84872 -1699
-700.092 17.8681 -1484
644.373 9.45389 -1712
-708.333 21.0821 -1486
608.597 5.79578 -1688
-683.044 18.0008 -1502
28.5091 -373.407 -1521
-142.774 -376.671 -1504
27.6111 -742.773 -1570
-126.398 -761.242 -1565
-2.72385 -1100.45 -1634
-94.9359 -1092.84 -1628
-21.0122 -1110.95 -1607
-80.4809 -1122.86 -1623
-16.4813 -1166.98 -1473
-85.9475 -1168.37 -1467
