ply
format ascii 1.0
comment Created by Open3D
element vertex 33
property double x
property double y
property double z
end_header
-205.024 213.55 -1462
-185.513 239.665 -1423
-178.456 237.898 -1413
-172.137 239.863 -1408
-181.589 238.276 -1415
-178.497 240.797 -1413
-172.544 243.271 -1411
-128.947 235.787 -1404
-128.884 238.49 -1403
-173.204 178.63 -1423
-173.783 176.367 -1428
-55.2637 78.3356 -1171
0 0 0
-19.0338 15.9214 -753
0 0 0
4.98757 4.06495 -771
-96.3225 -40.2108 -1319
6.42407 5.51417 -760
-83.0784 -58.4636 -1317
4.79367 8.31536 -741
-96.4816 -48.1535 -1321
1.91637 7.07666 -766
-107.187 -45.6137 -1323
-49.6052 -347.596 -1303
-57.4502 -339.085 -1302
-60.1163 -625.788 -1295
-54.8493 -617.702 -1305
-11.8147 -1032.02 -1353
-11.6741 -982.133 -1355
24.3457 -1153.46 -1402
20.2664 -1068.26 -1377
-161.06 -1162.23 -1449
-157.919 -1158.74 -1501
