ply
format ascii 1.0
comment Created by Open3D
element vertex 33
property double x
property double y
property double z
end_header
-62.1782 217.784 -1500
-77.167 250.749 -1496
-79.7957 249.593 -1489
-85.3934 251.485 -1482
-79.5459 251.786 -1484
-85.3934 251.485 -1482
-90.9195 250.337 -1475
-136.351 241.075 -1453
-142.093 238.003 -1452
-79.8785 184.147 -1497
-82.3874 186.053 -1488
0 0 0
-156.589 77.8134 -1091
-110.692 21.6383 -857
0 0 0
-100.274 22.5432 -828
-133.554 18.3069 -859
-172.515 1.81122 -1379
-139.435 15.1372 -874
0 0 0
-120.701 23.9882 -819
0 0 0
-123.101 21.4177 -847
-157.984 -354.472 -1367
-182.926 -370.935 -1361
-150.256 -655.302 -1387
-161.603 -698.516 -1397
-180.093 -1009.64 -1466
-208.425 -1092.97 -1505
-208.798 -1108.91 -1501
-235.931 -1167.53 -1493
-50.4275 -1164.75 -1586
-48.7328 -1171.75 -1510
