ply
format ascii 1.0
comment Created by Open3D
element vertex 33
property double x
property double y
property double z
end_header
-187.114 195.77 -1487
-194.469 220.401 -1449
-204.026 221.286 -1454
-212.093 223.463 -1448
-170.77 216.995 -1448
-161.637 216.444 -1445
0 0 0
-228.259 210.576 -1439
0 0 0
-198.382 171.345 -1483
-175.893 172.612 -1496
-337.63 77.0823 -1430
-53.8679 82.3619 -1447
-589.584 50.6867 -1455
197.041 47.2652 -1513
-799.57 32.8122 -1406
420.059 32.8512 -1515
-852.952 20.4553 -1381
503.939 43.2104 -1540
-858.58 29.8618 -1390
506.6 49.7986 -1548
-831.085 26.5832 -1389
470.724 39.3856 -1520
-250.106 -384.164 -1370
-95.0057 -372.562 -1384
-239.267 -751.844 -1410
-97.0195 -728.394 -1418
-204.845 -1132.29 -1384
-115.323 -1139.61 -1388
-187.177 -1174.39 -1316
-119.371 -1173.88 -1326
-200.111 -1106.31 -1417
-110.982 -1079.87 -1401
