ply
format ascii 1.0
comment Created by Open3D
element vertex 66
property double x
property double y
property double z
end_header
-61.4399 31.6597 -1652
-45.8425 62.2418 -1681
-39.213 62.3115 -1683
-25.8933 59.0682 -1686
-79.1079 62.1617 -1678
-89.2294 62.2484 -1680
-99.3812 62.3366 -1682
-5.84741 45.921 -1695
-116.603 49.1893 -1689
-42.1055 -1.12779 -1666
-84.8244 2.17026 -1660
91.8916 -113.135 -1760
-220.245 -90.9946 -1731
307.414 -127.388 -1797
-444.106 -85.2686 -1727
522.09 -135.37 -1880
-661.173 -81.7009 -1761
594.286 -144.75 -1889
-724.404 -85.0496 -1737
599.957 -140.385 -1881
-727.964 -77.7524 -1736
574.079 -134.981 -1864
-704.082 -81.1643 -1737
25.1628 -527.722 -1692
-150.268 -533.544 -1671
19.3057 -888.691 -1699
-164.886 -891.431 -1658
4.97347 -1329.33 -1657
-152.181 -1321.03 -1656
-10.8091 -1368.76 -1650
-145.463 -1359.18 -1655
4.91025 -1404.48 -1584
-167.679 -1400.34 -1554
-82.9735 53.4215 -1830.45
-72.2189 77.6756 -1821.45
-62.4793 77.2887 -1830.45
-51.4313 77.849 -1818.45
-96.2015 77.6406 -1821.45
-167.127 0.17014 -3543.45
-167.127 0.17014 -3543.45
-37.5563 57.3498 -1816.45
-167.127 0.17014 -3543.45
-72.5498 29.6845 -1826.45
-99.3511 29.8929 -1813.45
73.3097 -97.5139 -1818.45
-230.639 -91.4179 -1792.45
319.737 -85.8425 -1808.45
-461.113 -96.2863 -1714.45
506.515 -91.8646 -1872.45
-684.487 -101.372 -1721.45
566.989 -108.456 -1905.45
-747.029 -116.853 -1724.45
569.031 -98.3312 -1900.45
-749.749 -106.148 -1715.45
545.858 -94.5486 -1899.45
-728.795 -101.998 -1718.45
4.15272 -555.275 -1874.45
-154.227 -549.558 -1863.45
17.8047 -933.905 -1880.45
-146.052 -941.313 -1860.45
58.2887 -1384.01 -1856.45
-160.173 -1372.01 -1861.45
33.6057 -1405.34 -1966.45
-136.752 -1391.11 -1921.45
123.676 -1392.15 -1895.45
-156.176 -1378.6 -1867.45
