ply
format ascii 1.0
comment Created by Open3D
element vertex 33
property double x
property double y
property double z
end_header
-134.316 217.54 -1996
-148.076 248.448 -2018
-158.867 246.431 -2001
-166.788 242.327 -2000
0 0 0
0 0 0
0 0 0
-178.664 230.197 -1999
0 0 0
-146.271 197.657 -1997
0 0 0
-300.329 66.9233 -2010
9.18168 79.8012 -2046
-540.459 39.0245 -1988
226.795 62.4022 -2138
-735.57 18.7531 -1937
0 0 0
-788.956 -5.34336 -1904
535.834 24.796 -2165
-791.33 6.60949 -1899
529.574 33.4404 -2158
-771.223 14.5667 -1904
0 0 0
-221.487 -390.667 -1969
-62.6414 -383.343 -1981
-229.306 -766.393 -1967
-61.7929 -789.457 -2011
-231.661 -1174.04 -1985
-59.7555 -1162.63 -1974
-199.881 -1245.65 -1892
-68.7701 -1224.79 -1960
0 0 0
-74.0535 -1209.1 -1997
