ply
format ascii 1.0
comment Created by Open3D
element vertex 33
property double x
property double y
property double z
end_header
-39.9889 232.587 -2061
-55.5527 257.335 -2027
-59.5398 257.091 -2025
-63.5506 256.975 -2024
-59.5398 257.091 -2025
-63.5506 256.975 -2024
-67.5247 256.732 -2022
-95.8146 248.8 -2023
-104.089 245.241 -2027
-47.5656 197.112 -2036
-51.594 197.022 -2035
-116.418 74.4339 -1906
0 0 0
0 0 0
-128.789 42.1863 -1447
-123.775 53.212 -1607
0 0 0
-124.592 44.8188 -1538
0 0 0
0 0 0
0 0 0
0 0 0
0 0 0
-118.94 -349.469 -1927
-180.029 -347.881 -1915
-128.887 -694.047 -1898
-177.773 -681.319 -1872
-124.528 -1056.42 -1922
-169.739 -1042.21 -1858
-132.659 -1092.09 -1904
-181.421 -1075.73 -1838
-60.4434 -1180.42 -1995
0 0 0
