ply
format ascii 1.0
comment Created by Open3D
element vertex 33
property double x
property double y
property double z
end_header
-237.761 209.046 -2024
-217.189 241.049 -2020
-213.855 241.85 -2027
-209.116 237.02 -2021
-221.153 240.965 -2019
-217.117 245.008 -2019
-213.468 245.458 -2023
-171.609 223.425 -2011
-175.873 231.782 -2013
-221.425 176.557 -2026
-225.392 176.496 -2025
0 0 0
0 0 0
-63.9142 18.7111 -1416
-156.36 98.4539 -1929
-50.5738 1.77727 -1360
-168.894 160.433 -2031
0 0 0
-143.729 135.327 -2021
0 0 0
-144.098 139.705 -2026
0 0 0
-156.689 136.104 -2032
-122.435 -356.116 -1920
-153.454 -360.345 -1920
-117.72 -709.737 -1906
-135.847 -697.227 -1883
-116.328 -1053.58 -1846
-132.314 -1031.73 -1850
-93.1176 -1110.96 -1851
-89.8637 -1092.53 -1880
0 0 0
-219.357 -1181.44 -1944
