ply
format ascii 1.0
comment Created by Open3D
element vertex 33
property double x
property double y
property double z
end_header
0 0 0
0 0 0
0 0 0
0 0 0
0 0 0
0 0 0
0 0 0
0 0 0
0 0 0
-310.001 369.012 -1716
-273.956 368.725 -1736
-475.694 218.759 -1624
-98.1739 217.404 -1711
-751.709 192.995 -1628
157.998 177.216 -1789
-1017.98 188.226 -1590
407.87 144.274 -1848
-1083.66 181.903 -1571
481.092 129.966 -1846
-1095.3 197.068 -1573
474.069 133.851 -1849
-1060.82 191.791 -1571
444.103 136.473 -1838
-356.704 -309.818 -1592
-169.203 -301.903 -1624
-366.28 -686.432 -1643
-188.536 -653.58 -1678
-301.775 -1127.81 -1679
-217.036 -1110.34 -1691
-304.3 -1202.93 -1663
-209.606 -1172.77 -1666
-300.035 -1106.07 -1676
-182.723 -1119.18 -1738
