ply
format ascii 1.0
comment Created by Open3D
element vertex 33
property double x
property double y
property double z
end_header
-227.957 224.097 -883
-200.527 228.05 -837
-195.519 226.265 -831
-189.033 224.685 -826
-206.014 230.105 -837
-204.452 230.301 -838
0 0 0
-167.727 216.584 -854
-181.54 220.832 -833
-224.369 212.627 -935
-233.701 214.294 -932
-190.509 176.462 -1141
-191.842 175.574 -1135
-218.007 164.98 -1247
-223.159 19.877 -1494
-210.435 196.293 -975
-299.627 -111.376 -1523
-228.262 206.726 -944
-310.328 -141.312 -1512
-223.086 213.238 -938
-321.359 -151.346 -1519
-218.333 210.305 -953
-314.089 -141.632 -1515
-252.331 -263.244 -1508
-234.853 -258.047 -1516
-270.79 -627.254 -1510
-257.706 -607.374 -1515
-228.386 -1102.73 -1656
-237.642 -1056.14 -1657
-172.492 -1192.41 -1675
-194.091 -1148.63 -1676
0 0 0
-416.135 -1179.05 -1657
