ply
format ascii 1.0
comment Created by Open3D
element vertex 33
property double x
property double y
property double z
end_header
-127.095 403.465 -1709
-139.435 429.976 -1685
-142.959 430.281 -1686
-142.959 430.281 -1686
-149.987 434.219 -1687
-156.885 434.328 -1687
-166.746 433.212 -1682
-176.057 420.675 -1674
-210.4 414.492 -1675
-130.546 368.857 -1714
-140.271 370.59 -1705
-122.706 131.996 -944
0 0 0
-201.581 56.3426 -1513
-158.133 106.966 -939
-193.071 -85.478 -1567
-148.482 108.189 -951
-189.573 -132.115 -1562
-157.154 107.068 -994
-182.488 -119.084 -1556
-148.482 108.189 -951
-186.115 -100.73 -1561
-143.79 108.009 -933
-208.041 -268.17 -1523
-229.307 -270.965 -1519
-200.558 -614.91 -1549
-230.728 -630.45 -1549
-261.804 -1070.92 -1663
-284.294 -1097.06 -1649
-298.29 -1145.09 -1646
-325.016 -1182.35 -1653
0 0 0
-105.001 -1185.91 -1641
