ply
format ascii 1.0
comment Created by Open3D
element vertex 33
property double x
property double y
property double z
end_header
-156.62 422.968 -1577
-145.033 459.657 -1624
-131.575 455.669 -1623
-118.817 454.22 -1631
-180.219 456.392 -1610
-193.512 456.686 -1610
-207.955 452.853 -1620
-104.586 423.847 -1622
-240.753 422.417 -1620
-128.826 378.088 -1601
-180.234 380.355 -1593
27.7905 220.81 -1686
-369.334 228.929 -1643
285.156 236.762 -1765
-633.205 215.883 -1648
523.548 237.892 -1794
-875.73 217.062 -1582
619.67 239.485 -1786
-957.543 200.188 -1556
619.257 241.582 -1773
-961.275 200.242 -1555
581.549 236.041 -1767
-921.542 201.858 -1553
-65.6575 -292.267 -1577
-258.202 -294.328 -1540
-85.3286 -680.503 -1645
-277.091 -662.019 -1604
-140.31 -1112.15 -1753
-238.061 -1110.26 -1743
-146.7 -1132.27 -1722
-221.928 -1147.1 -1724
-86.7909 -1203.94 -1557
0 0 0
