ply
format ascii 1.0
comment Created by Open3D
element vertex 33
property double x
property double y
property double z
end_header
-12.4232 202.017 -559
-22.3193 209.884 -543
-22.3072 208.641 -543
-22.3072 208.641 -543
-28.365 204.555 -529
-32.4121 202.3 -523
-38.0763 202.351 -526
-37.5216 200.126 -553
-55.526 197.164 -537
-15.4561 191.247 -591
-20.407 190.946 -594
-65.7898 179.105 -779
-132.025 185.546 -883
-67.1304 240.098 -1249
-105.419 176.951 -844
-46.6733 193.376 -1245
-37.7691 197.354 -597
-41.7541 183.689 -1248
-27.6856 200.152 -564
-43.808 176.922 -1236
-25.0277 201.037 -556
-41.3954 174.694 -1238
-30.8521 199.72 -581
-82.3482 -230.684 -1178
-118.344 -255.328 -1177
-98.9319 -537.38 -1139
-111.773 -572.521 -1135
-142.976 -982.786 -1311
-151.132 -1077.24 -1326
-178.704 -1103.76 -1334
-187.504 -1169.95 -1322
42.4857 -1171.61 -1460
36.8551 -1162.09 -1349
