ply
format ascii 1.0
comment Created by Open3D
element vertex 33
property double x
property double y
property double z
end_header
-218.505 423.528 -1343
0 0 0
0 0 0
0 0 0
0 0 0
0 0 0
0 0 0
-279.883 445.106 -1347
0 0 0
-234.839 395.251 -1345
-201.853 393.006 -1351
-398.946 261.872 -1294
-34.1596 264.491 -1334
-717.82 214.835 -1293
238.758 231.406 -1385
-998.351 208.342 -1257
518.908 239.895 -1444
-1837.28 380.547 -2152
578.703 242.228 -1444
-1829.98 401.043 -2150
0 0 0
-1780.13 386.571 -2146
571.814 258.147 -1468
-260.361 -254.154 -1255
-117.74 -247.931 -1278
-259.58 -680.571 -1330
-132.359 -657.797 -1317
-256.595 -1088.5 -1341
-164.744 -1091.84 -1366
-237.964 -1156.15 -1312
-171.342 -1170.47 -1324
-285.625 -1032.07 -1345
-158.619 -1024.54 -1366
