ply
format ascii 1.0
comment Created by Open3D
element vertex 33
property double x
property double y
property double z
end_header
-93.153 428.547 -1191
-78.157 471.947 -1220
-65.5418 470.11 -1223
-53.108 470.209 -1231
-118.666 471.257 -1216
-133.467 469.732 -1211
-148.226 465.864 -1207
-47.7322 442.252 -1231
-176.966 445.629 -1217
-76.3542 394.005 -1208
-122.442 392.933 -1194
53.3583 249.213 -1311
-311.048 266.235 -1277
288.853 231.158 -1377
-568.979 256.46 -1282
537.653 234.164 -1442
-827.448 275.98 -1233
603.736 243.145 -1464
-887.373 293.1 -1220
0 0 0
0 0 0
570.185 233.354 -1449
-863.831 281.515 -1215
-26.4175 -249.237 -1223
-194.033 -248.963 -1199
-31.8425 -613.876 -1271
-181.053 -624.718 -1259
-83.8138 -1059.26 -1393
-161.27 -1077.33 -1371
-96.7945 -1088.05 -1377
-141.818 -1103.3 -1359
-67.7718 -1166.99 -1251
-147.662 -1166.96 -1231
