ply
format ascii 1.0
comment Created by Open3D
element vertex 33
property double x
property double y
property double z
end_header
-148.148 176.286 -563
-136.1 191.917 -555
-130.816 193.892 -558
-126.483 195.604 -560
-144.916 188.921 -552
-147.35 189.063 -552
-148.766 188.221 -553
-101.463 194.711 -576
-135.419 189.099 -558
-303.397 364.44 -1287
-335.3 367.767 -1315
-120.369 210.823 -996
-157.108 200.243 -971
-159.651 194.541 -1087
-163.627 -0.777734 -1142
-119.081 187.867 -593
-210.56 -175.17 -1135
-118.307 201.752 -536
-230.271 -231.625 -1157
-119.506 201.448 -525
-235.926 -232.555 -1161
-125.177 199.859 -547
-233.243 -222.793 -1161
-163.978 -253.391 -1142
-170.447 -224.941 -1142
-141.208 -560.809 -1115
-163.644 -505.379 -1118
-119.598 -1050.54 -1295
-122.298 -932.57 -1261
-78.6997 -1146.22 -1302
-88.9198 -1131.65 -1397
-312.599 -1164.11 -1300
-324.681 -1167.48 -1395
