ply
format ascii 1.0
comment Created by Open3D
element vertex 66
property double x
property double y
property double z
end_header
-78.5733 326.181 -2216
-70.2057 346.319 -2230
-56.9207 337.978 -2235
-43.8338 335.948 -2252
-96.411 348.756 -2216
-104.892 343.049 -2208
-113.899 343.561 -2211
0 0 0
-140.202 303.209 -2210
-56.9421 271.071 -2242
-95.2772 270.166 -2197
74.6438 126.926 -2311
-282.036 126.317 -2289
303.811 105.455 -2332
-514.573 86.6803 -2303
527.118 74.8397 -2370
-738.382 74.2247 -2311
595.137 69.6293 -2344
0 0 0
607.413 74.7204 -2353
0 0 0
578.043 69.8601 -2355
-784.939 69.41 -2298
-29.9055 -374.198 -2216
-212.219 -374.828 -2213
-54.5018 -734.996 -2261
-212.215 -743.74 -2251
-107.114 -1110.09 -2309
-176.853 -1114.83 -2316
-111.999 -1149.07 -2295
-166.343 -1150.17 -2295
-89.5838 -1201.36 -2198
0 0 0
-107.41 6.53412 -4546.32
-107.41 6.53412 -4546.32
-107.41 6.53412 -4546.32
-107.41 6.53412 -4546.32
-107.41 6.53412 -4546.32
-107.41 6.53412 -4546.32
-107.41 6.53412 -4546.32
-59.5802 312.256 -2315.32
-107.41 6.53412 -4546.32
-104.205 269.689 -2369.32
-134.595 269.823 -2368.32
69.2487 140.493 -2420.32
-269.925 123.982 -2411.32
292.797 134.49 -2398.32
-513.405 92.092 -2378.32
-107.41 6.53412 -4546.32
-777.065 80.2678 -2384.32
-107.41 6.53412 -4546.32
-839.196 71.4302 -2397.32
-107.41 6.53412 -4546.32
-836.216 84.8663 -2392.32
-107.41 6.53412 -4546.32
-811.053 80.1189 -2396.32
-61.9751 -362.906 -2435.32
-206.261 -364.521 -2427.32
-55.2194 -746.199 -2392.32
-214.851 -729.874 -2399.32
-99.302 -1133.78 -2387.32
-107.41 6.53412 -4546.32
-99.3884 -1191.09 -2435.32
-201.341 -1176.77 -2422.32
-107.41 6.53412 -4546.32
-209.981 -1105.06 -2412.32
