ply
format ascii 1.0
comment Created by Open3D
element vertex 33
property double x
property double y
property double z
end_header
-67.6778 400.177 -1611
-57.861 442.388 -1603
-51.3323 442.347 -1603
-48.1169 446.037 -1604
-64.3514 442.159 -1602
-61.0497 441.859 -1601
-57.8107 445.263 -1601
4.10274 444.234 -1598
-15.471 449.351 -1604
-48.0465 373.679 -1614
-54.554 370.335 -1614
58.797 255.224 -1314
32.6615 191.829 -1067
-16.7601 133.654 -779
-17.4047 135.179 -894
-7.95029 130.257 -839
-22.7566 136.853 -770
-13.8142 135.021 -893
-14.0013 143.616 -799
-13.3894 136.059 -865
-14.2712 149.65 -814
-13.3894 136.059 -865
-15.6859 145.984 -803
12.7079 -224.612 -1492
-2.21751 -217.123 -1503
45.1505 -608.723 -1515
28.941 -557.096 -1507
79.7062 -1074.91 -1574
84.3831 -957.289 -1566
135.073 -1157.17 -1559
140.623 -1102.87 -1670
-126.546 -1151.77 -1513
-104.338 -1140.54 -1729
