ply
format ascii 1.0
comment Created by Open3D
element vertex 33
property double x
property double y
property double z
end_header
77.2419 409.498 -1568
67.5419 440.354 -1559
61.1661 443.368 -1558
57.9132 442.776 -1556
61.1661 443.368 -1558
54.9015 447.246 -1560
45.0228 447.079 -1548
13.3582 440.765 -1538
-5.43048 439.323 -1533
57.7168 378.084 -1562
51.1776 379.625 -1555
-53.9763 228.707 -1365
-57.0822 293.909 -1437
-99.0508 115.898 -1432
-68.6794 132.571 -841
-39.8396 -82.1612 -1460
-95.1198 130.785 -850
-36.9791 -117.073 -1460
-124.864 121.356 -830
-28.2232 -111.083 -1458
-115.98 130.569 -814
-25.3519 -102.5 -1460
-103.516 134.696 -820
-28.1653 -235.183 -1445
-39.6927 -237.828 -1443
-42.1027 -577.053 -1470
-58.8159 -631.815 -1494
-75.0999 -968.314 -1549
-84.1559 -1085.83 -1549
-129.539 -1092.02 -1590
-142.349 -1168.76 -1528
129.644 -1174.1 -1710
125.556 -1154.42 -1523
