ply
format ascii 1.0
comment Created by Open3D
element vertex 33
property double x
property double y
property double z
end_header
49.9516 398.169 -1513
37.741 432.821 -1510
28.3838 434.011 -1503
19.4773 443.62 -1525
68.2999 428.361 -1505
77.6741 429.301 -1508
90.1202 430.002 -1510
-2.31186 427.832 -1539
107.817 429.931 -1544
36.8832 365.851 -1486
67.2662 367.505 -1492
-123.845 260.025 -1477
215.403 251.784 -1457
-407.404 233.037 -1548
483.395 230.895 -1496
-674.103 170.881 -1567
575.723 223.839 -1491
-743.5 164.982 -1554
600.49 211.264 -1485
-751.3 168.564 -1554
543.712 206.741 -1489
-719.707 164.103 -1552
528.888 203.904 -1495
-25.4321 -271.578 -1450
129.82 -261.966 -1459
-39.9505 -659.537 -1485
104.133 -652.054 -1482
-43.9258 -1083.89 -1495
97.0289 -1085.63 -1483
-29.8096 -1144.12 -1444
92.5608 -1158.43 -1424
-50.1826 -1022.52 -1498
95.4535 -1020.76 -1481
