ply
format ascii 1.0
comment Created by Open3D
element vertex 33
property double x
property double y
property double z
end_header
-22.4166 414.591 -1642
-2.48574 453.275 -1656
14.2404 446.493 -1644
27.6081 446.524 -1644
-43.0909 452.015 -1664
-53.3736 453.156 -1668
-70.8278 452.948 -1680
52.9126 442.474 -1709
-77.6379 432.346 -1683
10.926 383.988 -1659
-42.8087 378.497 -1665
179.328 254.113 -1745
-171.484 252.058 -1756
433.525 229.419 -1772
-445.999 233.157 -1800
659.62 237.563 -1731
-722.892 191.949 -1809
719.313 234.529 -1720
-800.206 185.602 -1801
722.255 227.059 -1718
-800.206 185.602 -1801
702.387 225.2 -1739
-763.964 176.651 -1797
89.1587 -265.897 -1696
-80.9769 -270.572 -1704
101.393 -661.153 -1723
-43.7578 -675.833 -1795
100.589 -1060.15 -1807
-35.1987 -1080.82 -1827
80.6639 -1095.73 -1793
-7.00266 -1134.43 -1808
130.261 -1146.01 -1605
-93.2145 -1165.4 -1641
