ply
format ascii 1.0
comment Created by Open3D
element vertex 66
property double x
property double y
property double z
end_header
-18.6461 219.777 -1628
0.861633 249.308 -1649
10.7673 246.414 -1652
20.6473 246.125 -1650
-31.967 248.281 -1642
-42.0475 249.665 -1651
-51.9873 249.845 -1652
37.3958 231.253 -1663
-68.4939 233.302 -1653
4.12832 185.392 -1643
-38.2229 187.694 -1634
145.527 67.6761 -1731
-176.596 90.9673 -1713
371.403 44.6538 -1752
-419.396 105.594 -1700
585.797 57.5836 -1790
-630.536 115.831 -1709
653.596 46.6667 -1779
-690.294 112.197 -1692
655.118 54.1649 -1783
-699.3 120.223 -1704
626.456 57.2662 -1770
-672.647 115.146 -1687
58.1203 -344.49 -1673
-116.131 -342.032 -1659
43.0382 -706.459 -1671
-124.157 -712.267 -1701
35.0919 -1107.05 -1680
-109.096 -1101.95 -1685
19.9198 -1136.14 -1665
-104.395 -1141.43 -1649
19.7276 -1207.45 -1610
-100.465 -1218.45 -1609
-46.3188 225.164 -1846.88
-32.3455 254.319 -1837.88
-22.1409 253.737 -1841.88
-15.1382 250.879 -1837.88
-60.0033 252.278 -1850.88
-70.1993 254.416 -1836.88
-76.1848 -9.42517 -3558.88
-1.32917 237.259 -1835.88
-76.1848 -9.42517 -3558.88
-32.2646 203.102 -1829.88
-63.2525 203.797 -1823.88
112.027 78.7748 -1833.88
-192.063 86.9075 -1806.88
357.635 66.4902 -1828.88
-437.247 81.1594 -1731.88
555.01 73.1806 -1877.88
-644.937 67.7245 -1735.88
615.299 52.3157 -1890.88
-721.783 53.3595 -1734.88
612.696 65.635 -1906.88
-726.451 61.4051 -1721.88
593.251 69.2589 -1897.88
-695.069 64.1778 -1741.88
38.9002 -378.882 -1868.88
-118.139 -376.597 -1860.88
50.5212 -744.336 -1879.88
-116.593 -753.121 -1856.88
52.0282 -1197.16 -1843.88
-131.736 -1194.29 -1852.88
19.9726 -1220.96 -1958.88
-115.083 -1230.54 -1930.88
59.7972 -1200.5 -1846.88
-131.736 -1194.29 -1852.88
