ply
format ascii 1.0
comment Created by Open3D
element vertex 66
property double x
property double y
property double z
end_header
-191.331 472.409 -1679
-173.027 499.617 -1699
-159.306 500.229 -1702
-149.501 502.391 -1710
-204.619 500.311 -1699
-216.193 502.925 -1707
-226.688 502.902 -1706
-135.44 481.164 -1714
-235.834 486.097 -1698
-168.888 442.241 -1703
-213.185 444.143 -1693
-38.7113 319.516 -1798
-359.83 345.019 -1772
183.044 300.946 -1813
-584.507 355.825 -1769
396.834 300.231 -1856
-792.119 370.502 -1773
467.984 287.174 -1860
-863.315 360.329 -1759
478.677 296.687 -1870
-861.378 367.117 -1754
0 0 0
-838.877 367.244 -1762
-118.38 -106.773 -1713
-287.415 -113.054 -1691
-121.107 -468.217 -1712
-298.122 -478.142 -1734
-123.435 -853.485 -1703
-281.881 -853.325 -1725
-138.588 -893.408 -1696
-257.97 -888.811 -1703
-156.199 -969.523 -1657
-301.414 -959.089 -1641
-223.509 480.644 -1871.64
-212.441 506.428 -1877.64
-200.583 512.204 -1871.64
-193.19 512.068 -1872.64
-239.218 503.522 -1886.64
-381.976 3.72842 -3694.64
-381.976 3.72842 -3694.64
-182.791 495.305 -1877.64
-381.976 3.72842 -3694.64
-209.146 457.175 -1873.64
-241.397 456.795 -1857.64
-74.8036 339.862 -1883.64
-382.95 349.09 -1836.64
166.873 346.472 -1885.64
-603.661 335.261 -1770.64
345.286 360.881 -1933.64
-834.62 327.129 -1750.64
404.516 349.452 -1950.64
-381.976 3.72842 -3694.64
409.382 363.196 -1960.64
-904.896 332.935 -1751.64
391.158 365.11 -1944.64
-877.202 334.386 -1762.64
-135.84 -119.204 -1903.64
-293.438 -119.142 -1894.64
-110.665 -501.459 -1900.64
-287.109 -498.658 -1884.64
-91.0086 -912.242 -1897.64
-275.149 -890.854 -1899.64
-105.91 -978.624 -1944.64
-260.222 -948.722 -1928.64
-50.3016 -940.648 -1900.64
-294.311 -945.793 -1915.64
