ply
format ascii 1.0
comment Created by Open3D
element vertex 66
property double x
property double y
property double z
end_header
-224.409 418.835 -1886
-218.745 453.489 -1899
-210.524 452.393 -1895
-203.347 449.686 -1901
-234.859 450.966 -1904
-238.767 451.044 -1904
-246.767 447.659 -1906
-191.051 432.617 -1897
-249.895 427.034 -1903
-210.387 390.617 -1903
-231.355 393.597 -1916
-54.7973 221.936 -2002
-393.713 235.436 -1954
211.762 143.137 -2072
-664.254 180.375 -2005
456.103 143.33 -2048
-926.535 185.728 -1948
539.339 142.372 -2020
-1000.48 175.787 -1903
546.707 153.305 -1999
-1000.46 182.521 -1884
513.145 153.011 -2001
-983.036 183.082 -1897
-173.374 -334.502 -1929
-305.569 -323.34 -1922
0 0 0
-275.256 -746.534 -2007
0 0 0
0 0 0
0 0 0
0 0 0
0 0 0
0 0 0
-372.926 43.1638 -3952.64
-372.926 43.1638 -3952.64
-372.926 43.1638 -3952.64
-372.926 43.1638 -3952.64
-372.926 43.1638 -3952.64
-372.926 43.1638 -3952.64
-372.926 43.1638 -3952.64
-372.926 43.1638 -3952.64
-252.857 490.917 -2020.64
-196.362 430.873 -2080.64
-228.573 431.912 -2054.64
-33.2745 265.264 -2136.64
-396.011 296.239 -2105.64
236.508 265.157 -2153.64
-630.644 298.57 -2100.64
487.159 298.21 -2169.64
-882.786 338.599 -2070.64
568.458 287.971 -2185.64
-964.426 333.118 -2070.64
581.118 304.715 -2180.64
-372.926 43.1638 -3952.64
-372.926 43.1638 -3952.64
-931.339 347.557 -2072.64
-153.133 -278.366 -2186.64
-316.874 -264.245 -2175.64
-134.388 -722.148 -2152.64
-316.684 -709.706 -2131.64
-145.305 -1160.29 -2236.64
-342.172 -1166.41 -2210.64
-165.725 -1162.26 -2367.64
-317.735 -1167.56 -2345.64
-184.389 -1164.8 -2278.64
-372.926 43.1638 -3952.64
