ply
format ascii 1.0
comment Created by Open3D
element vertex 66
property double x
property double y
property double z
end_header
-155.095 193.758 -1957
-137.402 227.995 -1982
-125.819 228.509 -1987
-118.227 229.161 -1993
-171.504 226.024 -1963
-180.121 227 -1971
-192.885 228.124 -1980
-106.297 221.205 -1994
-209.61 221.155 -1988
-129.713 165.01 -1990
-175.894 167.67 -1972
9.24619 51.747 -2061
-325.239 72.0076 -2038
216.929 11.0332 -2085
-555.82 27.2615 -2013
431.805 -1.46784 -2142
-766.7 15.3521 -2019
506.431 -23.0594 -2137
-829.148 2.76836 -2001
517.328 -18.8238 -2145
-828.323 6.95352 -1999
492.066 -14.3831 -2133
-804.247 6.92599 -1997
-63.1937 -358.623 -2002
-242.149 -368.038 -1977
-73.1036 -738.914 -1986
-244.536 -755.11 -2033
-108.362 -1135.75 -2000
-248.255 -1130.06 -1991
-124.965 -1157.89 -1973
-242.747 -1164.01 -1967
-115.164 -1245.96 -1914
-249.978 -1239.4 -1921
-172.355 208.211 -2162.02
-158.595 239.119 -2140.02
-147.804 237.102 -2157.02
-139.883 232.998 -2158.02
-306.671 -9.32924 -4158.02
-306.671 -9.32924 -4158.02
-306.671 -9.32924 -4158.02
-128.007 220.868 -2159.02
-306.671 -9.32924 -4158.02
-160.4 188.328 -2161.02
-306.671 -9.32924 -4158.02
-6.34193 57.5941 -2148.02
-315.853 70.472 -2112.02
233.788 29.6953 -2170.02
-533.466 53.073 -2020.02
428.899 9.42386 -2221.02
-306.671 -9.32924 -4158.02
482.285 -14.6726 -2254.02
-842.505 15.4668 -1993.02
484.659 -2.71975 -2259.02
-836.245 24.1112 -2000.02
464.552 5.23746 -2254.02
-306.671 -9.32924 -4158.02
-85.1839 -399.996 -2189.02
-244.03 -392.672 -2177.02
-77.3649 -775.722 -2191.02
-244.878 -798.786 -2147.02
-75.0099 -1183.37 -2173.02
-246.915 -1171.96 -2184.02
-106.79 -1254.98 -2266.02
-237.901 -1234.12 -2198.02
-306.671 -9.32924 -4158.02
-232.617 -1218.43 -2161.02
