ply
format ascii 1.0
comment Created by Open3D
element vertex 33
property double x
property double y
property double z
end_header
-211.526 356.973 -1561
-199.791 396.828 -1590
-189.802 393.012 -1589
-177.595 391.362 -1597
-230.393 393.822 -1575
-240.856 391.959 -1580
-251.076 389.593 -1583
-164.659 362.262 -1603
-281.584 365.632 -1592
-191.9 313.628 -1591
-236.869 320.046 -1586
-53.1685 194.729 -1695
-419.876 192.207 -1668
191.499 242.243 -1761
-679.093 233.709 -1695
430.685 286.382 -1786
-886.933 300.652 -1641
513.166 287.268 -1753
-957.794 288.48 -1606
517.104 291.06 -1753
-958.647 292.317 -1607
486.564 286.472 -1753
-930.827 291.453 -1612
-150.551 -339.223 -1595
-323.169 -344.253 -1570
-167.478 -771.427 -1686
-323.03 -784.202 -1654
-215.414 -1098.24 -1680
0 0 0
-236.313 -1130.18 -1682
0 0 0
0 0 0
-275.317 -1205.05 -1473
