ply
format ascii 1.0
comment Created by Open3D
element vertex 33
property double x
property double y
property double z
end_header
-68.3828 355.557 -1721
-82.5998 391.898 -1723
-82.5998 391.898 -1723
-85.8853 391.015 -1719
-89.5992 395.554 -1723
-99.7748 394.496 -1718
-106.488 393.642 -1714
-123.064 377.501 -1705
-155.113 380.096 -1715
-78.9907 321.796 -1730
-89.0682 320.558 -1723
-160.152 178.789 -1579
0 0 0
-171.856 -28.7649 -1271
-211.205 20.5383 -1341
0 0 0
-95.5153 -101.443 -1148
0 0 0
-88.8333 -148.26 -1118
0 0 0
-66.3338 -143.477 -1117
-95.8775 -173.872 -1093
-64.7127 -129.083 -1129
0 0 0
-192.855 -265.748 -1605
-178.517 -661.041 -1611
-178.43 -650.572 -1613
-212.649 -1145.56 -1670
0 0 0
-253.4 -1204.62 -1628
-265.434 -1205.48 -1600
0 0 0
0 0 0
