ply
format ascii 1.0
comment Created by Open3D
element vertex 33
property double x
property double y
property double z
end_header
0 0 0
0 0 0
0 0 0
0 0 0
0 0 0
0 0 0
0 0 0
-361.645 375.479 -1740
0 0 0
-341.364 326.88 -1736
-309.348 319.441 -1719
-456.021 196.042 -1606
-121.737 192.944 -1707
-656.474 209.316 -1531
109.076 187.173 -1750
-878.565 242.774 -1435
368.324 221.313 -1837
-942.49 225.901 -1403
456.3 197.596 -1885
-938.809 236.952 -1390
443.668 203.283 -1832
-918.558 238.286 -1409
412.973 210.245 -1832
-341.289 -326.446 -1646
-182.695 -327.44 -1686
-359.353 -710.964 -1656
-196.852 -713.088 -1708
-328.981 -1122.11 -1630
-224.899 -1149.67 -1675
0 0 0
0 0 0
0 0 0
0 0 0
