ply
format ascii 1.0
comment Created by Open3D
element vertex 33
property double x
property double y
property double z
end_header
-402.364 352.835 -1593
-378.941 385.073 -1575
-373.147 385.794 -1579
-362.931 388.553 -1578
-394.072 383.918 -1582
-394.072 383.918 -1582
-390.426 383.543 -1581
-312.134 386.757 -1592
-346.78 375.661 -1583
-367.706 324.959 -1594
-385.499 322.942 -1598
-183.647 194.222 -1349
-270.245 186.565 -1477
-52.4386 226.765 -970
-261.045 4.99137 -1502
-40.4555 239.212 -963
-303.794 -148.691 -1526
-7.18988 241.61 -949
-318.322 -190.003 -1532
-19.0343 241.633 -965
-331.981 -203.168 -1535
-32.9735 239.594 -973
-324.337 -192.993 -1530
-271.421 -319.598 -1521
-301.605 -306.464 -1515
-273.955 -701.038 -1529
-309.726 -631.777 -1525
0 0 0
-281.112 -1011.32 -1581
-207.017 -1198.48 -1510
-231.56 -1094.49 -1586
0 0 0
0 0 0
