ply
format ascii 1.0
comment Created by Open3D
element vertex 66
property double x
property double y
property double z
end_header
0.761005 405.877 -1427
9.51299 430.525 -1427
18.3708 430.144 -1436
27.6733 435.093 -1463
-27.9782 426.987 -1405
-42.3809 427.365 -1406
-56.7323 427.165 -1405
24.5219 408.477 -1458
-85.7677 402.679 -1414
0 0 0
-27.7221 366.154 -1403
137.625 229.99 -1517
-241.905 223.628 -1486
350.296 182.849 -1511
-490.205 218.808 -1453
566.176 193.611 -1505
-736.168 228.034 -1427
624.115 179.217 -1503
-807.965 217.239 -1390
643.356 186.536 -1506
-815.706 220.745 -1390
611.007 187.596 -1496
-784.672 214.522 -1402
38.331 -298.612 -1436
-132.219 -301.54 -1432
13.6534 -686.356 -1513
-135.261 -694.003 -1486
11.7301 -1096.86 -1573
-116.438 -1103.54 -1546
4.49685 -1110.28 -1545
-103.057 -1130.62 -1551
18.0985 -1179.73 -1440
-120.437 -1200.55 -1444
-57.965 382.894 -1619.3
-104.984 -0.88705 -2999.3
-104.984 -0.88705 -2999.3
-30.02 410.179 -1628.3
-80.6146 408.011 -1634.3
-91.8388 405.883 -1641.3
-102.883 416.354 -1606.3
-104.984 -0.88705 -2999.3
-104.984 -0.88705 -2999.3
-39.686 359.871 -1583.3
-77.1825 354.898 -1590.3
126.465 224.683 -1614.3
-244.735 212.202 -1613.3
376.116 195.028 -1532.3
-452.411 197.826 -1555.3
632.972 196.491 -1483.3
-645.466 203.46 -1528.3
707.812 189.781 -1479.3
-704.196 197.464 -1516.3
717.055 201.16 -1470.3
-696.433 206.276 -1519.3
689.45 200.076 -1470.3
-674.992 202.174 -1521.3
41.9699 -275.56 -1670.3
-159.141 -266.343 -1670.3
40.7699 -663.985 -1631.3
-126.091 -632.338 -1629.3
4.01894 -1109.98 -1648.3
-115.539 -1097.36 -1638.3
-7.91156 -1196.55 -1675.3
-112.439 -1172.74 -1644.3
2.49794 -1040.33 -1639.3
-92.8567 -1053.7 -1607.3
