ply
format ascii 1.0
comment Created by Open3D
element vertex 33
property double x
property double y
property double z
end_header
-12.8026 392.554 -1696
-23.2004 425.646 -1700
-26.6127 425.154 -1698
-26.6375 428.992 -1699
-30.0451 428.497 -1697
-36.6753 429.052 -1685
-46.5525 429.068 -1671
-73.3485 417.13 -1665
-97.3402 422.119 -1670
-26.3684 359.927 -1692
-36.431 361.749 -1684
-138.385 206.132 -1546
-143.727 278.324 -1599
-169.423 73.2065 -1553
-208.621 188.197 -1250
-158.952 -66.8381 -1573
-243.264 114.366 -958
-149.968 -117.272 -1576
-291.364 107.043 -954
-153.1 -110.984 -1576
-290.799 107.559 -959
-149.911 -104.67 -1576
-280.687 107.754 -982
-116.309 -266.936 -1578
-113.112 -273.193 -1577
-131.981 -605.436 -1595
-158.08 -653.749 -1613
-153.18 -1088.5 -1778
-169.801 -1109.3 -1678
-184.77 -1108.01 -1675
-227.425 -1188.8 -1644
0 0 0
23.8169 -1190.9 -1650
