ply
format ascii 1.0
comment Created by Open3D
element vertex 33
property double x
property double y
property double z
end_header
-12.2028 383.956 -1615
-25.4727 420.106 -1623
-38.4909 421.767 -1616
0 0 0
4.07963 409.447 -1595
17.1426 412.542 -1607
30.2628 417.016 -1611
-69.9524 420.371 -1664
44.2604 415.93 -1647
-27.8124 345.739 -1579
4.02242 346.361 -1582
-188.221 235.166 -1569
164.796 234.031 -1542
-470.619 206.128 -1632
447.61 204.555 -1569
-738.63 146.675 -1664
700.313 164.574 -1563
-799.808 146.917 -1648
751.069 158.165 -1550
-810.171 154.602 -1652
761.332 162.256 -1555
-782.698 143.487 -1655
716.351 161.14 -1557
-85.3406 -290.169 -1531
68.5636 -284.324 -1534
-78.9122 -692.405 -1575
53.4979 -665.443 -1565
-64.0593 -1109.77 -1577
55.8128 -1116.12 -1600
-56.5518 -1179.73 -1533
44.2576 -1177.23 -1543
-84.1908 -1022.44 -1578
40.2443 -1065.58 -1575
