ply
format ascii 1.0
comment Created by Open3D
element vertex 33
property double x
property double y
property double z
end_header
-119.112 369.393 -1751
-104.644 406.869 -1740
-97.5095 409.982 -1738
-86.9728 413.54 -1738
-115.59 404.718 -1746
-115.59 404.718 -1746
-115.59 404.718 -1746
-30.8302 411.474 -1746
-79.8081 402.323 -1737
-50.9794 186.144 -948
-59.8451 188.134 -968
32.487 218.201 -1443
6.37487 196.317 -1412
-36.2517 172.966 -1020
0.830807 40.2474 -1603
-36.2517 172.966 -1020
-41.4734 -69.4611 -1640
-43.6056 177.793 -1000
-41.8639 -109.54 -1654
-40.9518 178.972 -984
-65.1514 -103.419 -1661
-37.5817 177.763 -1000
-65.0967 -93.4409 -1660
-12.1438 -273.882 -1622
-44.754 -268.154 -1627
11.2069 -639.965 -1650
-9.32593 -607.302 -1643
39.3762 -1075.19 -1721
27.4614 -1018 -1713
85.999 -1155.91 -1700
70.8325 -1106.3 -1731
-133.44 -1168.81 -1680
-125.024 -1180.67 -1805
