ply
format ascii 1.0
comment Created by Open3D
element vertex 33
property double x
property double y
property double z
end_header
-52.6949 370.512 -1776
-38.7969 414.138 -1789
-28.2842 418.967 -1810
-17.3278 419.177 -1811
-78.9289 416.195 -1797
-93.0833 410.936 -1790
-108.304 413.818 -1802
0.955443 400.487 -1812
-126.548 392.08 -1805
-27.9983 342.385 -1802
-78.5205 341.817 -1798
128.823 231.773 -1883
-235.861 227.979 -1876
403.326 224.699 -1894
-492.016 223.78 -1906
655.8 206.411 -1894
-765.353 196.229 -1927
729.025 220.521 -1860
-838.097 198.386 -1886
733.719 220.762 -1861
-842.503 194.486 -1886
692.526 208.405 -1866
-814.7 183.436 -1906
33.3694 -285.79 -1801
-150.371 -292.965 -1796
20.7065 -709.438 -1896
-116.669 -707.325 -1888
13.7491 -1088.13 -1927
-100.491 -1097.62 -1933
-7.30674 -1124.6 -1910
-75.243 -1138.05 -1923
36.7416 -1174.94 -1752
-122.632 -1182.02 -1760
