ply
format ascii 1.0
comment Created by Open3D
element vertex 33
property double x
property double y
property double z
end_header
-127.073 214.775 -2008
0 0 0
0 0 0
0 0 0
0 0 0
0 0 0
0 0 0
0 0 0
0 0 0
0 0 0
0 0 0
-285.998 63.2916 -2024
5.11647 83.7826 -2044
-522.798 14.9724 -2018
234.053 52.6474 -2088
-710.981 2.6693 -1954
454.642 31.8612 -2064
-768.732 -9.42737 -1931
521.873 19.4065 -2056
-774.039 2.65103 -1922
518.069 36.0922 -2058
-754.831 6.70903 -1941
494.95 40.076 -2052
-216.988 -384.866 -2003
-63.5571 -380.872 -2011
-229.244 -764.848 -2048
-75.5699 -763.842 -2053
-214.327 -1190.98 -2034
-102.543 -1196.35 -2049
0 0 0
0 0 0
0 0 0
0 0 0
