ply
format ascii 1.0
comment Created by Open3D
element vertex 33
property double x
property double y
property double z
end_header
-156.316 201.999 -1923
-135.157 232.049 -1949
-124.085 233.177 -1959
-116.306 233.257 -1960
-169.664 235.232 -1941
-182.302 236.531 -1951
-194.644 233.4 -1957
-96.9173 221.907 -1965
-206.404 225.598 -1957
-130.911 173.235 -1948
-181.142 173.033 -1943
1.05678 51.1943 -2039
-321.09 71.089 -2012
203.705 -5.54453 -2078
-562.944 68.0692 -2007
375.099 -14.3575 -2145
-760.765 65.8984 -2027
449.277 -27.5807 -2162
-826.558 53.4471 -2017
0 0 0
-830.919 61.9006 -2016
425.934 -18.8114 -2157
-807.883 61.7536 -2017
-73.9326 -368.173 -1965
-253.964 -369.988 -1943
-85.3506 -700.869 -1992
-244 -707.813 -1965
-115.222 -1111.49 -2062
-216.385 -1097.84 -2041
-119.503 -1140.95 -2047
-208.056 -1136.36 -2034
-122.478 -1181.73 -1915
-213.199 -1192.79 -1919
