ply
format ascii 1.0
comment Created by Open3D
element vertex 33
property double x
property double y
property double z
end_header
-289.957 209.855 -1988
-273.267 237.105 -1982
-269.377 237.181 -1983
-265.352 237.137 -1983
-277.2 241.043 -1981
-273.036 240.876 -1980
-269.738 245.46 -1985
-220.583 228.119 -1978
-224.497 232.03 -1977
-273.617 173.738 -1989
-277.231 173.508 -1986
0 0 0
-172.168 60.0627 -1812
0 0 0
0 0 0
-72.518 -26.3113 -1419
-114.116 -25.9019 -1563
-54.0289 -31.0347 -1379
-100.545 -24.851 -1500
0 0 0
-100.137 -15.8485 -1494
-73.0784 -23.6762 -1430
-113.015 -16.4261 -1548
-159.323 -375.28 -1895
-193.286 -374.52 -1889
-186.28 -699.616 -1875
-190.011 -691.191 -1875
-166.411 -1050.95 -1865
-178.062 -1022.97 -1867
-138.445 -1200.79 -1963
-151.587 -1166.32 -1977
-297.489 -1178.18 -1977
-319.787 -1181.13 -2046
