ply
format ascii 1.0
comment Created by Open3D
element vertex 33
property double x
property double y
property double z
end_header
-65.9565 237.375 -2103
-81.6866 263.373 -2074
-85.4987 262.371 -2066
-89.3227 261.497 -2059
-81.6866 263.373 -2074
-85.4987 262.371 -2066
-85.5962 266.797 -2068
-125.891 248.36 -2052
-121.805 252.475 -2052
-77.2572 200.558 -2071
-77.2572 200.558 -2071
0 0 0
0 0 0
-169.165 -60.7055 -1990
-160.065 24.4205 -1416
-177.524 -136.229 -1992
-155.584 30.2871 -1427
-182.071 -176.459 -1996
-161.987 21.481 -1408
-177.364 -159.885 -1989
-158.112 27.3912 -1424
-169.666 -144.229 -1993
-153.361 30.41 -1433
-151.76 -381.233 -1946
-179.974 -382.915 -1953
-139.527 -704.07 -1937
-179.249 -710.341 -1928
-153.667 -1034.31 -1926
-181.501 -1051.02 -1900
-186.421 -1135.3 -1986
-219.554 -1184.21 -1994
-40.5487 -1189.38 -2126
-61.8226 -1180.35 -2051
