ply
format ascii 1.0
comment Created by Open3D
element vertex 66
property double x
property double y
property double z
end_header
-22.7728 363.809 -1453
-8.23952 399.06 -1481
9.85423 400.678 -1487
22.0208 399.139 -1493
-47.1659 400.451 -1474
-59.2233 397.925 -1476
-74.5731 396.775 -1483
43.4957 380.084 -1505
-93.1573 377.694 -1494
0.783261 331.307 -1485
-46.7222 325.451 -1472
149.063 172.347 -1579
-209.72 190.562 -1567
407.11 123.042 -1656
-457.222 138.551 -1590
672.414 97.2172 -1682
-725.412 114.211 -1601
744.119 100.447 -1656
-806.241 115.583 -1597
748.106 100.511 -1656
-798.758 123.662 -1566
720.575 90.0564 -1666
-771.079 116.811 -1574
50.7254 -319.148 -1550
-122.98 -316.629 -1535
53.1523 -667.677 -1553
-136.874 -689.599 -1549
37.8212 -1065.86 -1639
-149.815 -1067.48 -1630
8.64108 -1142.03 -1681
-123.867 -1136.11 -1662
94.8551 -1181.82 -1541
-180.582 -1189.69 -1501
-43.5736 339.913 -1673.58
-26.0283 364.349 -1693.58
-139.104 2.31028 -3213.58
-139.104 2.31028 -3213.58
-57.0958 363.079 -1697.58
-67.9575 370.355 -1666.58
-77.9339 369.94 -1681.58
16.0927 353.74 -1672.58
-92.0247 358.888 -1630.58
-21.9333 316.879 -1629.58
-57.7958 317.048 -1643.58
134.298 171.837 -1700.58
-213.205 175.314 -1681.58
387.851 102.339 -1682.58
-467.533 129.646 -1620.58
651.778 69.8885 -1698.58
-715.47 94.8311 -1596.58
722.059 50.7224 -1706.58
-776.081 95.3771 -1601.58
729.574 54.2763 -1700.58
-774.844 91.8384 -1604.58
693.629 53.6959 -1707.58
-753.345 84.9409 -1602.58
29.8407 -302.911 -1766.58
-125.062 -300.883 -1740.58
32.6277 -682.477 -1710.58
-124.03 -679.514 -1710.58
18.0417 -1084.32 -1732.58
-99.0522 -1066.8 -1732.58
11.1767 -1173.09 -1728.58
-91.3475 -1149.45 -1735.58
58.8627 -1090.72 -1707.58
-46.4929 -1086.25 -1713.58
