ply
format ascii 1.0
comment Created by Open3D
element vertex 66
property double x
property double y
property double z
end_header
-184.043 212.451 -2061
-165.43 239.964 -2085
-156.77 239.453 -2081
-148.504 239.521 -2082
-202.627 239.646 -2080
-210.593 239.249 -2076
-223.964 236.069 -2084
-128.801 220.589 -2102
-237.568 220.425 -2094
-159.707 179.941 -2069
-204.134 179.132 -2057
-24.8416 37.4707 -2182
-340.821 58.3652 -2136
190.805 2.90464 -2218
-585.46 54.5868 -2120
389.031 11.9883 -2251
-775.28 59.9045 -2117
450.528 7.52809 -2258
-841.897 55.2861 -2090
0 0 0
-847.996 59.7749 -2093
432.111 16.593 -2259
-823.667 59.9151 -2105
-108.054 -383.356 -2091
-278.816 -389.845 -2069
-126.243 -743.685 -2126
-267.395 -741.89 -2085
-153.933 -1134.49 -2176
-233.338 -1141.29 -2163
-157.579 -1164.29 -2148
-222.166 -1169.4 -2133
-142.184 -1210.82 -2025
0 0 0
-377.85 5.21504 -4312.5
-377.85 5.21504 -4312.5
-377.85 5.21504 -4312.5
-377.85 5.21504 -4312.5
-377.85 5.21504 -4312.5
-377.85 5.21504 -4312.5
-377.85 5.21504 -4312.5
-377.85 5.21504 -4312.5
-377.85 5.21504 -4312.5
-201.266 181.427 -2287.5
-377.85 5.21504 -4312.5
-56.1779 45.1713 -2243.5
-345.572 66.3386 -2210.5
184.463 16.4778 -2227.5
-573.847 38.371 -2135.5
374.927 12.2046 -2281.5
-789.624 16.9522 -2112.5
434.268 3.79147 -2307.5
-851.098 12.5335 -2122.5
-377.85 5.21504 -4312.5
-850.024 21.3183 -2127.5
419.277 16.388 -2298.5
-377.85 5.21504 -4312.5
-120.642 -406.037 -2284.5
-275.903 -399.935 -2263.5
-129.795 -773.648 -2253.5
-266.534 -774.538 -2230.5
-150.924 -1164.01 -2230.5
-236.927 -1165.14 -2213.5
-161.508 -1215.08 -2266.5
-377.85 5.21504 -4312.5
-164.466 -1192.2 -2238.5
-377.85 5.21504 -4312.5
