ply
format ascii 1.0
comment Created by Open3D
element vertex 33
property double x
property double y
property double z
end_header
-110.537 206.904 -1464
-94.2892 236.586 -1483
-85.6047 240.195 -1487
-76.8409 237.751 -1491
-128.843 231.645 -1469
-141.749 233.496 -1480
-150.89 230.883 -1482
-62.7963 229.03 -1514
-169.425 219.889 -1488
-88.4757 177.442 -1491
-132.498 176.637 -1482
41.4846 58.3531 -1576
-276.634 79.0761 -1536
255.517 27.5586 -1591
-505.701 45.264 -1500
470.3 2.22652 -1658
-724.172 24.4615 -1496
533.521 -18.1121 -1653
-791.524 2.13003 -1488
537.155 -18.1203 -1653
-787.803 5.32513 -1481
511.985 -14.5905 -1642
-771.446 8.52589 -1486
-29.3687 -341.713 -1494
-200.446 -346.325 -1478
-46.7793 -705.557 -1491
-206.878 -703.934 -1494
-69.4181 -1065.44 -1444
-199.516 -1077.65 -1459
-87.3637 -1104.13 -1452
-189.356 -1118.59 -1440
-84.0279 -1189.85 -1409
-183.168 -1200.7 -1404
