ply
format ascii 1.0
comment Created by Open3D
element vertex 33
property double x
property double y
property double z
end_header
-17.7264 236.731 -1545
-32.8609 265.11 -1527
-35.8515 264.597 -1524
-38.7374 266.493 -1517
-32.8609 265.11 -1527
-38.7374 266.493 -1517
-41.835 266.854 -1519
-71.796 255.975 -1509
-75.0065 253.581 -1513
-23.5812 203.066 -1527
-26.564 205.614 -1523
-67.671 50.932 -926
0 0 0
-116.135 -6.67231 -1434
-84.1699 47.7524 -867
-102.727 -52.705 -1446
-82.2304 44.1852 -865
-102.918 -75.8344 -1448
-93.9812 27.3774 -878
-94.4351 -70.193 -1451
-85.1509 36.8386 -896
-91.7102 -58.7603 -1454
-81.5726 40.3995 -896
-105.812 -334.987 -1423
-134.632 -332.152 -1422
-119.849 -659.822 -1377
-139.46 -652.282 -1367
-102.923 -1028.89 -1399
-131.383 -1017.59 -1347
-123.037 -1052.16 -1347
-146.403 -1047.07 -1322
-33.7329 -1196.38 -1448
-76.6938 -1195.03 -1392
