ply
format ascii 1.0
comment Created by Open3D
element vertex 33
property double x
property double y
property double z
end_header
-239.231 156.111 -1421
-232.025 186.33 -1410
-225.647 188.582 -1406
-217.212 191.459 -1407
-241.346 184.106 -1414
-237.81 186.415 -1410
-237.853 189.288 -1410
-170.724 204.734 -1424
-189.948 198.205 -1417
-210.006 135.694 -1421
-221.58 135.806 -1421
0 0 0
-135.675 63.0581 -1398
50.7829 1.27344 -974
1.23397 -53.5573 -2381
97.0726 -21.2874 -866
63.3513 -25.0483 -879
125.315 -34.3156 -844
241.849 -193.092 -2462
116.804 -35.8469 -883
231.64 -182.967 -2459
108.877 -34.9349 -906
205.855 -167.229 -2446
-72.0252 -331.067 -1383
-140.6 -331.605 -1394
-50.5948 -645.444 -1336
-114.347 -664.985 -1381
-45.6446 -1007.51 -1326
-135.502 -1039.75 -1394
-40.6336 -1111.2 -1328
-105.878 -1033.35 -1335
-174.962 -1204.77 -1386
-254.318 -1190.95 -1515
