ply
format ascii 1.0
comment Created by Open3D
element vertex 33
property double x
property double y
property double z
end_header
-118.814 232.126 -1492
-132.492 256.567 -1474
-141.526 256.838 -1475
-153.571 257.152 -1476
-104.09 259.592 -1493
-94.4801 254.921 -1484
-85.1826 253.827 -1478
-169.219 240.493 -1484
0 0 0
-132.308 208.905 -1477
-104.222 211.93 -1500
-290.729 79.2771 -1479
12.7943 86.0234 -1512
-522.978 61.2791 -1511
262.007 58.6998 -1571
-727.706 45.8286 -1458
487.38 24.5113 -1563
-785.747 27.0282 -1435
561.809 8.62257 -1568
-787.924 36.346 -1432
559.376 18.374 -1571
-769.363 39.4695 -1439
536.268 21.475 -1565
-199.728 -361.187 -1425
-46.1784 -358.863 -1449
-209.083 -703.484 -1410
-65.3662 -722.705 -1473
-219.698 -1141.82 -1455
-43.9935 -1137.4 -1472
-207.235 -1195.07 -1407
-65.2992 -1210.32 -1452
-227.965 -1162.61 -1456
-51.0113 -1139.83 -1475
