ply
format ascii 1.0
comment Created by Open3D
element vertex 33
property double x
property double y
property double z
end_header
-208.209 386.137 -1507
-202.541 408.671 -1532
-193.863 407.029 -1539
-184.761 404.586 -1543
-224.745 409.223 -1532
-234.814 407.254 -1536
-243.513 402.911 -1531
-173.05 368.298 -1529
-269.792 370.136 -1541
-187.999 342.42 -1527
-224.384 344.353 -1518
-48.3963 208.974 -1646
-392.77 195.654 -1586
220.447 245.756 -1708
-658.902 228.727 -1579
454.14 279.793 -1716
-889.53 273.282 -1505
523.951 267.232 -1690
-956.389 260.486 -1459
535.163 283.632 -1725
-960.509 267.334 -1458
497.944 278.747 -1701
-933.901 263.06 -1463
-140.288 -323.961 -1554
-284.417 -332.696 -1521
-148.383 -710.711 -1562
-280.988 -757.25 -1601
-182.201 -1059.65 -1623
-249.371 -1112.76 -1604
-187.159 -1085.48 -1626
0 0 0
0 0 0
0 0 0
