ply
format ascii 1.0
comment Created by Open3D
element vertex 33
property double x
property double y
property double z
end_header
-398.678 343.998 -1552
-384.986 378.254 -1545
-375.163 381.18 -1545
-369.258 381.664 -1548
-398.426 375.713 -1546
-400.85 371.806 -1543
-400.85 371.806 -1543
-328.24 379.002 -1557
-370.986 364.28 -1544
-367.658 319.252 -1565
-386.206 312.298 -1560
-184.793 189.83 -1318
-301.84 187.692 -1482
-94.3895 234.355 -1121
-313.143 22.8926 -1485
-34.0023 233.399 -894
-380.7 -69.2752 -1531
2.35356 258.569 -916
0 0 0
-5.14281 256.59 -923
0 0 0
-26.1048 252.002 -935
0 0 0
-268.728 -309.834 -1489
-314.738 -301.312 -1487
-254.42 -685.929 -1514
-282.81 -647.87 -1498
0 0 0
-276.78 -1054.82 -1557
0 0 0
-237.078 -1122.54 -1557
0 0 0
0 0 0
