ply
format ascii 1.0
comment Created by Open3D
element vertex 33
property double x
property double y
property double z
end_header
-325.026 352.393 -1703
0 0 0
0 0 0
-346.215 387.489 -1697
0 0 0
0 0 0
0 0 0
-346.601 374.024 -1701
0 0 0
-326.129 322.325 -1694
-299.103 315.791 -1681
-430.994 191.144 -1541
-102.513 188.903 -1672
-636.379 218.504 -1458
126.708 197.928 -1751
-854.837 256.509 -1362
370.984 244.051 -1868
-900.401 245.521 -1331
447.858 222.051 -1898
-903.252 249.871 -1317
443.992 227.77 -1881
-883.814 250.359 -1329
416.262 234.843 -1880
-309.636 -311.497 -1590
-163.945 -314.17 -1636
-329.196 -709.306 -1610
-161.582 -728.756 -1672
-291.475 -1126.33 -1605
-181.99 -1190.44 -1650
-276.131 -1191.81 -1601
-182.547 -1197.45 -1563
0 0 0
-191.761 -1190.73 -1587
