ply
format ascii 1.0
comment Created by Open3D
element vertex 33
property double x
property double y
property double z
end_header
-48.2562 176.805 -864
-57.5927 212.897 -927
-59.9395 216.479 -934
-60.4079 220.074 -941
-63.708 214.562 -934
0 0 0
-127.607 377.59 -1628
-139.245 370.208 -1610
-169.499 365.704 -1618
-66.1338 193.021 -1037
-71.828 189.468 -1029
-158.912 163.809 -1284
-217.191 191.101 -1426
-146.662 168.516 -1224
-132.588 176.753 -1164
0 0 0
-49.4294 188.23 -884
-179.319 422.05 -3123
-39.4974 183.482 -862
-173.717 442.389 -3133
-39.1654 180.218 -855
-173.717 442.389 -3133
-44.4452 180.675 -857
-149.977 -284.388 -1497
-170.961 -287.195 -1494
-167.164 -631.676 -1505
-176.876 -632.403 -1506
-210.786 -1045.51 -1516
-222.282 -1106.35 -1529
-265.921 -1187.15 -1582
-270.466 -1204.03 -1550
0 0 0
0 0 0
